<svg id="Layer_1" data-name="Layer 1" xmlns="http://www.w3.org/2000/svg" viewBox="0 0 385.2 299.9"><defs><style>.cls-1{fill:#fff;}</style></defs><polygon class="cls-1" points="220.4 166.4 219.9 167 220.4 166.5 220.4 166.4"/><polygon class="cls-1" points="221.4 165.3 221.5 165.3 222.5 164.2 222.4 164.2 221.4 165.3"/><polygon class="cls-1" points="224.4 161.9 224.2 161.9 223.3 163 223.4 163.1 224.4 161.9"/><polygon class="cls-1" points="225.2 160.7 226.1 159.5 225.8 159.5 225 160.7 225.2 160.7"/><polygon class="cls-1" points="226.9 158.3 227.6 157.1 227.2 157.1 226.5 158.3 226.9 158.3"/><path class="cls-1" d="M236.3,204.7h-.4l-.6,1.2h.4Z" transform="translate(-7.4 -50.1)"/><polygon class="cls-1" points="230 152.2 229.4 152.4 229 153.5 229.5 153.4 230 152.2"/><polygon class="cls-1" points="230.9 149.7 230.2 150 229.8 151.2 230.5 150.9 230.9 149.7"/><polygon class="cls-1" points="231.4 147.4 230.6 147.8 230.4 148.9 231.2 148.6 231.4 147.4"/><polygon class="cls-1" points="231.7 145.1 230.8 145.7 230.7 146.7 231.6 146.3 231.7 145.1"/><polygon class="cls-1" points="231.6 143 230.7 143.6 230.8 144.6 231.7 144.1 231.6 143"/><polygon class="cls-1" points="231.5 142 231.3 141 230.3 141.8 230.5 142.7 231.5 142"/><polygon class="cls-1" points="229.5 140.1 229.9 140.9 231 140.1 230.6 139.2 229.5 140.1"/><polygon class="cls-1" points="229.1 139.3 230.1 138.4 229.6 137.6 228.5 138.6 229.1 139.3"/><polygon class="cls-1" points="228.9 136.9 228.2 136.3 227.2 137.4 227.9 138 228.9 136.9"/><polygon class="cls-1" points="227.4 135.7 226.6 135.2 225.5 136.4 226.4 136.9 227.4 135.7"/><polygon class="cls-1" points="225.6 134.8 224.6 134.4 223.6 135.7 224.6 136 225.6 134.8"/><polygon class="cls-1" points="222.3 133.9 221.4 135.3 222.5 135.5 223.5 134.1 222.3 133.9"/><polygon class="cls-1" points="219.8 133.8 219 135.2 220.2 135.2 221.1 133.8 219.8 133.8"/><polygon class="cls-1" points="217 134 216.3 135.5 217.7 135.3 218.4 133.9 217 134"/><polygon class="cls-1" points="215.5 134.2 214 134.6 213.5 136 214.9 135.7 215.5 134.2"/><polygon class="cls-1" points="212.5 135 210.9 135.5 210.5 136.9 212 136.4 212.5 135"/><polygon class="cls-1" points="209.3 136 207.7 136.7 207.5 138.1 209 137.4 209.3 136"/><polygon class="cls-1" points="205.9 138.8 206 137.4 204.4 138.3 204.4 139.6 205.9 138.8"/><polygon class="cls-1" points="202.8 140.4 202.7 139.2 201.1 140.1 201.3 141.3 202.8 140.4"/><polygon class="cls-1" points="199.8 142.3 199.5 141.1 197.8 142.2 198.2 143.3 199.8 142.3"/><polygon class="cls-1" points="196.8 144.4 196.3 143.4 194.7 144.6 195.3 145.5 196.8 144.4"/><polygon class="cls-1" points="193.9 146.7 193.2 145.8 191.7 147.1 192.5 147.9 193.9 146.7"/><polygon class="cls-1" points="189.8 150.4 191.1 149.2 190.3 148.5 189 149.8 189.8 150.4"/><polygon class="cls-1" points="187.4 153.1 188.6 151.8 187.7 151.2 186.4 152.6 187.4 153.1"/><polygon class="cls-1" points="186.3 154.4 185.2 154 184.1 155.5 185.3 155.8 186.3 154.4"/><polygon class="cls-1" points="184.3 157.1 183.1 156.9 182.2 158.3 183.4 158.5 184.3 157.1"/><polygon class="cls-1" points="182.5 159.8 181.3 159.8 180.5 161.2 181.8 161.2 182.5 159.8"/><polygon class="cls-1" points="181.1 162.5 179.8 162.6 179.2 164 180.5 163.8 181.1 162.5"/><polygon class="cls-1" points="180 165.1 178.6 165.3 178.2 166.6 179.5 166.3 180 165.1"/><polygon class="cls-1" points="179.1 167.6 177.8 167.9 177.5 169.2 178.8 168.8 179.1 167.6"/><polygon class="cls-1" points="178.5 171.1 178.6 169.9 177.3 170.4 177.2 171.6 178.5 171.1"/><polygon class="cls-1" points="178.4 173.2 178.4 172.1 177.2 172.7 177.2 173.7 178.4 173.2"/><polygon class="cls-1" points="178.7 175.1 178.5 174.2 177.4 174.8 177.6 175.7 178.7 175.1"/><polygon class="cls-1" points="202.6 179.5 202.6 179.5 203.2 179.2 202.6 179.5"/><polygon class="cls-1" points="179.5 158.7 179.5 158.7 179.1 159.4 179.5 158.7"/><polygon class="cls-1" points="181.4 155.7 181.2 155.6 180.3 157.2 180.4 157.2 181.4 155.7"/><polygon class="cls-1" points="183.5 152.7 183.3 152.6 182.2 154.1 182.4 154.2 183.5 152.7"/><polygon class="cls-1" points="186 149.7 185.7 149.5 184.5 151.1 184.7 151.2 186 149.7"/><polygon class="cls-1" points="188.4 146.6 187 148 187.3 148.2 188.7 146.8 188.4 146.6"/><path class="cls-1" d="M198.8,193.8l-1.5,1.4.3.3,1.5-1.4Z" transform="translate(-7.4 -50.1)"/><polygon class="cls-1" points="194.6 141 193 142.3 193.3 142.8 194.9 141.5 194.6 141"/><polygon class="cls-1" points="197.9 138.5 196.2 139.7 196.5 140.3 198.2 139.2 197.9 138.5"/><polygon class="cls-1" points="201.6 137.1 201.4 136.3 199.7 137.4 199.9 138.1 201.6 137.1"/><polygon class="cls-1" points="205 135.3 205 134.3 203.2 135.3 203.3 136.1 205 135.3"/><polygon class="cls-1" points="206.7 134.5 208.4 133.8 208.5 132.7 206.8 133.5 206.7 134.5"/><polygon class="cls-1" points="212 131.5 210.3 132.1 210.1 133.2 211.7 132.7 212 131.5"/><polygon class="cls-1" points="215.4 130.6 213.7 131 213.4 132.2 214.9 131.9 215.4 130.6"/><polygon class="cls-1" points="217 130.3 216.5 131.6 218 131.4 218.6 130.1 217 130.3"/><polygon class="cls-1" points="220.1 130 219.4 131.4 220.8 131.4 221.6 130 220.1 130"/><polygon class="cls-1" points="224.3 130.2 223 130 222.1 131.5 223.4 131.6 224.3 130.2"/><polygon class="cls-1" points="224.6 131.9 225.7 132.2 226.8 130.8 225.6 130.5 224.6 131.9"/><polygon class="cls-1" points="228.9 131.8 227.9 131.3 226.8 132.7 227.7 133.2 228.9 131.8"/><polygon class="cls-1" points="230.7 133.1 229.8 132.4 228.6 133.7 229.4 134.4 230.7 133.1"/><polygon class="cls-1" points="230.7 135.9 232.1 134.6 231.5 133.8 230.1 135.1 230.7 135.9"/><polygon class="cls-1" points="233.2 136.4 232.7 135.5 231.3 136.7 231.8 137.6 233.2 136.4"/><polygon class="cls-1" points="233.9 138.4 233.6 137.4 232.1 138.5 232.5 139.5 233.9 138.4"/><polygon class="cls-1" points="234.3 140.7 234.1 139.5 232.7 140.5 232.8 141.6 234.3 140.7"/><polygon class="cls-1" points="234.3 141.8 232.9 142.7 232.8 143.8 234.3 143 234.3 141.8"/><polygon class="cls-1" points="234.2 144.3 232.7 145 232.6 146.2 234 145.5 234.2 144.3"/><polygon class="cls-1" points="232.3 147.4 232 148.6 233.4 148.1 233.7 146.8 232.3 147.4"/><polygon class="cls-1" points="233 149.4 231.6 149.9 231.1 151.1 232.5 150.7 233 149.4"/><polygon class="cls-1" points="230.6 152.4 230 153.7 231.3 153.4 231.9 152 230.6 152.4"/><polygon class="cls-1" points="230.6 154.7 229.4 154.9 228.7 156.2 229.8 156 230.6 154.7"/><polygon class="cls-1" points="227.9 157.5 227.1 158.7 228.2 158.7 229 157.4 227.9 157.5"/><polygon class="cls-1" points="227.3 160 226.2 159.9 225.3 161.2 226.3 161.3 227.3 160"/><polygon class="cls-1" points="225.3 162.5 224.4 162.4 223.4 163.6 224.2 163.8 225.3 162.5"/><polygon class="cls-1" points="222 166.2 223.1 165 222.3 164.8 221.3 165.9 222 166.2"/><polygon class="cls-1" points="219.6 168.5 220.8 167.4 220.2 167 219 168.1 219.6 168.5"/><polygon class="cls-1" points="218.4 169.7 217.8 169.2 216.7 170.3 217.2 170.7 218.4 169.7"/><polygon class="cls-1" points="215.4 171.3 214.2 172.3 214.6 172.8 215.9 171.8 215.4 171.3"/><polygon class="cls-1" points="212.9 173.2 211.6 174.1 211.9 174.7 213.3 173.8 212.9 173.2"/><polygon class="cls-1" points="210.6 175.6 210.4 175 209 175.8 209.2 176.5 210.6 175.6"/><polygon class="cls-1" points="207.8 177.3 207.7 176.6 206.4 177.3 206.5 178 207.8 177.3"/><polygon class="cls-1" points="177.3 177 177 176.6 177.2 177 177.3 177"/><polygon class="cls-1" points="225.4 164.6 224.8 165.3 225.4 164.6 225.4 164.6"/><polygon class="cls-1" points="226.5 163.4 226.6 163.4 227.7 162.1 227.6 162.1 226.5 163.4"/><polygon class="cls-1" points="229.9 159.5 229.7 159.5 228.7 160.8 228.9 160.8 229.9 159.5"/><polygon class="cls-1" points="230.9 158.2 231.9 156.8 231.6 156.8 230.7 158.2 230.9 158.2"/><polygon class="cls-1" points="233.6 154 233.2 154.1 232.4 155.5 232.8 155.4 233.6 154"/><path class="cls-1" d="M242.6,201.3H242l-.6,1.4h.4Z" transform="translate(-7.4 -50.1)"/><polygon class="cls-1" points="235.7 148.7 235.2 150 235.8 149.8 236.4 148.4 235.7 148.7"/><polygon class="cls-1" points="237.4 145.7 236.6 146 236.2 147.3 236.9 147 237.4 145.7"/><polygon class="cls-1" points="238 142.9 237.1 143.4 236.9 144.7 237.7 144.3 238 142.9"/><polygon class="cls-1" points="238.3 140.3 237.3 140.9 237.3 142.1 238.2 141.6 238.3 140.3"/><polygon class="cls-1" points="238.3 137.8 237.2 138.5 237.3 139.7 238.4 139 238.3 137.8"/><polygon class="cls-1" points="238.1 136.6 237.9 135.4 236.7 136.3 237 137.4 238.1 136.6"/><polygon class="cls-1" points="237.5 134.3 237.1 133.3 235.9 134.3 236.3 135.2 237.5 134.3"/><polygon class="cls-1" points="236.5 132.3 235.9 131.3 234.7 132.5 235.3 133.3 236.5 132.3"/><polygon class="cls-1" points="234.3 129.6 233.1 130.9 233.9 131.7 235.2 130.4 234.3 129.6"/><polygon class="cls-1" points="233.4 128.9 232.4 128.3 231.2 129.7 232.2 130.3 233.4 128.9"/><polygon class="cls-1" points="228.9 128.8 230.1 129.2 231.2 127.7 230 127.2 228.9 128.8"/><polygon class="cls-1" points="228.7 126.9 227.3 126.6 226.3 128.2 227.6 128.4 228.7 126.9"/><polygon class="cls-1" points="224.9 128 225.9 126.4 224.3 126.3 223.4 128 224.9 128"/><polygon class="cls-1" points="221.9 128 222.7 126.3 221 126.4 220.3 128.2 221.9 128"/><polygon class="cls-1" points="217.5 127 216.9 128.7 218.6 128.4 219.3 126.7 217.5 127"/><polygon class="cls-1" points="213.7 127.9 213.4 129.7 215.1 129.1 215.6 127.4 213.7 127.9"/><polygon class="cls-1" points="211.8 128.6 209.9 129.3 209.7 131 211.5 130.3 211.8 128.6"/><polygon class="cls-1" points="207.9 130.1 206 131.1 206 132.6 207.9 131.8 207.9 130.1"/><polygon class="cls-1" points="204 132.1 202 133.2 202.3 134.6 204.2 133.6 204 132.1"/><polygon class="cls-1" points="200.5 135.8 200.1 134.4 198.2 135.6 198.7 136.9 200.5 135.8"/><polygon class="cls-1" points="196.9 138.2 196.3 137 194.5 138.4 195.2 139.5 196.9 138.2"/><polygon class="cls-1" points="193.5 140.9 192.7 139.8 190.9 141.3 191.9 142.3 193.5 140.9"/><polygon class="cls-1" points="190.3 143.8 189.3 142.9 187.7 144.5 188.8 145.3 190.3 143.8"/><polygon class="cls-1" points="186.1 146.1 184.7 147.7 186 148.3 187.3 146.8 186.1 146.1"/><polygon class="cls-1" points="182.1 151.1 183.4 151.5 184.7 149.9 183.3 149.4 182.1 151.1"/><polygon class="cls-1" points="180.9 152.8 179.8 154.4 181.3 154.6 182.3 153.1 180.9 152.8"/><polygon class="cls-1" points="178.8 156.1 177.9 157.8 179.5 157.8 180.3 156.2 178.8 156.1"/><polygon class="cls-1" points="178.7 159.3 177.1 159.4 176.5 161 178 160.9 178.7 159.3"/><polygon class="cls-1" points="177.5 162.4 175.9 162.6 175.4 164.1 177 163.8 177.5 162.4"/><polygon class="cls-1" points="175 165.6 174.8 167.1 176.3 166.7 176.6 165.3 175 165.6"/><polygon class="cls-1" points="176.1 168 174.6 168.5 174.5 169.9 176 169.3 176.1 168"/><polygon class="cls-1" points="176.1 171.7 176 170.6 174.6 171.1 174.7 172.4 176.1 171.7"/><polygon class="cls-1" points="176.5 174 176.3 172.9 174.9 173.6 175.2 174.7 176.5 174"/><path class="cls-1" d="M194.9,232.5h-.8l-2.9-.4h.1l-.7-.4h-.2l-.8-.3h-.2l.4-.3-.6-.5-.6.4h-.2l.3-.2-.6-.5.4-.3-.5-.6-.9.7.4.4-.3.2H187l.4-.3h-.2l-.5-.4.4-.3-.3-.3.7-.5-.5-.7-1,.7.2.3-.8.6.5.5-.3.3h-.3l.4-.4h-.2l-.6-.5.5-.3-.4-.4.2-.2.5.7h.1l-.5-.6.5-.3-.2-.2,1.1-.7-.3-.8-1.1.6.3.8-.4-.6-1.2.8.3.3-1,.8.6.5-.3.3h-.4l.5-.4h-.2l-.8-.5.6-.4-.6-.5.4-.2.5.8.2-.2-.6-.7.5-.3-.2-.2,1.2-.8-.4-.9-1.3.7.5.9-.6-.6-1.3.8.3.4-1.2.8.9.7-.5.3h-.4l.6-.4-.4-.2h.1l-.9-.6.6-.4-.7-.5.4-.3.7.9.2-.2-.8-.8.6-.4-.3-.2,1.5-.9-.6-1.1-1.5.8.6,1.1-.7-.8-1.6,1,.5.5-1.4.9,1.1.8-.5.3h-.5l.6-.5-.4-.2h.1l-1.2-.7.7-.5-.9-.6.5-.3.9,1,.3-.2-1.1-.9.7-.4-.3-.3,1.7-1-.8-1.3-1.8,1,.8,1.2-.8-.9-1.9,1.1.5.6-1.6,1,1.4.9-.8.6-.4-.2.8-.6-.6-.2h.1l-1.5-.8.8-.6-1.1-.7.6-.3,1.2,1.1.3-.2-1.3-1.1.8-.4-.4-.4,2-1.1-1.1-1.5-2.1,1.1,1.1,1.4-1.1-1-2.3,1.2.8.7-2,1.2,1.8,1-.9.7-2.4-.9-.8.6,3.7,1.5.4-.4,1.9.8.6-.4,1.5.6h.1l-.8.7,3.7,1.1.2-.2,1.5.5.2-.3,1.1.3h.1l1.1.3-.5.4,3.8.7h.1l.9.2v-.2h3l-.3.3,3.7.4h1.8l.4-.5h0Z" transform="translate(-7.4 -50.1)"/><polygon class="cls-1" points="205 179.2 205.7 178.8 205 179.2 205 179.2"/><polygon class="cls-1" points="176.5 154.8 176.1 155.6 176.6 154.8 176.5 154.8"/><polygon class="cls-1" points="177.4 153 177.6 153 178.7 151.2 178.5 151.2 177.4 153"/><polygon class="cls-1" points="181.2 147.7 180.9 147.6 179.6 149.4 179.9 149.5 181.2 147.7"/><polygon class="cls-1" points="184 144.2 183.7 144 182.2 145.8 182.6 146 184 144.2"/><polygon class="cls-1" points="187.2 140.8 186.8 140.5 185.2 142.3 185.6 142.5 187.2 140.8"/><path class="cls-1" d="M198.2,187.7l-.4-.5-1.8,1.7.4.4Z" transform="translate(-7.4 -50.1)"/><polygon class="cls-1" points="194.5 134.6 194.1 134 192.2 135.6 192.6 136.1 194.5 134.6"/><polygon class="cls-1" points="198.2 131.1 196.1 132.5 196.5 133.2 198.5 131.9 198.2 131.1"/><polygon class="cls-1" points="202.3 128.5 200.2 129.8 200.5 130.7 202.5 129.5 202.3 128.5"/><polygon class="cls-1" points="206.6 127.5 206.6 126.3 204.4 127.4 204.6 128.4 206.6 127.5"/><polygon class="cls-1" points="210.8 124.5 208.7 125.4 208.7 126.6 210.7 125.8 210.8 124.5"/><polygon class="cls-1" points="215 123.1 212.9 123.8 212.7 125.1 214.7 124.6 215 123.1"/><polygon class="cls-1" points="216.6 124.1 218.5 123.7 219.1 122.2 217.1 122.6 216.6 124.1"/><polygon class="cls-1" points="220.4 123.5 222.2 123.4 222.9 121.8 221 121.9 220.4 123.5"/><polygon class="cls-1" points="223.9 123.3 225.6 123.4 226.5 121.7 224.7 121.7 223.9 123.3"/><polygon class="cls-1" points="227.1 123.6 228.6 123.8 229.7 122.2 228.1 121.9 227.1 123.6"/><polygon class="cls-1" points="230 124.2 231.4 124.7 232.6 123 231.2 122.6 230 124.2"/><polygon class="cls-1" points="232.6 125.2 233.7 125.9 235.1 124.3 233.9 123.6 232.6 125.2"/><polygon class="cls-1" points="234.8 126.6 235.7 127.4 237.2 125.9 236.2 125 234.8 126.6"/><polygon class="cls-1" points="237.3 129.3 238.9 127.8 238.1 126.8 236.5 128.3 237.3 129.3"/><polygon class="cls-1" points="240.1 130 239.6 128.9 237.9 130.3 238.5 131.4 240.1 130"/><polygon class="cls-1" points="238.9 132.5 239.3 133.7 241 132.5 240.6 131.2 238.9 132.5"/><polygon class="cls-1" points="241.4 135.1 241.2 133.8 239.5 134.9 239.7 136.2 241.4 135.1"/><polygon class="cls-1" points="241.4 136.5 239.7 137.5 239.7 138.8 241.4 137.9 241.4 136.5"/><polygon class="cls-1" points="241.2 139.3 239.6 140.2 239.3 141.6 241 140.8 241.2 139.3"/><polygon class="cls-1" points="240.7 142.3 239 143 238.7 144.4 240.3 143.8 240.7 142.3"/><polygon class="cls-1" points="239.8 145.3 238.2 145.9 237.7 147.3 239.2 146.8 239.8 145.3"/><polygon class="cls-1" points="237.1 148.7 236.4 150.2 237.9 149.9 238.6 148.4 237.1 148.7"/><polygon class="cls-1" points="237.1 151.4 235.6 151.6 234.8 153.1 236.2 152.9 237.1 151.4"/><polygon class="cls-1" points="234 154.5 233 155.9 234.3 155.9 235.3 154.4 234 154.5"/><polygon class="cls-1" points="233.2 157.4 232.1 157.3 231 158.7 232.1 158.8 233.2 157.4"/><polygon class="cls-1" points="231 160.3 229.9 160.1 228.8 161.4 229.8 161.7 231 160.3"/><polygon class="cls-1" points="227.2 164.4 228.5 163.1 227.6 162.7 226.4 164 227.2 164.4"/><polygon class="cls-1" points="225.9 165.7 225.1 165.3 223.8 166.5 224.5 167 225.9 165.7"/><polygon class="cls-1" points="223.1 168.2 222.5 167.7 221.1 168.9 221.7 169.5 223.1 168.2"/><polygon class="cls-1" points="219.7 170 218.3 171.1 218.8 171.7 220.3 170.6 219.7 170"/><polygon class="cls-1" points="216.9 172.2 215.4 173.2 215.7 173.9 217.3 172.8 216.9 172.2"/><polygon class="cls-1" points="214.2 174.9 213.9 174.2 212.4 175.1 212.6 175.8 214.2 174.9"/><polygon class="cls-1" points="211.1 176.7 210.9 175.9 209.4 176.8 209.5 177.6 211.1 176.7"/><polygon class="cls-1" points="174.9 176.2 174.9 176.2 174.6 175.7 174.9 176.2"/><polygon class="cls-1" points="231.1 162.7 230.4 163.4 231.1 162.7 231.1 162.7"/><polygon class="cls-1" points="233.8 159.9 233.7 159.8 232.4 161.3 232.5 161.3 233.8 159.9"/><polygon class="cls-1" points="236.3 156.9 236 156.9 234.9 158.4 235.1 158.4 236.3 156.9"/><polygon class="cls-1" points="238.2 153.9 237.1 155.4 237.4 155.4 238.5 153.8 238.2 153.9"/><polygon class="cls-1" points="240.6 150.7 240.1 150.8 239.2 152.3 239.6 152.3 240.6 150.7"/><path class="cls-1" d="M249.7,197.6h-.6l-.8,1.6h.6Z" transform="translate(-7.4 -50.1)"/><polygon class="cls-1" points="243 144.6 242.4 146.1 243.1 145.9 243.8 144.3 243 144.6"/><polygon class="cls-1" points="244.9 141.1 244 141.5 243.5 143 244.4 142.7 244.9 141.1"/><polygon class="cls-1" points="245.7 137.9 244.6 138.4 244.3 139.9 245.3 139.5 245.7 137.9"/><polygon class="cls-1" points="246.1 134.8 244.9 135.5 244.8 136.9 245.9 136.4 246.1 134.8"/><polygon class="cls-1" points="246 131.9 244.7 132.7 244.9 134.1 246.1 133.3 246 131.9"/><polygon class="cls-1" points="245.9 130.4 245.6 129 244.2 130 244.5 131.3 245.9 130.4"/><polygon class="cls-1" points="245.2 127.7 244.7 126.4 243.2 127.6 243.8 128.8 245.2 127.7"/><polygon class="cls-1" points="244.1 125.2 243.3 124 241.9 125.4 242.6 126.4 244.1 125.2"/><polygon class="cls-1" points="241.5 121.9 240 123.4 241 124.4 242.5 123 241.5 121.9"/><polygon class="cls-1" points="237.8 121.9 239 122.6 240.4 121 239.2 120.2 237.8 121.9"/><polygon class="cls-1" points="235.1 120.6 236.5 121.2 237.9 119.5 236.5 118.8 235.1 120.6"/><polygon class="cls-1" points="232 119.8 233.6 120.2 234.9 118.3 233.3 117.9 232 119.8"/><polygon class="cls-1" points="230.4 119.5 231.5 117.6 229.7 117.4 228.6 119.4 230.4 119.5"/><polygon class="cls-1" points="226.8 119.4 227.8 117.3 225.7 117.4 224.8 119.5 226.8 119.4"/><polygon class="cls-1" points="220.8 120 222.9 119.7 223.7 117.6 221.5 117.9 220.8 120"/><polygon class="cls-1" points="217 118.9 216.6 121 218.7 120.4 219.3 118.3 217 118.9"/><polygon class="cls-1" points="214.7 119.6 212.4 120.4 212.2 122.4 214.4 121.6 214.7 119.6"/><polygon class="cls-1" points="210 123.3 210 121.3 207.7 122.3 207.8 124.3 210 123.3"/><polygon class="cls-1" points="205.6 125.4 205.3 123.5 203 124.8 203.4 126.6 205.6 125.4"/><polygon class="cls-1" points="201.2 127.9 200.6 126.1 198.3 127.6 199 129.2 201.2 127.9"/><polygon class="cls-1" points="196.9 130.7 196.1 129.2 193.9 130.8 194.8 132.2 196.9 130.7"/><polygon class="cls-1" points="192.8 133.8 191.7 132.5 189.7 134.3 190.9 135.5 192.8 133.8"/><polygon class="cls-1" points="187.7 136.1 185.8 138 187.2 139 189 137.2 187.7 136.1"/><polygon class="cls-1" points="184 139.9 182.3 141.8 183.9 142.6 185.5 140.7 184 139.9"/><polygon class="cls-1" points="179.2 145.8 181 146.3 182.4 144.4 180.7 143.8 179.2 145.8"/><polygon class="cls-1" points="177.9 147.8 176.6 149.7 178.5 150 179.7 148.1 177.9 147.8"/><polygon class="cls-1" points="177.4 151.9 175.5 151.7 174.5 153.7 176.5 153.7 177.4 151.9"/><polygon class="cls-1" points="175.6 155.5 173.7 155.6 172.9 157.5 174.9 157.3 175.6 155.5"/><polygon class="cls-1" points="172.3 159.3 171.9 161.2 173.8 160.8 174.3 159.1 172.3 159.3"/><polygon class="cls-1" points="173.1 164.1 173.4 162.5 171.5 162.9 171.3 164.6 173.1 164.1"/><polygon class="cls-1" points="173 165.7 171.1 166.3 171.1 167.8 172.9 167.2 173 165.7"/><polygon class="cls-1" points="173.2 170.1 173 168.7 171.2 169.3 171.5 170.8 173.2 170.1"/><polygon class="cls-1" points="173.8 172.6 173.5 171.4 171.8 172.2 172.2 173.4 173.8 172.6"/><polygon class="cls-1" points="207.8 178.8 208.7 178.5 207.8 178.8 207.8 178.8"/><polygon class="cls-1" points="172.7 150 172.7 150 172.2 151.1 172.7 150"/><polygon class="cls-1" points="175.1 145.9 174.8 145.8 173.7 147.9 173.8 148 175.1 145.9"/><polygon class="cls-1" points="176.5 143.8 178 141.7 177.6 141.5 176.1 143.7 176.5 143.8"/><polygon class="cls-1" points="179.1 139.4 179.6 139.6 181.3 137.5 180.8 137.3 179.1 139.4"/><polygon class="cls-1" points="185.1 133.5 184.6 133.1 182.7 135.2 183.2 135.5 185.1 133.5"/><path class="cls-1" d="M196.7,179.8l-.5-.6-2.2,2,.6.5Z" transform="translate(-7.4 -50.1)"/><polygon class="cls-1" points="193.8 126.2 193.3 125.4 191 127.2 191.5 127.9 193.8 126.2"/><polygon class="cls-1" points="198.1 122 195.7 123.7 196.1 124.6 198.5 123 198.1 122"/><polygon class="cls-1" points="203.2 119 200.6 120.5 201 121.6 203.4 120.2 203.2 119"/><polygon class="cls-1" points="208.3 116.5 205.7 117.7 205.9 119 208.4 117.9 208.3 116.5"/><polygon class="cls-1" points="213.4 114.5 210.9 115.4 210.8 116.9 213.3 116.1 213.4 114.5"/><polygon class="cls-1" points="218.5 113 216 113.7 215.7 115.3 218.1 114.7 218.5 113"/><polygon class="cls-1" points="223.4 112.1 221 112.5 220.5 114.3 222.7 113.9 223.4 112.1"/><polygon class="cls-1" points="228 111.7 225.7 111.8 225 113.7 227.1 113.7 228 111.7"/><polygon class="cls-1" points="229.2 113.7 231.1 113.9 232.2 111.9 230.1 111.7 229.2 113.7"/><polygon class="cls-1" points="233 114.2 234.8 114.6 236.1 112.6 234.2 112.2 233 114.2"/><polygon class="cls-1" points="236.5 115.1 238 115.8 239.5 113.8 237.9 113.1 236.5 115.1"/><polygon class="cls-1" points="239.5 116.5 240.8 117.4 242.5 115.5 241.1 114.6 239.5 116.5"/><polygon class="cls-1" points="242 118.3 243.1 119.3 244.9 117.5 243.7 116.5 242 118.3"/><polygon class="cls-1" points="244.9 121.6 246.8 120 245.9 118.7 244.1 120.4 244.9 121.6"/><polygon class="cls-1" points="248.3 122.7 247.6 121.3 245.7 122.9 246.3 124.2 248.3 122.7"/><polygon class="cls-1" points="249.2 125.6 248.8 124.1 246.8 125.6 247.2 127 249.2 125.6"/><polygon class="cls-1" points="249.6 128.8 249.5 127.2 247.5 128.5 247.6 130 249.6 128.8"/><polygon class="cls-1" points="249.7 130.4 247.7 131.6 247.6 133.1 249.6 132.1 249.7 130.4"/><polygon class="cls-1" points="249.4 133.8 247.5 134.8 247.2 136.4 249.1 135.5 249.4 133.8"/><polygon class="cls-1" points="246.8 138 246.4 139.7 248.3 139 248.7 137.3 246.8 138"/><polygon class="cls-1" points="247.7 140.8 245.8 141.4 245.2 143 247 142.5 247.7 140.8"/><polygon class="cls-1" points="244.5 144.7 243.7 146.3 245.4 146 246.2 144.3 244.5 144.7"/><polygon class="cls-1" points="244.5 147.8 242.9 148 241.9 149.6 243.5 149.5 244.5 147.8"/><polygon class="cls-1" points="240.9 151.3 239.9 152.9 241.3 152.9 242.4 151.2 240.9 151.3"/><polygon class="cls-1" points="240.1 154.6 238.7 154.5 237.5 156 238.8 156.2 240.1 154.6"/><polygon class="cls-1" points="235 159.1 236.1 159.4 237.5 157.8 236.3 157.6 235 159.1"/><polygon class="cls-1" points="234.7 160.9 233.6 160.6 232.2 162 233.2 162.4 234.7 160.9"/><polygon class="cls-1" points="231.7 163.9 230.8 163.4 229.3 164.8 230.2 165.3 231.7 163.9"/><polygon class="cls-1" points="228.6 166.7 227.8 166.1 226.3 167.4 226.9 168.1 228.6 166.7"/><polygon class="cls-1" points="224.7 168.7 223.1 169.9 223.6 170.6 225.3 169.4 224.7 168.7"/><polygon class="cls-1" points="221.4 171.1 219.7 172.2 220.1 173 221.9 171.8 221.4 171.1"/><polygon class="cls-1" points="218.4 174.1 218.1 173.3 216.4 174.3 216.6 175.1 218.4 174.1"/><polygon class="cls-1" points="214.8 176.1 214.6 175.2 212.9 176.2 213 177 214.8 176.1"/><polygon class="cls-1" points="172 175.2 172 175.2 171.6 174.6 172 175.2"/><polygon class="cls-1" points="237.6 160.5 236.9 161.3 237.7 160.6 237.6 160.5"/><polygon class="cls-1" points="240.6 157.3 239.1 159 239.2 159 240.7 157.4 240.6 157.3"/><polygon class="cls-1" points="243.5 154.1 243.3 154 241.9 155.7 242.2 155.7 243.5 154.1"/><polygon class="cls-1" points="245.7 150.6 244.5 152.3 244.9 152.4 246.1 150.6 245.7 150.6"/><polygon class="cls-1" points="248.5 147.1 247.9 147.1 246.9 148.9 247.3 148.9 248.5 147.1"/><path class="cls-1" d="M257.9,193.5h-.7l-.9,1.8h.6A16.2,16.2,0,0,0,257.9,193.5Z" transform="translate(-7.4 -50.1)"/><polygon class="cls-1" points="252.2 139.7 251.3 140 250.6 141.8 251.4 141.6 252.2 139.7"/><polygon class="cls-1" points="253.6 136 252.5 136.4 251.9 138.2 252.9 137.9 253.6 136"/><polygon class="cls-1" points="254.5 132.3 253.3 132.9 252.9 134.6 254.1 134.2 254.5 132.3"/><polygon class="cls-1" points="255 128.7 253.6 129.4 253.5 131.1 254.8 130.5 255 128.7"/><polygon class="cls-1" points="255 125.1 253.5 126 253.6 127.7 255.1 126.9 255 125.1"/><polygon class="cls-1" points="254.9 123.4 254.6 121.7 253 122.8 253.3 124.4 254.9 123.4"/><polygon class="cls-1" points="251.9 119.9 252.5 121.3 254.1 120.1 253.6 118.5 251.9 119.9"/><polygon class="cls-1" points="252.9 117 252 115.6 250.3 117.1 251.2 118.5 252.9 117"/><polygon class="cls-1" points="249.9 113 248.2 114.7 249.3 115.9 251.1 114.2 249.9 113"/><polygon class="cls-1" points="245.6 112.6 247 113.6 248.7 111.8 247.3 110.7 245.6 112.6"/><polygon class="cls-1" points="242.5 111 244.1 111.8 245.7 109.7 244.1 108.9 242.5 111"/><polygon class="cls-1" points="240.7 110.3 242.3 108.1 240.3 107.5 238.8 109.8 240.7 110.3"/><polygon class="cls-1" points="236.9 109.4 238.2 107 236.1 106.7 234.8 109.1 236.9 109.4"/><polygon class="cls-1" points="232.6 109 233.8 106.5 231.3 106.5 230.3 109 232.6 109"/><polygon class="cls-1" points="225.4 109.4 227.9 109.1 228.8 106.6 226.3 106.8 225.4 109.4"/><polygon class="cls-1" points="220.4 110.4 222.9 109.8 223.6 107.2 220.9 107.8 220.4 110.4"/><polygon class="cls-1" points="218.1 108.5 215.2 109.4 215.1 111.9 217.7 111.1 218.1 108.5"/><polygon class="cls-1" points="212.4 112.9 212.4 110.4 209.5 111.6 209.7 114 212.4 112.9"/><polygon class="cls-1" points="207 115.3 206.7 112.9 203.8 114.4 204.4 116.6 207 115.3"/><polygon class="cls-1" points="201 116 198.2 117.7 199.1 119.7 201.7 118.1 201 116"/><polygon class="cls-1" points="196.6 121.4 195.5 119.5 192.8 121.4 194.1 123.2 196.6 121.4"/><polygon class="cls-1" points="191.7 125.1 190.3 123.4 187.8 125.5 189.3 127.1 191.7 125.1"/><polygon class="cls-1" points="185.4 127.7 183.2 129.9 185 131.2 187.1 129.1 185.4 127.7"/><polygon class="cls-1" points="181 132.2 179 134.5 181.1 135.5 183 133.3 181 132.2"/><polygon class="cls-1" points="179.3 137.7 177.2 136.9 175.5 139.3 177.6 139.9 179.3 137.7"/><polygon class="cls-1" points="176.1 142.2 173.9 141.6 172.5 144 174.8 144.4 176.1 142.2"/><polygon class="cls-1" points="171.2 146.3 170.1 148.7 172.5 148.8 173.6 146.6 171.2 146.3"/><polygon class="cls-1" points="171.6 150.9 169.2 151 168.4 153.2 170.8 153.1 171.6 150.9"/><polygon class="cls-1" points="170.1 155.2 167.8 155.4 167.3 157.5 169.6 157.2 170.1 155.2"/><polygon class="cls-1" points="166.8 161.6 169.1 161.1 169.3 159.2 167 159.6 166.8 161.6"/><polygon class="cls-1" points="169 164.7 169 163 166.7 163.6 166.8 165.4 169 164.7"/><polygon class="cls-1" points="169.5 168.1 169.2 166.4 167.1 167.2 167.5 168.9 169.5 168.1"/><polygon class="cls-1" points="170.5 171.1 169.9 169.6 168 170.5 168.6 172 170.5 171.1"/><polygon class="cls-1" points="211.1 178.4 212.1 178 211.1 178.4 211.1 178.4"/><polygon class="cls-1" points="167.5 144.2 167 145.5 167.6 144.2 167.5 144.2"/><polygon class="cls-1" points="170.3 139.2 169.9 139.1 168.6 141.7 168.8 141.7 170.3 139.2"/><polygon class="cls-1" points="171.9 136.7 173.6 134.2 173.1 134 171.4 136.6 171.9 136.7"/><polygon class="cls-1" points="177.5 129.2 176.9 128.9 174.9 131.4 175.5 131.7 177.5 129.2"/><polygon class="cls-1" points="179.7 126.8 182.1 124.4 181.4 123.9 179.1 126.3 179.7 126.8"/><path class="cls-1" d="M191.9,172.2l2.6-2.3-.7-.7-2.5,2.3Z" transform="translate(-7.4 -50.1)"/><polygon class="cls-1" points="189.8 117.7 192.5 115.7 191.9 114.6 189.1 116.8 189.8 117.7"/><polygon class="cls-1" points="195.4 113.7 198.3 111.9 197.8 110.6 194.8 112.6 195.4 113.7"/><polygon class="cls-1" points="203.9 107.2 200.8 108.8 201.2 110.2 204.2 108.7 203.9 107.2"/><polygon class="cls-1" points="210.3 106.1 210.2 104.3 207 105.6 207.2 107.3 210.3 106.1"/><polygon class="cls-1" points="216.4 102 213.3 103.1 213.3 105 216.3 104 216.4 102"/><polygon class="cls-1" points="219.2 103.3 222.1 102.7 222.5 100.5 219.5 101.2 219.2 103.3"/><polygon class="cls-1" points="228.4 99.6 225.5 100 225 102.2 227.7 101.9 228.4 99.6"/><polygon class="cls-1" points="234 99.5 231.3 99.5 230.4 101.8 233 101.9 234 99.5"/><polygon class="cls-1" points="237.8 102.4 239.1 100 236.6 99.6 235.4 102 237.8 102.4"/><polygon class="cls-1" points="240 102.9 242.1 103.5 243.7 101.1 241.5 100.5 240 102.9"/><polygon class="cls-1" points="244.1 104.3 246 105.2 247.7 102.8 245.8 101.9 244.1 104.3"/><polygon class="cls-1" points="247.7 106.2 249.2 107.3 251.2 105 249.5 103.9 247.7 106.2"/><polygon class="cls-1" points="250.6 108.5 251.9 109.8 254 107.7 252.7 106.3 250.6 108.5"/><polygon class="cls-1" points="255.2 109.2 253 111.3 254 112.7 256.2 110.8 255.2 109.2"/><polygon class="cls-1" points="257.8 114.2 257.1 112.5 254.8 114.3 255.5 116 257.8 114.2"/><polygon class="cls-1" points="258.8 117.8 258.4 116 256 117.6 256.4 119.4 258.8 117.8"/><polygon class="cls-1" points="259.2 121.7 259.1 119.7 256.7 121.2 256.9 123 259.2 121.7"/><polygon class="cls-1" points="259.2 123.6 256.9 124.8 256.8 126.7 259.1 125.6 259.2 123.6"/><polygon class="cls-1" points="258.8 127.6 256.6 128.6 256.3 130.6 258.5 129.7 258.8 127.6"/><polygon class="cls-1" points="255.8 132.5 255.3 134.4 257.4 133.7 258 131.7 255.8 132.5"/><polygon class="cls-1" points="256.7 135.8 254.6 136.4 253.9 138.3 255.9 137.8 256.7 135.8"/><polygon class="cls-1" points="253.1 140.2 252.1 142.1 254 141.8 255 139.8 253.1 140.2"/><polygon class="cls-1" points="253 143.8 251.1 144 250 145.9 251.8 145.8 253 143.8"/><polygon class="cls-1" points="248.9 147.7 247.7 149.5 249.3 149.6 250.6 147.7 248.9 147.7"/><polygon class="cls-1" points="247.9 151.5 246.3 151.3 245 153.1 246.4 153.3 247.9 151.5"/><polygon class="cls-1" points="242.1 156.5 243.4 156.9 244.9 155.1 243.6 154.8 242.1 156.5"/><polygon class="cls-1" points="240.1 160.3 241.7 158.6 240.5 158.2 238.9 159.8 240.1 160.3"/><polygon class="cls-1" points="237.3 161.4 235.6 162.9 236.6 163.5 238.3 161.9 237.3 161.4"/><polygon class="cls-1" points="233.9 164.4 232.1 165.8 232.9 166.6 234.7 165.1 233.9 164.4"/><polygon class="cls-1" points="230.3 167.2 228.5 168.6 229.1 169.4 231 168 230.3 167.2"/><polygon class="cls-1" points="226.6 169.9 224.7 171.1 225.2 172 227.1 170.7 226.6 169.9"/><polygon class="cls-1" points="223.2 173.2 222.8 172.3 220.8 173.4 221.1 174.4 223.2 173.2"/><polygon class="cls-1" points="219.1 175.5 218.9 174.5 216.9 175.5 217 176.5 219.1 175.5"/><polygon class="cls-1" points="168.4 174 168.4 174 167.9 173.3 168.4 174"/><polygon class="cls-1" points="245 158.3 244.2 159.1 245.1 158.3 245 158.3"/><polygon class="cls-1" points="248.6 154.7 248.4 154.7 246.7 156.5 246.8 156.5 248.6 154.7"/><polygon class="cls-1" points="251.8 151 251.5 151 250 152.8 250.2 152.9 251.8 151"/><polygon class="cls-1" points="254.8 147.1 254.3 147.1 252.9 149.1 253.3 149.1 254.8 147.1"/><polygon class="cls-1" points="257.5 143.1 256.8 143.2 255.6 145.1 256.2 145.1 257.5 143.1"/><path class="cls-1" d="M267.3,189l-.8.2c-.4.6-.7,1.3-1.1,2h.7Z" transform="translate(-7.4 -50.1)"/><polygon class="cls-1" points="261.9 134.7 260.9 135 260 137 260.9 136.8 261.9 134.7"/><polygon class="cls-1" points="263.5 130.4 262.3 130.8 261.6 132.9 262.8 132.6 263.5 130.4"/><polygon class="cls-1" points="264.7 126.1 263.3 126.7 262.8 128.7 264.2 128.2 264.7 126.1"/><polygon class="cls-1" points="265.3 121.8 263.8 122.5 263.6 124.6 265.1 123.9 265.3 121.8"/><polygon class="cls-1" points="265.5 117.5 263.8 118.5 263.8 120.5 265.5 119.6 265.5 117.5"/><polygon class="cls-1" points="265.3 115.4 265.1 113.4 263.2 114.7 263.5 116.6 265.3 115.4"/><polygon class="cls-1" points="262 111 262.7 112.8 264.6 111.4 264 109.5 262 111"/><polygon class="cls-1" points="260.3 107.5 261.2 109.2 263.2 107.6 262.3 105.8 260.3 107.5"/><polygon class="cls-1" points="260 102.4 257.9 104.5 259.2 106 261.2 104 260 102.4"/><polygon class="cls-1" points="254.9 101.7 256.5 103 258.5 100.8 256.9 99.4 254.9 101.7"/><polygon class="cls-1" points="251.3 99.5 253.2 100.6 255.1 98.1 253.2 96.9 251.3 99.5"/><polygon class="cls-1" points="249.2 98.6 251.1 95.9 248.8 95 247 97.8 249.2 98.6"/><polygon class="cls-1" points="244.6 97.1 246.3 94.2 243.7 93.7 242.1 96.7 244.6 97.1"/><polygon class="cls-1" points="239.5 96.3 240.9 93.3 238.1 93 236.8 96.2 239.5 96.3"/><polygon class="cls-1" points="231 96.4 233.9 96.2 235 93 231.9 93.1 231 96.4"/><polygon class="cls-1" points="224.8 97.3 227.9 96.7 228.7 93.5 225.4 94 224.8 97.3"/><polygon class="cls-1" points="218.4 98.9 221.6 98 222 94.8 218.5 95.7 218.4 98.9"/><polygon class="cls-1" points="215 96.8 211.5 98.1 211.8 101.2 215.1 100 215 96.8"/><polygon class="cls-1" points="205.3 104.2 208.6 102.6 208 99.6 204.5 101.3 205.3 104.2"/><polygon class="cls-1" points="202.1 105.9 201.1 103.1 197.7 105.1 198.9 107.8 202.1 105.9"/><polygon class="cls-1" points="191.1 109.6 192.8 112 195.8 109.8 194.4 107.3 191.1 109.6"/><polygon class="cls-1" points="185 114.5 187 116.6 189.8 114.2 188 112 185 114.5"/><polygon class="cls-1" points="179.4 119.8 181.8 121.5 184.3 119 182.2 117.1 179.4 119.8"/><polygon class="cls-1" points="174.5 125.4 177.1 126.7 179.4 124.1 176.9 122.6 174.5 125.4"/><polygon class="cls-1" points="172.3 128.2 170.3 131.1 173.1 132 175 129.3 172.3 128.2"/><polygon class="cls-1" points="171.3 134.7 168.5 133.9 166.9 136.8 169.8 137.4 171.3 134.7"/><polygon class="cls-1" points="168.4 140 165.4 139.7 164.2 142.5 167.2 142.7 168.4 140"/><polygon class="cls-1" points="166.2 145.3 163.2 145.2 162.4 147.9 165.4 147.8 166.2 145.3"/><polygon class="cls-1" points="161.3 153.1 164.2 152.8 164.7 150.3 161.8 150.6 161.3 153.1"/><polygon class="cls-1" points="163.9 155.1 161.1 155.6 161 158 163.8 157.4 163.9 155.1"/><polygon class="cls-1" points="164 161.7 163.8 159.6 161.1 160.3 161.4 162.5 164 161.7"/><polygon class="cls-1" points="164.9 165.7 164.4 163.8 161.8 164.6 162.4 166.6 164.9 165.7"/><polygon class="cls-1" points="166.2 169.2 165.5 167.5 163.1 168.5 164 170.2 166.2 169.2"/><polygon class="cls-1" points="214.9 178 216 177.6 214.9 178 214.9 178"/><polygon class="cls-1" points="160.1 138.4 160.7 136.9 160.6 136.9 160.1 138.4"/><polygon class="cls-1" points="161.9 133.8 162.1 133.9 163.7 130.8 163.3 130.7 161.9 133.8"/><polygon class="cls-1" points="167.6 124.7 167 124.4 165 127.6 165.6 127.7 167.6 124.7"/><polygon class="cls-1" points="169.1 121.3 169.8 121.6 172.3 118.6 171.5 118.1 169.1 121.3"/><polygon class="cls-1" points="174.1 115.1 174.9 115.6 177.7 112.8 176.8 112 174.1 115.1"/><path class="cls-1" d="M188.1,160l3.2-2.7-1-1-3.1,2.9Z" transform="translate(-7.4 -50.1)"/><polygon class="cls-1" points="187.1 104.7 190.5 102.2 189.6 100.9 186.2 103.5 187.1 104.7"/><polygon class="cls-1" points="194 99.9 197.6 97.8 196.9 96.1 193.2 98.4 194 99.9"/><polygon class="cls-1" points="200.6 94 201.2 95.8 204.9 94 204.4 92 200.6 94"/><polygon class="cls-1" points="212.1 88.7 208.3 90.3 208.6 92.5 212.3 91.1 212.1 88.7"/><polygon class="cls-1" points="216 89.9 219.7 88.9 219.8 86.3 216 87.4 216 89.9"/><polygon class="cls-1" points="223.3 88.1 226.9 87.5 227.4 84.8 223.6 85.4 223.3 88.1"/><polygon class="cls-1" points="234.6 84.1 231 84.3 230.3 87.2 233.7 87 234.6 84.1"/><polygon class="cls-1" points="241.3 84.3 238 84.1 236.9 87.1 240 87.3 241.3 84.3"/><polygon class="cls-1" points="243 87.7 245.8 88.3 247.4 85.3 244.4 84.7 243 87.7"/><polygon class="cls-1" points="248.5 89.1 251 90.1 252.9 87.1 250.2 86.1 248.5 89.1"/><polygon class="cls-1" points="253.3 91.2 255.5 92.4 257.6 89.6 255.3 88.3 253.3 91.2"/><polygon class="cls-1" points="257.5 93.8 259.2 95.3 261.6 92.6 259.7 91 257.5 93.8"/><polygon class="cls-1" points="262.3 98.7 264.8 96.2 263.3 94.4 260.9 96.9 262.3 98.7"/><polygon class="cls-1" points="266.1 98.1 263.5 100.5 264.6 102.4 267.3 100.1 266.1 98.1"/><polygon class="cls-1" points="265.5 104.4 266.3 106.4 269 104.4 268.2 102.2 265.5 104.4"/><polygon class="cls-1" points="266.9 108.5 267.3 110.6 270 108.9 269.6 106.6 266.9 108.5"/><polygon class="cls-1" points="270.3 111.2 267.6 112.8 267.7 115 270.4 113.5 270.3 111.2"/><polygon class="cls-1" points="270.3 115.9 267.6 117.3 267.5 119.5 270.1 118.3 270.3 115.9"/><polygon class="cls-1" points="266.7 124 269.3 123.1 269.8 120.7 267.2 121.8 266.7 124"/><polygon class="cls-1" points="268.7 125.5 266.2 126.3 265.5 128.6 267.9 127.8 268.7 125.5"/><polygon class="cls-1" points="267.1 130.2 264.7 130.8 263.8 133.1 266.1 132.6 267.1 130.2"/><polygon class="cls-1" points="265.1 134.9 262.8 135.3 261.7 137.5 263.9 137.2 265.1 134.9"/><polygon class="cls-1" points="262.6 139.4 260.6 139.6 259.3 141.8 261.3 141.7 262.6 139.4"/><polygon class="cls-1" points="257.9 143.9 256.5 145.9 258.3 146 259.8 143.9 257.9 143.9"/><polygon class="cls-1" points="256.7 148.2 255 148 253.4 149.9 255.1 150.2 256.7 148.2"/><polygon class="cls-1" points="253.3 152.3 251.8 151.9 250.1 153.8 251.5 154.2 253.3 152.3"/><polygon class="cls-1" points="248.3 155.6 246.5 157.4 247.8 158 249.7 156.2 248.3 155.6"/><polygon class="cls-1" points="244.6 159.2 242.7 160.9 243.8 161.6 245.8 159.9 244.6 159.2"/><polygon class="cls-1" points="241.7 163.3 240.8 162.6 238.8 164.2 239.6 165 241.7 163.3"/><polygon class="cls-1" points="237.5 166.6 236.7 165.7 234.6 167.2 235.3 168.1 237.5 166.6"/><polygon class="cls-1" points="233.1 169.6 232.5 168.6 230.4 170 230.9 171 233.1 169.6"/><polygon class="cls-1" points="228.6 172.3 228.2 171.3 226 172.5 226.3 173.6 228.6 172.3"/><polygon class="cls-1" points="224 174.8 223.7 173.7 221.5 174.8 221.6 175.9 224 174.8"/><polygon class="cls-1" points="163.9 172.6 163.9 172.5 163.2 171.8 163.9 172.6"/><polygon class="cls-1" points="253.5 155.8 253.4 155.8 252.4 156.8 253.5 155.8"/><polygon class="cls-1" points="257.4 151.9 257.2 151.8 255.4 153.8 255.5 153.9 257.4 151.9"/><polygon class="cls-1" points="261.1 147.7 260.8 147.7 259 149.8 259.3 149.8 261.1 147.7"/><polygon class="cls-1" points="264.6 143.4 264.1 143.3 262.5 145.5 262.9 145.6 264.6 143.4"/><polygon class="cls-1" points="267.7 138.8 267 138.8 265.6 141.1 266.2 141.1 267.7 138.8"/><path class="cls-1" d="M277.9,184.1l-.9.2-1.2,2.3h.8Z" transform="translate(-7.4 -50.1)"/><polygon class="cls-1" points="272.9 129.2 271.8 129.4 270.7 131.8 271.8 131.6 272.9 129.2"/><polygon class="cls-1" points="272.7 127 274 126.7 274.9 124.2 273.5 124.6 272.7 127"/><polygon class="cls-1" points="276.4 119.1 274.8 119.7 274.2 122.2 275.7 121.7 276.4 119.1"/><polygon class="cls-1" points="275.5 114.8 275.2 117.3 276.9 116.5 277.3 114 275.5 114.8"/><polygon class="cls-1" points="277.7 108.9 275.6 110 275.7 112.4 277.6 111.4 277.7 108.9"/><polygon class="cls-1" points="277.6 106.4 277.3 103.9 275.2 105.3 275.5 107.6 277.6 106.4"/><polygon class="cls-1" points="274 100.7 274.7 103 276.9 101.4 276.3 99 274 100.7"/><polygon class="cls-1" points="272.1 96.4 273.1 98.5 275.5 96.6 274.5 94.3 272.1 96.4"/><polygon class="cls-1" points="273.3 92.1 271.9 89.9 269.5 92.3 270.9 94.3 273.3 92.1"/><polygon class="cls-1" points="266 88.7 267.9 90.5 270.3 87.9 268.5 86 266 88.7"/><polygon class="cls-1" points="261.8 85.6 264 87.1 266.4 84.2 264.2 82.5 261.8 85.6"/><polygon class="cls-1" points="259.4 84.3 261.7 81 259 79.7 256.9 83.1 259.4 84.3"/><polygon class="cls-1" points="251.1 81.3 254.1 82.1 256.1 78.6 253 77.6 251.1 81.3"/><polygon class="cls-1" points="248 80.7 249.7 76.9 246.2 76.3 244.7 80.3 248 80.7"/><polygon class="cls-1" points="237.6 80.1 241.2 80.1 242.6 76 238.8 76 237.6 80.1"/><polygon class="cls-1" points="230.1 80.8 233.9 80.3 234.9 76.2 230.8 76.6 230.1 80.8"/><polygon class="cls-1" points="222.2 82.4 226.2 81.4 226.6 77.3 222.4 78.2 222.2 82.4"/><polygon class="cls-1" points="213.7 80.8 214.2 84.9 218.2 83.5 218.1 79.4 213.7 80.8"/><polygon class="cls-1" points="205 84.4 206.1 88.3 210.1 86.5 209.4 82.5 205 84.4"/><polygon class="cls-1" points="196.5 89 198.2 92.5 202.1 90.3 200.8 86.6 196.5 89"/><polygon class="cls-1" points="188.4 94.3 190.6 97.5 194.3 94.9 192.4 91.5 188.4 94.3"/><polygon class="cls-1" points="180.9 100.3 183.6 103 187 100.2 184.6 97.2 180.9 100.3"/><polygon class="cls-1" points="174.1 106.8 177.2 109 180.3 106 177.4 103.5 174.1 106.8"/><polygon class="cls-1" points="168.2 113.6 171.6 115.4 174.3 112.2 171 110.1 168.2 113.6"/><polygon class="cls-1" points="169.1 118.6 165.5 117.1 163.2 120.6 166.8 121.9 169.1 118.6"/><polygon class="cls-1" points="161.1 124.1 159.2 127.7 163 128.5 164.8 125.2 161.1 124.1"/><polygon class="cls-1" points="157.6 131.2 156.3 134.6 160.1 135 161.4 131.8 157.6 131.2"/><polygon class="cls-1" points="159 138.2 155.2 138 154.4 141.3 158.2 141.3 159 138.2"/><polygon class="cls-1" points="157.5 144.3 153.8 144.5 153.5 147.6 157.1 147.3 157.5 144.3"/><polygon class="cls-1" points="153.5 153.5 157 152.9 156.9 150.1 153.4 150.6 153.5 153.5"/><polygon class="cls-1" points="157.6 158.1 157.2 155.5 153.8 156.3 154.3 158.9 157.6 158.1"/><polygon class="cls-1" points="158.9 162.8 158.2 160.5 155 161.5 155.9 163.8 158.9 162.8"/><polygon class="cls-1" points="159.8 164.9 157 166.1 158.2 168.1 160.9 167 159.8 164.9"/><polygon class="cls-1" points="219.2 177.6 220.4 177.1 219.2 177.6 219.2 177.6"/><polygon class="cls-1" points="151.3 127.5 151.2 127.5 150.6 129.4 151.3 127.5"/><polygon class="cls-1" points="154.2 119.8 152.5 123.7 152.9 123.7 154.7 119.9 154.2 119.8"/><polygon class="cls-1" points="156.8 116.1 159.2 112.3 158.4 111.9 156.1 115.9 156.8 116.1"/><polygon class="cls-1" points="164.8 104.7 163.7 104.1 160.9 108 161.9 108.5 164.8 104.7"/><polygon class="cls-1" points="166.9 100.3 168 101.1 171.4 97.5 170.2 96.5 166.9 100.3"/><path class="cls-1" d="M182.5,144.1l3.9-3.3-1.3-1.4-3.8,3.5Z" transform="translate(-7.4 -50.1)"/><polygon class="cls-1" points="183 87.6 187.3 84.6 186.1 82.7 181.8 85.9 183 87.6"/><polygon class="cls-1" points="191.6 81.8 196.1 79.3 195.1 76.9 190.5 79.7 191.6 81.8"/><polygon class="cls-1" points="199.8 74.4 200.6 77 205.3 74.9 204.6 72.2 199.8 74.4"/><polygon class="cls-1" points="209.4 70.2 209.9 73.1 214.5 71.6 214.3 68.4 209.4 70.2"/><polygon class="cls-1" points="219.2 70.3 223.7 69.3 223.9 65.9 219.1 67 219.2 70.3"/><polygon class="cls-1" points="228.2 68.6 232.6 68.2 233.2 64.5 228.6 65.1 228.2 68.6"/><polygon class="cls-1" points="242.1 64.3 237.7 64.3 236.9 68 241 68.1 242.1 64.3"/><polygon class="cls-1" points="248.7 69 250.3 65.2 246.3 64.6 244.9 68.4 248.7 69"/><polygon class="cls-1" points="257.6 67.1 254.1 66 252.3 69.8 255.7 70.9 257.6 67.1"/><polygon class="cls-1" points="258.8 72.1 261.8 73.6 264.1 69.9 261 68.4 258.8 72.1"/><polygon class="cls-1" points="264.5 75.2 267 76.9 269.6 73.5 267 71.6 264.5 75.2"/><polygon class="cls-1" points="269.3 78.9 271.3 80.9 274.2 77.7 272 75.5 269.3 78.9"/><polygon class="cls-1" points="274.8 85.4 277.8 82.5 276.1 80 273.2 83.1 274.8 85.4"/><polygon class="cls-1" points="279.2 85 276.1 87.8 277.3 90.2 280.4 87.6 279.2 85"/><polygon class="cls-1" points="282.2 93 281.4 90.3 278.3 92.8 279 95.3 282.2 93"/><polygon class="cls-1" points="279.6 98 280 100.6 283.2 98.6 282.8 95.8 279.6 98"/><polygon class="cls-1" points="283.3 104.3 283.3 101.5 280.2 103.3 280.2 106 283.3 104.3"/><polygon class="cls-1" points="283.2 107.2 280.1 108.7 279.8 111.4 282.8 110.1 283.2 107.2"/><polygon class="cls-1" points="282.3 112.9 279.4 114.1 278.8 116.8 281.7 115.7 282.3 112.9"/><polygon class="cls-1" points="280.9 118.6 278.1 119.5 277.2 122.1 280 121.4 280.9 118.6"/><polygon class="cls-1" points="278.9 124.1 276.2 124.7 275.1 127.3 277.7 126.8 278.9 124.1"/><polygon class="cls-1" points="276.5 129.5 273.9 129.9 272.7 132.4 275.1 132.2 276.5 129.5"/><polygon class="cls-1" points="273.6 134.7 271.3 134.9 269.8 137.3 272 137.3 273.6 134.7"/><polygon class="cls-1" points="270.3 139.8 268.2 139.7 266.5 142 268.6 142.2 270.3 139.8"/><polygon class="cls-1" points="266.7 144.6 264.8 144.3 263 146.5 264.8 146.9 266.7 144.6"/><polygon class="cls-1" points="262.8 149.2 261.1 148.7 259.2 150.9 260.8 151.4 262.8 149.2"/><polygon class="cls-1" points="257.2 152.9 255.1 154.9 256.5 155.6 258.7 153.5 257.2 152.9"/><polygon class="cls-1" points="254.2 157.6 253 156.9 250.8 158.8 252 159.6 254.2 157.6"/><polygon class="cls-1" points="249.6 161.5 248.6 160.6 246.3 162.4 247.3 163.3 249.6 161.5"/><polygon class="cls-1" points="244.8 165.1 244 164.1 241.6 165.7 242.4 166.7 244.8 165.1"/><polygon class="cls-1" points="239.2 167.3 236.8 168.8 237.3 169.9 239.9 168.3 239.2 167.3"/><polygon class="cls-1" points="234.3 170.2 231.8 171.6 232.2 172.7 234.8 171.4 234.3 170.2"/><polygon class="cls-1" points="229.6 174.1 229.3 172.8 226.7 174.1 226.9 175.3 229.6 174.1"/><polygon class="cls-1" points="158.2 170.9 158.3 170.8 157.4 169.9 158.2 170.9"/><polygon class="cls-1" points="262.8 153.2 261.7 154.3 262.9 153.3 262.8 153.2"/><polygon class="cls-1" points="267.4 148.9 267.2 148.8 265 151.1 265.1 151.1 267.4 148.9"/><polygon class="cls-1" points="271.6 144.2 271.2 144.2 269.2 146.5 269.5 146.6 271.6 144.2"/><polygon class="cls-1" points="275.6 139.3 275 139.3 273.2 141.8 273.7 141.8 275.6 139.3"/><polygon class="cls-1" points="278.5 134.2 276.8 136.8 277.5 136.8 279.3 134.2 278.5 134.2"/><path class="cls-1" d="M290,178.9h-1.1c-.5.9-.9,1.8-1.4,2.6h.9C288.9,180.7,289.4,179.8,290,178.9Z" transform="translate(-7.4 -50.1)"/><polygon class="cls-1" points="285.5 123.2 284.2 123.4 282.9 126.2 284.1 126 285.5 123.2"/><polygon class="cls-1" points="287.9 117.4 286.4 117.8 285.3 120.6 286.8 120.3 287.9 117.4"/><polygon class="cls-1" points="289.8 111.4 288 112 287.3 114.9 288.9 114.4 289.8 111.4"/><polygon class="cls-1" points="291.1 105.3 289.1 106.2 288.6 109.1 290.6 108.3 291.1 105.3"/><polygon class="cls-1" points="291.8 99.1 289.5 100.4 289.4 103.3 291.6 102.2 291.8 99.1"/><polygon class="cls-1" points="291.7 92.9 289.2 94.5 289.4 97.4 291.9 96 291.7 92.9"/><polygon class="cls-1" points="291.4 89.8 290.8 86.8 288.1 88.8 288.8 91.6 291.4 89.8"/><polygon class="cls-1" points="286.2 83.2 287.3 86 290 83.8 289 80.8 286.2 83.2"/><polygon class="cls-1" points="283.3 78 284.9 80.6 287.8 77.9 286.3 75.1 283.3 78"/><polygon class="cls-1" points="279.5 73.1 281.6 75.5 284.5 72.4 282.5 69.7 279.5 73.1"/><polygon class="cls-1" points="274.8 68.8 277.3 70.9 280.2 67.3 277.6 64.9 274.8 68.8"/><polygon class="cls-1" points="269 65.1 272 66.8 274.8 62.8 271.6 60.8 269 65.1"/><polygon class="cls-1" points="262.2 62.2 265.7 63.5 268.2 59 264.6 57.5 262.2 62.2"/><polygon class="cls-1" points="260.6 56.1 256.4 55.1 254.4 60.2 258.4 61.1 260.6 56.1"/><polygon class="cls-1" points="245.9 59.3 250.2 59.6 252 54.3 247.4 53.9 245.9 59.3"/><polygon class="cls-1" points="236.6 59.4 241.3 59.2 242.5 53.7 237.5 53.9 236.6 59.4"/><polygon class="cls-1" points="226.8 60.8 231.8 60 232.3 54.4 227 55.2 226.8 60.8"/><polygon class="cls-1" points="216.1 57.9 216.7 63.5 221.8 62 221.6 56.4 216.1 57.9"/><polygon class="cls-1" points="206.6 67.3 211.6 65.2 210.6 59.8 205.1 62 206.6 67.3"/><polygon class="cls-1" points="194.4 67.3 196.6 72.3 201.6 69.7 199.7 64.5 194.4 67.3"/><polygon class="cls-1" points="187.2 78.3 191.8 75.2 189.2 70.4 184.2 73.8 187.2 78.3"/><polygon class="cls-1" points="178.4 85.1 182.7 81.6 179.3 77.4 174.7 81.2 178.4 85.1"/><polygon class="cls-1" points="166.3 89.3 170.5 92.6 174.3 88.8 170.4 85.2 166.3 89.3"/><polygon class="cls-1" points="159.1 97.9 163.6 100.5 166.9 96.5 162.5 93.6 159.1 97.9"/><polygon class="cls-1" points="153.1 106.8 158 108.7 160.6 104.6 155.9 102.3 153.1 106.8"/><polygon class="cls-1" points="153.6 117 155.6 112.8 150.7 111.3 148.6 115.7 153.6 117"/><polygon class="cls-1" points="145.4 124.4 150.4 125.1 151.8 121 146.8 120.1 145.4 124.4"/><polygon class="cls-1" points="143.6 132.8 148.4 132.9 149.3 129 144.3 128.6 143.6 132.8"/><polygon class="cls-1" points="143 140.6 147.6 140.3 147.9 136.7 143.1 136.8 143 140.6"/><polygon class="cls-1" points="147.9 147.2 147.6 143.8 143.1 144.3 143.5 147.9 147.9 147.2"/><polygon class="cls-1" points="149.1 153.5 148.4 150.4 144.2 151.3 145.1 154.5 149.1 153.5"/><polygon class="cls-1" points="151.3 159.2 150.1 156.4 146.2 157.5 147.6 160.4 151.3 159.2"/><polygon class="cls-1" points="152.6 161.8 149.1 163.1 150.8 165.6 154.1 164.2 152.6 161.8"/><polygon class="cls-1" points="224.1 177.2 225.5 176.7 224.1 177.2 224.1 177.2"/><polygon class="cls-1" points="138.1 115.1 138 115 137.4 117.4 138.1 115.1"/><polygon class="cls-1" points="139.8 110.2 141.9 105.4 141.2 105.1 139.4 110.1 139.8 110.2"/><polygon class="cls-1" points="143.3 100.1 144.3 100.5 147.1 95.6 146 95 143.3 100.1"/><polygon class="cls-1" points="149 90 150.3 90.7 153.9 85.9 152.4 85 149 90"/><polygon class="cls-1" points="162.1 76.7 160.4 75.2 156.2 80 157.8 81.2 162.1 76.7"/><path class="cls-1" d="M172.4,120.6l1.7,1.8c1.6-1.5,3.3-2.8,4.9-4.2l-1.8-2.1Z" transform="translate(-7.4 -50.1)"/><polygon class="cls-1" points="180.4 57.8 175 61.8 176.7 64.2 182.1 60.5 180.4 57.8"/><polygon class="cls-1" points="192 50.7 186.1 54.1 187.7 57.1 193.4 54.1 192 50.7"/><polygon class="cls-1" points="199.2 51.3 205.1 48.9 204.2 45.1 198 47.7 199.2 51.3"/><polygon class="cls-1" points="210.3 42.8 211 47 217 45.3 216.5 41 210.3 42.8"/><polygon class="cls-1" points="222.8 44.1 228.6 43.2 228.8 38.5 222.7 39.5 222.8 44.1"/><polygon class="cls-1" points="234.3 42.8 239.8 42.6 240.6 37.7 234.8 37.9 234.3 42.8"/><polygon class="cls-1" points="245.1 42.9 250.2 43.4 251.6 38.4 246.2 37.9 245.1 42.9"/><polygon class="cls-1" points="261.6 40.5 256.7 39.3 255 44.3 259.6 45.5 261.6 40.5"/><polygon class="cls-1" points="268 48.7 270.5 43.9 266.2 42.1 263.9 47 268 48.7"/><polygon class="cls-1" points="271.7 50.7 275.2 52.9 278.1 48.3 274.5 46 271.7 50.7"/><polygon class="cls-1" points="278.4 55.3 281.2 57.9 284.5 53.6 281.5 50.9 278.4 55.3"/><polygon class="cls-1" points="283.8 60.6 286.1 63.5 289.6 59.6 287.2 56.5 283.8 60.6"/><polygon class="cls-1" points="289.8 69.5 293.5 66.1 291.7 62.8 288.1 66.5 289.8 69.5"/><polygon class="cls-1" points="296.2 72.8 295 69.4 291.3 72.7 292.5 75.9 296.2 72.8"/><polygon class="cls-1" points="297.9 79.8 297.2 76.3 293.4 79.2 294.1 82.5 297.9 79.8"/><polygon class="cls-1" points="298.6 86.9 298.4 83.3 294.6 85.8 294.9 89.1 298.6 86.9"/><polygon class="cls-1" points="298.6 90.4 295 92.4 294.9 95.7 298.4 93.9 298.6 90.4"/><polygon class="cls-1" points="298.1 97.4 294.6 99 294.1 102.3 297.5 100.9 298.1 97.4"/><polygon class="cls-1" points="293.4 105.5 292.6 108.7 295.9 107.7 296.8 104.3 293.4 105.5"/><polygon class="cls-1" points="294.9 111 291.7 111.9 290.6 115 293.7 114.3 294.9 111"/><polygon class="cls-1" points="289.4 118.1 288 121.1 290.9 120.6 292.4 117.5 289.4 118.1"/><polygon class="cls-1" points="289.4 123.7 286.6 124 285 126.9 287.7 126.7 289.4 123.7"/><polygon class="cls-1" points="285.9 129.7 283.4 129.8 281.6 132.5 284 132.6 285.9 129.7"/><polygon class="cls-1" points="279.8 135.2 277.8 137.9 280 138.2 282.1 135.4 279.8 135.2"/><polygon class="cls-1" points="273.7 143 275.7 143.4 277.9 140.8 275.8 140.4 273.7 143"/><polygon class="cls-1" points="273.4 146 271.6 145.4 269.3 147.8 271.1 148.4 273.4 146"/><polygon class="cls-1" points="264.7 152.3 266.2 153.1 268.7 150.8 267 150 264.7 152.3"/><polygon class="cls-1" points="259.8 156.5 261.1 157.5 263.7 155.3 262.3 154.4 259.8 156.5"/><polygon class="cls-1" points="258.5 159.6 257.3 158.5 254.7 160.5 255.8 161.6 258.5 159.6"/><polygon class="cls-1" points="252.1 162.3 249.4 164.1 250.3 165.3 253.1 163.5 252.1 162.3"/><polygon class="cls-1" points="246.7 165.9 244 167.5 244.6 168.8 247.5 167.1 246.7 165.9"/><polygon class="cls-1" points="241.2 169.1 238.4 170.6 238.8 171.9 241.7 170.4 241.2 169.1"/><polygon class="cls-1" points="235.9 173.3 235.5 172 232.6 173.3 232.9 174.7 235.9 173.3"/><polygon class="cls-1" points="223.8 176.8 221.6 177.5 224.2 176.4 224.1 175.2 221.5 176.3 221.5 177.5 220.8 177.8 220.7 178.3 218.4 179 218.3 179.2 220.7 178.4 220.7 178.8 219 179.2 218.9 179.8 216.7 180.3 216.5 180.7 218.8 180.2 218.7 180.8 222.2 179.9 222.4 178.6 223.7 178.2 223.8 176.8"/><path class="cls-1" d="M225.1,229l1.1-.4v-1.3l-1.9.7,2.3-1v-1.1l-2.3,1V228l-.6.2v.5l-2.1.7h0l2.1-.7v.4l-1.5.3v.6l-2,.4h-.7l-.2.6h-.4v-.6l2-.5.2-1,1-.4v-1.1l-1.6.6,2-.9v-1l-2,.9v1l-.6.2v.4l-1.8.6v.2l1.8-.7v.3l-1.3.4v.5l-1.7.4h0l-.6.2-.2.5h-.3V231l1.7-.5v-1l.9-.3v-1l-1.4.6,1.7-.8v-.9l-1.8.8v.9l-.5.2v.4l-1.5.5h-.1l1.6-.5v.2l-1.1.3-.2.5-1.4.4h-.6v.5h-.3v-.3l1.4-.4.2-.9.8-.3v-.9l-1.3.5,1.5-.7v-.8l-1.5.7v.8l-.4.2v.4l-1.3.4v.2l1.3-.6v.3l-1,.3v.4l-1.2.3h-.5l-.2.4H210v-.3l1.2-.4.2-.7.7-.3V229l-1.1.5,1.3-.7v-.7l-1.3.7v.7h-.4v.3l-1.2.5h0l1.2-.5v.2l-.8.3v.3l-1.1.4h-.4l-.2.4h-.2v-.2l1.1-.4.2-.7.5-.2v-.7l-1.3.5v.3l-1.1.4h0l1-.4v.2l-.7.2v.3l-1,.3h-.3v.3H206v-.2l.9-.3.2-.8-1.3.5v.3l-.8.2h-.3l-.2.3h-.1l.2-.5-1.3.4v.2h0l-1.3.2h.1l-1.3.2h-4.8l-.4.6h4.8l.2-.4h3.6v.2l3.8-.2.3-.6h1.1v.2l1.4-.2v.2l1.2-.2v.3l3.7-.4.3-.9h.1l-.2.3,1.9-.3v.2l1.8-.3-.2.4,3.7-.6.2-.9,2.2-.6Z" transform="translate(-7.4 -50.1)"/><polygon class="cls-1" points="161.5 176.3 162.1 175.9 160.2 174.9 161.2 174.2 159.8 173.4 160.4 173 162 174.4 162.4 174.2 160.7 172.9 161.6 172.3 161.1 171.9 163.5 170.6 162.1 168.9 159.6 170.1 161 171.8 159.5 170.5 156.9 172 157.8 172.8 155.5 174.2 158.7 175.9 159.7 175.2 161.5 176.3"/><polygon class="cls-1" points="151.1 168.8 151.2 168.8 149.9 167.7 151.1 168.8"/><polygon class="cls-1" points="273.3 150.6 273.3 150.6 272 151.7 273.3 150.6"/><polygon class="cls-1" points="278.5 145.8 278.2 145.7 275.8 148.2 275.9 148.2 278.5 145.8"/><polygon class="cls-1" points="283.3 140.6 282.9 140.5 280.6 143.1 280.9 143.2 283.3 140.6"/><polygon class="cls-1" points="287.3 135 285.1 137.8 285.7 137.9 287.9 135.1 287.3 135"/><polygon class="cls-1" points="292.2 129.3 291.3 129.3 289.3 132.2 290.1 132.2 292.2 129.3"/><path class="cls-1" d="M303.5,173.2h-1.1l-1.8,3h1C302.3,175.3,302.9,174.2,303.5,173.2Z" transform="translate(-7.4 -50.1)"/><polygon class="cls-1" points="299.6 116.7 298.2 116.9 296.6 120.1 297.9 119.9 299.6 116.7"/><polygon class="cls-1" points="302.7 109.9 300.9 110.4 299.6 113.7 301.2 113.3 302.7 109.9"/><polygon class="cls-1" points="305.2 102.9 303.1 103.6 302.1 107 304 106.4 305.2 102.9"/><polygon class="cls-1" points="307.1 95.6 304.7 96.6 304 100.1 306.2 99.3 307.1 95.6"/><polygon class="cls-1" points="308.2 88.1 305.6 89.5 305.2 93 307.7 91.9 308.2 88.1"/><polygon class="cls-1" points="308.6 80.4 305.6 82.2 305.7 85.8 308.5 84.3 308.6 80.4"/><polygon class="cls-1" points="308.4 76.6 308 72.7 304.8 75 305.3 78.6 308.4 76.6"/><polygon class="cls-1" points="303 67.8 304.1 71.3 307.4 68.8 306.4 64.9 303 67.8"/><polygon class="cls-1" points="300.1 60.8 301.7 64.2 305.2 61.1 303.7 57.3 300.1 60.8"/><polygon class="cls-1" points="296.1 54.1 298.2 57.4 301.9 53.6 299.7 50 296.1 54.1"/><polygon class="cls-1" points="290.7 47.9 293.6 50.9 297.2 46.5 294.3 43.1 290.7 47.9"/><polygon class="cls-1" points="287.6 45 291.1 39.9 287.5 36.9 284.1 42.3 287.6 45"/><polygon class="cls-1" points="276.1 37.7 280.3 39.9 283.5 34.1 279.2 31.6 276.1 37.7"/><polygon class="cls-1" points="274.5 29.3 269.4 27.4 266.8 34.2 271.6 35.8 274.5 29.3"/><polygon class="cls-1" points="256.3 31.9 261.7 32.9 264 25.8 258.3 24.5 256.3 31.9"/><polygon class="cls-1" points="244.8 31 250.7 31.3 252.3 23.7 246 23.3 244.8 31"/><polygon class="cls-1" points="232.5 31.8 238.7 31.2 239.4 23.4 232.6 23.9 232.5 31.8"/><polygon class="cls-1" points="219.6 34.3 226.1 32.8 225.7 24.9 218.7 26.4 219.6 34.3"/><polygon class="cls-1" points="213.1 36.2 211.6 28.4 204.5 30.8 206.6 38.5 213.1 36.2"/><polygon class="cls-1" points="200.1 41.2 197.5 33.8 190.6 37.1 193.8 44.4 200.1 41.2"/><polygon class="cls-1" points="187.6 47.9 183.9 40.9 177.4 45.1 181.6 51.7 187.6 47.9"/><polygon class="cls-1" points="165.2 54.5 170.4 60.3 175.9 55.9 171.1 49.6 165.2 54.5"/><polygon class="cls-1" points="154.5 65 160.4 69.9 165.2 65 159.7 59.6 154.5 65"/><polygon class="cls-1" points="151.9 80.1 156 74.9 149.8 70.5 145.6 76.2 151.9 80.1"/><polygon class="cls-1" points="148.3 85.4 141.8 82 138.4 87.8 145.1 90.7 148.3 85.4"/><polygon class="cls-1" points="135.6 93.6 133.2 99.4 140.1 101.4 142.4 96.1 135.6 93.6"/><polygon class="cls-1" points="138.2 106.6 131.3 105.1 129.9 110.7 136.7 111.8 138.2 106.6"/><polygon class="cls-1" points="128.4 121.4 134.9 121.8 135.6 116.9 129 116.1 128.4 121.4"/><polygon class="cls-1" points="134.6 126.6 128.3 126.5 128.6 131.4 134.6 131.2 134.6 126.6"/><polygon class="cls-1" points="135 135.6 129.2 136.1 130.1 140.6 135.7 139.9 135 135.6"/><polygon class="cls-1" points="136.7 143.9 131.3 144.8 132.8 148.8 138 147.7 136.7 143.9"/><polygon class="cls-1" points="139.5 151.3 134.6 152.6 136.6 156.1 141.2 154.7 139.5 151.3"/><polygon class="cls-1" points="145.3 160.8 143.2 157.9 138.8 159.4 141.3 162.4 145.3 160.8"/><polygon class="cls-1" points="150.1 166.1 147.6 163.6 143.9 165.2 146.6 167.8 150.1 166.1"/><polygon class="cls-1" points="154 171.4 156.1 172.9 156.5 172.7 154.3 171.2 155.4 170.6 154.7 170 157.6 168.6 155.8 166.5 152.7 167.9 154.6 169.9 152.7 168.4 149.5 170.1 152.4 172.2 154 171.4"/><polygon class="cls-1" points="229.7 176.8 231.3 176.2 229.7 176.7 229.7 176.8"/><polygon class="cls-1" points="118.4 100.9 119 97.8 118.8 97.8 118.4 100.9"/><polygon class="cls-1" points="120.1 91.3 120.7 91.4 122.9 85 121.9 84.6 120.1 91.3"/><polygon class="cls-1" points="127.3 71.1 124.3 77.8 125.7 78.4 129 71.9 127.3 71.1"/><polygon class="cls-1" points="137.3 59 135.1 57.5 130.9 64.3 132.9 65.4 137.3 59"/><polygon class="cls-1" points="147.6 46.8 145.2 44.5 139.9 50.9 142.2 52.8 147.6 46.8"/><path class="cls-1" d="M167.3,85.6l-2.6-3.2c-2.1,2-4.3,3.9-6.3,6l2.6,2.7C163,89.2,165.2,87.4,167.3,85.6Z" transform="translate(-7.4 -50.1)"/><polygon class="cls-1" points="173.7 25.8 171.2 21.6 164.1 26.8 166.6 30.5 173.7 25.8"/><polygon class="cls-1" points="188.6 17.9 186.5 12.8 178.7 16.9 181.1 21.6 188.6 17.9"/><polygon class="cls-1" points="204.1 12 202.7 6.1 194.5 9.2 196.3 14.6 204.1 12"/><polygon class="cls-1" points="219.6 8.3 219 1.9 210.8 3.7 211.9 9.9 219.6 8.3"/><polygon class="cls-1" points="234.7 6.9 235 0 227.1 0.6 227.3 7.4 234.7 6.9"/><polygon class="cls-1" points="250.1 0.5 242.7 0 242 7 249 7.6 250.1 0.5"/><polygon class="cls-1" points="264 3.2 257.2 1.6 255.7 8.7 262.1 10.2 264 3.2"/><polygon class="cls-1" points="276.3 7.6 270.4 5.2 268.1 12.1 273.7 14.4 276.3 7.6"/><polygon class="cls-1" points="287 13.5 281.9 10.4 278.9 17 283.7 20 287 13.5"/><polygon class="cls-1" points="295.9 20.6 291.7 16.9 288.1 23.2 292.2 26.6 295.9 20.6"/><polygon class="cls-1" points="299 34.1 303.1 28.7 299.7 24.6 295.8 30.3 299 34.1"/><polygon class="cls-1" points="304.3 42.1 308.6 37.3 306.1 32.9 301.8 38 304.3 42.1"/><polygon class="cls-1" points="308.1 50.4 312.6 46.2 310.8 41.7 306.4 46.2 308.1 50.4"/><polygon class="cls-1" points="310.7 59 315.2 55.3 314 50.8 309.6 54.7 310.7 59"/><polygon class="cls-1" points="312.1 67.5 316.5 64.4 316 59.9 311.5 63.2 312.1 67.5"/><polygon class="cls-1" points="312.4 71.7 312.4 75.9 316.7 73.4 316.7 68.9 312.4 71.7"/><polygon class="cls-1" points="311.9 84.1 316 82.1 316.5 77.8 312.3 80 311.9 84.1"/><polygon class="cls-1" points="310.5 92.1 314.4 90.6 315.3 86.4 311.3 88.2 310.5 92.1"/><polygon class="cls-1" points="308.5 99.9 312.1 98.8 313.4 94.7 309.6 96 308.5 99.9"/><polygon class="cls-1" points="305.8 107.3 309.2 106.5 310.7 102.7 307.2 103.6 305.8 107.3"/><polygon class="cls-1" points="302.6 114.3 305.8 113.9 307.6 110.3 304.2 110.9 302.6 114.3"/><polygon class="cls-1" points="298.9 121.1 301.8 121 303.8 117.5 300.8 117.8 298.9 121.1"/><polygon class="cls-1" points="294.8 127.5 297.5 127.6 299.7 124.3 296.9 124.3 294.8 127.5"/><polygon class="cls-1" points="290.4 133.5 292.8 133.9 295.2 130.8 292.7 130.5 290.4 133.5"/><polygon class="cls-1" points="285.7 139.2 287.8 139.8 290.4 136.9 288.1 136.4 285.7 139.2"/><polygon class="cls-1" points="280.7 144.5 282.6 145.3 285.2 142.6 283.2 141.9 280.7 144.5"/><polygon class="cls-1" points="275.4 149.5 277 150.5 279.8 148 278 147.1 275.4 149.5"/><polygon class="cls-1" points="269.9 154.2 271.3 155.3 274.2 152.9 272.6 151.9 269.9 154.2"/><polygon class="cls-1" points="264.1 158.5 265.3 159.8 268.3 157.6 267 156.4 264.1 158.5"/><polygon class="cls-1" points="258.2 162.5 259.1 163.9 262.2 161.9 261.2 160.6 258.2 162.5"/><polygon class="cls-1" points="252.1 166.2 252.8 167.6 256 165.8 255.2 164.4 252.1 166.2"/><polygon class="cls-1" points="245.8 169.5 246.3 171 249.5 169.4 249 167.9 245.8 169.5"/><polygon class="cls-1" points="239.3 172.5 239.6 174 242.9 172.6 242.6 171.1 239.3 172.5"/><polygon class="cls-1" points="232.7 175.1 232.7 176.7 236.2 175.4 236 173.9 232.7 175.1"/><polygon class="cls-1" points="229.8 175.9 229.7 174.5 226.8 175.7 226.8 177.1 225.9 177.4 225.9 177.9 223.2 178.7 223.2 178.9 225.8 178.1 225.8 178.9 229.3 177.8 229.3 176.3 226.9 177 229.8 175.9"/><polygon class="cls-1" points="152 173.3 155.6 175.2 156.3 174.7 152.7 172.9 152 173.3"/><polygon class="cls-1" points="145.2 168.9 148.6 171.2 149.1 170.9 145.6 168.7 145.2 168.9"/><polygon class="cls-1" points="141.9 166.2 142 166.2 140.3 164.9 141.9 166.2"/><path class="cls-1" d="M14.9,298.3h7a6.2,6.2,0,0,0,2.6-.4,2.7,2.7,0,0,0,1.6-1.4,3.6,3.6,0,0,0,1.5,1.5,8,8,0,0,0,2.3.3H48.5a3.4,3.4,0,0,0,2.8-1,4.7,4.7,0,0,0,.8-3v-8.7c0-.2-.1-.4-.3-.4H48.9c-.2,0-.3.2-.3.4v7.9c0,.6-.1,1.1-.4,1.3a1.6,1.6,0,0,1-1.1.4H29.4a3.6,3.6,0,0,1-1.9-.5,1.7,1.7,0,0,1-.7-1.5v-2.9a5.5,5.5,0,0,0-1.5-4.3,6.4,6.4,0,0,0-4.2-1.3H16.3a.3.3,0,0,0-.3.3v2.5a.3.3,0,0,0,.3.3h3.8a3.6,3.6,0,0,1,2.4.7,2.6,2.6,0,0,1,.8,2.1v2.1c0,.4-.1.8-.1,1.1a1.5,1.5,0,0,1-.4.8.8.8,0,0,1-.7.4l-1.4.2H14.9a.3.3,0,0,0-.3.3V298A.3.3,0,0,0,14.9,298.3Z" transform="translate(-7.4 -50.1)"/><rect class="cls-1" x="42.6" y="250.9" width="3.3" height="3.37" rx="0.3"/><rect class="cls-1" x="38.5" y="250.9" width="3.3" height="3.37" rx="0.3"/><path class="cls-1" d="M103.7,297.2a5.1,5.1,0,0,0,.9-1.8,10.9,10.9,0,0,0,.3-2.8,9.5,9.5,0,0,0-.4-3,5.3,5.3,0,0,0-1.2-2.5,5.6,5.6,0,0,0-2.2-1.8,9.7,9.7,0,0,0-3.6-.6,6.7,6.7,0,0,0-3.3.7,10.2,10.2,0,0,0-2.3,1.8c-.1.2-.1.3.1.5l1.6,1.7c.2.1.3.1.4-.1a9.1,9.1,0,0,1,1.6-1.1,5.3,5.3,0,0,1,1.8-.4,3,3,0,0,1,1.8.4,2.7,2.7,0,0,1,1.2.9,4.7,4.7,0,0,1,.6,1.5,11.1,11.1,0,0,1,.2,1.9,5.3,5.3,0,0,1-.1,1.3,2,2,0,0,1-.4.8,1,1,0,0,1-.8.4l-1.3.2H70.8a3.6,3.6,0,0,1-1.9-.5,1.7,1.7,0,0,1-.7-1.5v-2.9a5.5,5.5,0,0,0-1.5-4.3,6.4,6.4,0,0,0-4.2-1.3H57.7a.3.3,0,0,0-.3.3v2.5a.3.3,0,0,0,.3.3h3.8a3.6,3.6,0,0,1,2.4.7,2.6,2.6,0,0,1,.8,2.1v2.1a3.7,3.7,0,0,1-.1,1.1,1.5,1.5,0,0,1-.3.8,1.2,1.2,0,0,1-.8.4l-1.4.2H56.3a.3.3,0,0,0-.3.3V298a.3.3,0,0,0,.3.3h7a6.2,6.2,0,0,0,2.6-.4,2.9,2.9,0,0,0,1.7-1.4A2.9,2.9,0,0,0,69,298a8,8,0,0,0,2.3.3H100l2.1-.2A4.2,4.2,0,0,0,103.7,297.2Z" transform="translate(-7.4 -50.1)"/><rect class="cls-1" x="88.8" y="250.9" width="3.6" height="3.37" rx="0.3"/><path class="cls-1" d="M118.2,299.4a2,2,0,0,1,.3-1.1l.5-.6.7-.4.6-.6a5.6,5.6,0,0,0,2,1.4,10,10,0,0,0,5.6,0,4.8,4.8,0,0,0,2.2-1.5,2.2,2.2,0,0,0,.9,1l1.1.5,1.1.2h22.9a3.3,3.3,0,0,0,2.8-1,4.1,4.1,0,0,0,.9-3V277.2a.3.3,0,0,0-.3-.3h-2.9a.3.3,0,0,0-.3.3v16.3a2,2,0,0,1-.4,1.3,1.7,1.7,0,0,1-1.2.4H133.4a1.9,1.9,0,0,1-1.3-.6,2.2,2.2,0,0,1-.6-1.8v-.5a1.3,1.3,0,0,0,.1-.6,10.4,10.4,0,0,0-.5-3.3,5.5,5.5,0,0,0-1.4-2.1,4.1,4.1,0,0,0-2-1.2,8.6,8.6,0,0,0-5.2,0,4.5,4.5,0,0,0-2.1,1.2,5.4,5.4,0,0,0-1.3,2.1,10.4,10.4,0,0,0-.5,3.3v.7a2,2,0,0,0,.1.7,1.9,1.9,0,0,1-.4.9l-.8.7-.9.6-.9.7a4.1,4.1,0,0,0-.7,1.1,4.3,4.3,0,0,0-.3,1.7v5.9h3.5Zm4.7-10.6a2.6,2.6,0,0,1,2.2-1c2,0,2.9,1.3,2.9,3.8a4.4,4.4,0,0,1-.7,2.9,2.7,2.7,0,0,1-2.2.9,2.5,2.5,0,0,1-2.2-.9,4.4,4.4,0,0,1-.8-2.9A4.7,4.7,0,0,1,122.9,288.8Z" transform="translate(-7.4 -50.1)"/><path class="cls-1" d="M211.1,295.2h-6.8l-.7-.4-.8-.7a6.3,6.3,0,0,1-.7-1.2,3.8,3.8,0,0,1-.3-1.6,3.3,3.3,0,0,1,.9-2.5,3,3,0,0,1,2.5-1,4.3,4.3,0,0,1,3.3,1.5.2.2,0,0,0,.4.1l1.7-1.8a.2.2,0,0,0,.1-.4,6.7,6.7,0,0,0-2.2-1.8,9.2,9.2,0,0,0-6.8-.1,5.7,5.7,0,0,0-2.1,1.5,5.3,5.3,0,0,0-1.1,2.1,5.7,5.7,0,0,0-.4,2.2,6.1,6.1,0,0,0,.4,2.4,6.2,6.2,0,0,0,1.1,1.7H168.9a1.6,1.6,0,0,1-1.1-.4,2,2,0,0,1-.4-1.3V277.2a.3.3,0,0,0-.3-.3h-2.9a.3.3,0,0,0-.3.3v17.1a4.7,4.7,0,0,0,.8,3,3.5,3.5,0,0,0,2.9,1h43.5c.2,0,.4-.1.4-.3v-2.5C211.5,295.3,211.3,295.2,211.1,295.2Z" transform="translate(-7.4 -50.1)"/><rect class="cls-1" x="221.3" y="256.8" width="3.3" height="3.37" rx="0.3"/><rect class="cls-1" x="225.4" y="256.8" width="3.3" height="3.37" rx="0.3"/><path class="cls-1" d="M233.8,293.2l-.8,2.5c-.1.2,0,.3.2.4l2.8,1,1.9.8a3.5,3.5,0,0,1,1.1.9,1.2,1.2,0,0,1,.4,1,1.3,1.3,0,0,1-.7,1.2,5.1,5.1,0,0,1-2.6.5H230l-1.8-.2-1.6-.7a4.7,4.7,0,0,1-1.1-1.3,4,4,0,0,1-.4-2,6.7,6.7,0,0,1,.4-2.4l1-2c.1-.2.1-.3-.1-.4l-2.5-1.3a.2.2,0,0,0-.4.1,7.4,7.4,0,0,0-.8,1.3l-.6,1.5a12.1,12.1,0,0,0-.5,1.8,10.3,10.3,0,0,0-.1,1.7,6.6,6.6,0,0,0,2,5.2,8.6,8.6,0,0,0,6,1.9h7.2a11.9,11.9,0,0,0,2.9-.4,4.9,4.9,0,0,0,1.9-1,4.5,4.5,0,0,0,1.1-1.3,5.1,5.1,0,0,0,.3-1.7,2.5,2.5,0,0,0-.2-1.2,3.4,3.4,0,0,0-.3-.8h22.4a11.2,11.2,0,0,0,2.7-.3,4.9,4.9,0,0,0,2-1.1,5,5,0,0,0,1.3-2.1,9.1,9.1,0,0,0,.5-3.1,10.4,10.4,0,0,0-.5-3.3,5.4,5.4,0,0,0-1.3-2.1,4.5,4.5,0,0,0-2.1-1.2,7.5,7.5,0,0,0-2.6-.4,6.9,6.9,0,0,0-2.5.4,3.7,3.7,0,0,0-2,1.2,5.7,5.7,0,0,0-1.5,2.1,10.4,10.4,0,0,0-.5,3.3,8.7,8.7,0,0,0,.7,3.5H241.4l-1.8-.2-1.7-.5-1.8-.7-1.9-.8C234,292.9,233.9,293,233.8,293.2Zm28.8-4.4a2.5,2.5,0,0,1,2.2-1c2,0,3,1.3,3,3.8a4.5,4.5,0,0,1-.7,2.8,2.8,2.8,0,0,1-2.3.8,2.8,2.8,0,0,1-2.2-.8,4.4,4.4,0,0,1-.8-2.9A4.1,4.1,0,0,1,262.6,288.8Z" transform="translate(-7.4 -50.1)"/><rect class="cls-1" x="255.6" y="228.7" width="3.7" height="3.37" rx="0.3"/><rect class="cls-1" x="318.3" y="228.7" width="3.7" height="3.37" rx="0.3"/><rect class="cls-1" x="326.7" y="228.7" width="3.3" height="3.37" rx="0.3"/><rect class="cls-1" x="330.8" y="228.7" width="3.3" height="3.37" rx="0.3"/><rect class="cls-1" x="381.1" y="250.9" width="3.7" height="3.37" rx="0.3"/><path class="cls-1" d="M392.3,285.2h-2.9c-.2,0-.3.2-.3.4v7.9a2,2,0,0,1-.4,1.3,1.6,1.6,0,0,1-1.1.4h-2.1a3.3,3.3,0,0,1-1.9-.5,1.8,1.8,0,0,1-.7-1.5v-1a10.1,10.1,0,0,0-.4-3.1,7.2,7.2,0,0,0-1.4-2.4,7,7,0,0,0-2.4-1.5,11.8,11.8,0,0,0-3.5-.5,15,15,0,0,0-3.7.5,25.3,25.3,0,0,0-3.3,1.2v-1a.3.3,0,0,0-.3-.3H365a.3.3,0,0,0-.3.3v6.5a5.7,5.7,0,0,1-.1,1.3,3.1,3.1,0,0,1-.1,1,1.8,1.8,0,0,1-.5.7,1.2,1.2,0,0,1-.9.3h-2.3a1.8,1.8,0,0,1-1.3-.6,2.5,2.5,0,0,1-.6-1.9v-1a10.4,10.4,0,0,0-.5-3.3,4.6,4.6,0,0,0-1.4-2.1,3.7,3.7,0,0,0-2-1.2,7.5,7.5,0,0,0-2.6-.4,10.9,10.9,0,0,0-2.6.3,8.2,8.2,0,0,0-2,1.2,5.5,5.5,0,0,0-1.4,2.1,9.1,9.1,0,0,0-.5,3.1v.4a.9.9,0,0,0,.1.5,3.5,3.5,0,0,1-.7,2.2,1.6,1.6,0,0,1-1.3.7h-1.8a3.3,3.3,0,0,1-1.9-.5,1.8,1.8,0,0,1-.7-1.5v-7.6c0-.2-.1-.4-.3-.4h-3.1c-.1.1-.2.1-.2.3v7.9a3,3,0,0,1-.2,1,1,1,0,0,1-.4.5l-.9.2h-2.6a3.6,3.6,0,0,1-1.9-.5,1.8,1.8,0,0,1-.7-1.5v-7.6c0-.2-.1-.4-.3-.4h-2.9c-.2,0-.3.2-.3.4v6.6a5.7,5.7,0,0,1-.1,1.4,2.2,2.2,0,0,1-.1.9l-.5.5-.8.2H287.5a1.7,1.7,0,0,1-1.2-.4,2,2,0,0,1-.4-1.3V277.2a.3.3,0,0,0-.3-.3h-2.9a.3.3,0,0,0-.3.3v17.1a4.1,4.1,0,0,0,.9,3,3.3,3.3,0,0,0,2.8,1h39.1a7.8,7.8,0,0,0,2.4-.3,3.3,3.3,0,0,0,1.3-1.3,2.2,2.2,0,0,0,1.4,1.3,6.9,6.9,0,0,0,2.2.3h2.9a7.8,7.8,0,0,0,2.4-.3,2.7,2.7,0,0,0,1.3-1.3,2.7,2.7,0,0,0,1.5,1.3,6.6,6.6,0,0,0,2.1.3h2.1l1-.2.9-.5a2.7,2.7,0,0,0,.7-.8,5.5,5.5,0,0,0,2.2,1.4,7.9,7.9,0,0,0,2.8.4,8.8,8.8,0,0,0,2.9-.4,5.1,5.1,0,0,0,2.1-1.5l.9,1,1.1.5,1.2.2h5.1a2.1,2.1,0,0,0,1.1-.4l.8.3h9.2a10.9,10.9,0,0,0,3.4-.4,2.7,2.7,0,0,0,1.9-1.6,3,3,0,0,0,1.5,1.6,6.1,6.1,0,0,0,2.4.4h2.9a3.3,3.3,0,0,0,2.8-1,4.1,4.1,0,0,0,.9-3v-8.7C392.6,285.4,392.5,285.2,392.3,285.2Zm-37.7,9.3a3.1,3.1,0,0,1-4.4,0,4.4,4.4,0,0,1-.8-2.9,4.4,4.4,0,0,1,.8-2.8,2.6,2.6,0,0,1,2.2-1c2,0,3,1.3,3,3.8A4.6,4.6,0,0,1,354.6,294.5Zm24.4-.7a1.4,1.4,0,0,1-.6,1,2.3,2.3,0,0,1-1.3.3h-9a1.7,1.7,0,0,1,.1-.7v-5a20.9,20.9,0,0,1,3-1.1,10.7,10.7,0,0,1,3.5-.6,6.9,6.9,0,0,1,2.2.3l1.4.8a5.4,5.4,0,0,1,.7,1.3,11,11,0,0,1,.2,1.8A7.4,7.4,0,0,1,379,293.8Z" transform="translate(-7.4 -50.1)"/><rect class="cls-1" x="21.2" y="296.2" width="2.3" height="2.52" rx="0.3"/><rect class="cls-1" x="30.9" y="275.4" width="2.3" height="2.52" rx="0.3"/><rect class="cls-1" x="34.9" y="275.4" width="2.3" height="2.52" rx="0.3"/><rect class="cls-1" x="43.9" y="275.4" width="2.3" height="2.52" rx="0.3"/><rect class="cls-1" x="47.9" y="275.4" width="2.3" height="2.52" rx="0.3"/><path class="cls-1" d="M92.6,330.5c-3.7,0-5.5,2.4-5.5,7v1.7a3.2,3.2,0,0,1-.2,1.4,2,2,0,0,1-.4.8,1.8,1.8,0,0,1-.7.5H83.2a3.8,3.8,0,0,1-2.2-.6,1.9,1.9,0,0,1-.8-1.8v-8.2a.3.3,0,0,0-.3-.3H78.7a.3.3,0,0,0-.3.3v9.2a4.6,4.6,0,0,1-.3.9,1.5,1.5,0,0,1-.8.4H75.9a4.1,4.1,0,0,1-2.3-.6,1.7,1.7,0,0,1-.9-1.6v-5.5a.3.3,0,0,0-.3-.3H71.3a.3.3,0,0,0-.3.3v5a5.7,5.7,0,0,1-.1,1.4,1.1,1.1,0,0,1-.3.8,2,2,0,0,1-.8.4H68.4a3.9,3.9,0,0,1-2.3-.6,1.9,1.9,0,0,1-.8-1.7v-5.4c0-.2-.2-.3-.4-.3H63.8a.3.3,0,0,0-.3.3v6.2a1.9,1.9,0,0,1-.2.8,1.2,1.2,0,0,1-.5.5l-.9.2H58.5a3.9,3.9,0,0,1-2.3-.6,2.2,2.2,0,0,1-.8-1.8v-8.2a.3.3,0,0,0-.3-.3H54a.3.3,0,0,0-.3.3v8a3.7,3.7,0,0,1-.1,1.1,2.4,2.4,0,0,1-.2.9,1,1,0,0,1-.5.4l-.9.2H44.2a5.8,5.8,0,0,0,1.2-1,6.9,6.9,0,0,0,1.1-1.3,5.9,5.9,0,0,0,.9-3.4A5.9,5.9,0,0,0,47,334a4.2,4.2,0,0,0-1.1-1.8A4.1,4.1,0,0,0,44,331a6.6,6.6,0,0,0-2.5-.5,6.2,6.2,0,0,0-2.5.5,4.3,4.3,0,0,0-1.9,1.3,4.5,4.5,0,0,0-1.1,1.9,5.4,5.4,0,0,0-.5,2.2,5.7,5.7,0,0,0,.9,3.2,10.4,10.4,0,0,0,2.3,2.4H33.6a3.9,3.9,0,0,1-2.3-.6,2.2,2.2,0,0,1-.8-1.8v-8.2a.3.3,0,0,0-.3-.3H29.1a.3.3,0,0,0-.3.3v8a3.7,3.7,0,0,1-.1,1.1,2.4,2.4,0,0,1-.2.9.7.7,0,0,1-.5.4l-.9.2H24.4a3.2,3.2,0,0,1-2-.6,2.2,2.2,0,0,1-.8-1.8V322.7a.3.3,0,0,0-.3-.3H20.2a.3.3,0,0,0-.3.3v20.5a4.8,4.8,0,0,1-.4,2.2,4.2,4.2,0,0,1-1.1,1.5,4.8,4.8,0,0,1-1.6.8,7.5,7.5,0,0,1-2.1.2,5.5,5.5,0,0,1-1.8-.2,6.7,6.7,0,0,1-1.8-.7,4.2,4.2,0,0,1-1.3-1.6,4.3,4.3,0,0,1-.6-2.4,6.7,6.7,0,0,1,.6-2.8,24.2,24.2,0,0,1,1.2-2.3c.1-.2.1-.3-.1-.4l-1-.6c-.2-.2-.3-.2-.4,0a11.3,11.3,0,0,0-1.4,2.7,8.6,8.6,0,0,0-.7,3.6,7.6,7.6,0,0,0,.5,2.7A6,6,0,0,0,9.3,348a5.4,5.4,0,0,0,2.2,1.3,9.4,9.4,0,0,0,3,.5,10.2,10.2,0,0,0,3.2-.5,5.5,5.5,0,0,0,2.2-1.4,5.7,5.7,0,0,0,1.3-2.1,7.5,7.5,0,0,0,.4-2.6v-.4a3.7,3.7,0,0,0,1.4.7,5.7,5.7,0,0,0,1.8.3h2.5a2.9,2.9,0,0,0,2.8-1.7,2.4,2.4,0,0,0,1.4,1.4,7.5,7.5,0,0,0,2.3.3h5.5a5.7,5.7,0,0,0,2.2-.7,4.4,4.4,0,0,0,1.9.7h8.8a3,3,0,0,0,1.8-.5,4,4,0,0,0,1-1.2,2.2,2.2,0,0,0,1.4,1.4l1.9.3h3.5a3.7,3.7,0,0,0,2-.5,2.2,2.2,0,0,0,1-1.1,3,3,0,0,0,1.3,1.2,4.7,4.7,0,0,0,1.7.4h1.5a3.6,3.6,0,0,0,1.9-.5,2.3,2.3,0,0,0,1.1-1.1,2.8,2.8,0,0,0,1.2,1.2,5.8,5.8,0,0,0,1.8.4h1.4a3.4,3.4,0,0,0,2-.5,2.6,2.6,0,0,0,1.1-1.2,2.2,2.2,0,0,0,1.4,1.3,4.8,4.8,0,0,0,2.2.4h1.9a4.1,4.1,0,0,0,1.6-.3,2.4,2.4,0,0,0,1.3-1.3,4.5,4.5,0,0,0,1.9,1.4,9.3,9.3,0,0,0,2.5.4,5.1,5.1,0,0,0,4.1-1.7c.9-1,1.4-2.8,1.4-5.1a7.8,7.8,0,0,0-1.4-5A5.1,5.1,0,0,0,92.6,330.5ZM43,340.8l-1.5.8-1.6-.8a4.9,4.9,0,0,1-1.3-1.2,4.2,4.2,0,0,1-.9-1.4,5.7,5.7,0,0,1-.3-1.8,4.7,4.7,0,0,1,.3-1.7,3.8,3.8,0,0,1,.9-1.3,3.6,3.6,0,0,1,1.2-.8,4.7,4.7,0,0,1,1.7-.3,4.4,4.4,0,0,1,2.9,1.1,4.1,4.1,0,0,1,1.1,3,5.7,5.7,0,0,1-.3,1.8,4.2,4.2,0,0,1-.9,1.4A4.9,4.9,0,0,1,43,340.8Zm52.5.2a3.4,3.4,0,0,1-2.9,1.2,3.1,3.1,0,0,1-2.8-1.2,6.1,6.1,0,0,1-.9-3.7,6.5,6.5,0,0,1,.9-3.7,3,3,0,0,1,2.8-1.3,3.2,3.2,0,0,1,2.9,1.3,6.8,6.8,0,0,1,.9,3.7A6.1,6.1,0,0,1,95.5,341Z" transform="translate(-7.4 -50.1)"/><path class="cls-1" d="M109.9,334.5h-8c-.3,0-.4.1-.4.4v1c0,.2.1.3.4.3h8a.3.3,0,0,0,.3-.3v-1C110.2,334.6,110.1,334.5,109.9,334.5Z" transform="translate(-7.4 -50.1)"/><rect class="cls-1" x="107.9" y="274.2" width="2.3" height="2.52" rx="0.3"/><rect class="cls-1" x="111.9" y="274.2" width="2.3" height="2.52" rx="0.3"/><rect class="cls-1" x="151.4" y="296.3" width="2.3" height="2.52" rx="0.3"/><rect class="cls-1" x="155.4" y="296.3" width="2.3" height="2.52" rx="0.3"/><rect class="cls-1" x="180.4" y="275.4" width="1.9" height="2.52" rx="0.3"/><path class="cls-1" d="M198.1,331.1H197a.3.3,0,0,0-.3.3v8.9c0,.7-.1,1.1-.4,1.3a1.2,1.2,0,0,1-1.1.4h-2.5a3.8,3.8,0,0,1-2.2-.6,2.2,2.2,0,0,1-.8-1.8v-8.2a.3.3,0,0,0-.3-.3h-1.1c-.2,0-.4.1-.4.3v9.1a2.4,2.4,0,0,1-.2.9,1,1,0,0,1-.5.4l-1,.2h-3.7l-.7-.4a1.9,1.9,0,0,1-.4-.9,4.4,4.4,0,0,1-.2-1.3,3.1,3.1,0,0,0,.1-1v-1.1a7.8,7.8,0,0,0-1.4-5,5.3,5.3,0,0,0-4.2-1.7c-3.7,0-5.5,2.4-5.5,7v1.7a3.2,3.2,0,0,1-.2,1.4,2,2,0,0,1-.4.8,1.8,1.8,0,0,1-.7.5h-2.6a3.8,3.8,0,0,1-2.2-.6,2.2,2.2,0,0,1-.8-1.8v-8.2a.3.3,0,0,0-.3-.3h-1.1c-.2,0-.4.1-.4.3v9.1a2.4,2.4,0,0,1-.2.9,1,1,0,0,1-.5.4l-1,.2H125a1.2,1.2,0,0,1-1.1-.4,1.8,1.8,0,0,1-.4-1.3V329.2c0-.2-.1-.4-.3-.4h-1.1c-.2,0-.3.2-.3.4v1.3h-3.1a8.5,8.5,0,0,0-2.3.3,5.4,5.4,0,0,0-1.8,1.1,5.2,5.2,0,0,0-1.2,1.9,8.5,8.5,0,0,0-.4,2.9,5.7,5.7,0,0,0,1.4,4.2,5.2,5.2,0,0,0,3.8,1.4,6.9,6.9,0,0,0,2.2-.3l1.4-.9a2.5,2.5,0,0,0,.3,1.3,2.2,2.2,0,0,0,.7.9l1,.4H160a3.6,3.6,0,0,0,1.9-.5,4,4,0,0,0,1-1.2,2.2,2.2,0,0,0,1.4,1.4,6.9,6.9,0,0,0,2.2.3h1.9a4.1,4.1,0,0,0,1.6-.3,2.9,2.9,0,0,0,1.4-1.3,3.7,3.7,0,0,0,1.8,1.4,10.1,10.1,0,0,0,2.5.4,9.3,9.3,0,0,0,2.5-.4,4.9,4.9,0,0,0,1.8-1.4,2.9,2.9,0,0,0,1.5,1.2,4.5,4.5,0,0,0,2,.4h2.9a3.6,3.6,0,0,0,1.9-.5,4,4,0,0,0,1-1.2,2.2,2.2,0,0,0,1.4,1.4l1.9.3h2.2a3.8,3.8,0,0,0,2.8-1,4.7,4.7,0,0,0,.8-3v-8.4A.3.3,0,0,0,198.1,331.1Zm-76.3,6a3.7,3.7,0,0,1-.8,2.5,3.4,3.4,0,0,1-2.7.9,3.7,3.7,0,0,1-2.7-.9,3.9,3.9,0,0,1-.9-2.9,4.9,4.9,0,0,1,1-3.4,3.6,3.6,0,0,1,2.7-1h3.4Zm56.8,3.9a3.4,3.4,0,0,1-2.9,1.2,3.2,3.2,0,0,1-2.8-1.2,6.1,6.1,0,0,1-.9-3.7,6.5,6.5,0,0,1,.9-3.7,3.1,3.1,0,0,1,2.8-1.3,3.2,3.2,0,0,1,2.9,1.3,6.8,6.8,0,0,1,.9,3.7A6.1,6.1,0,0,1,178.6,341Z" transform="translate(-7.4 -50.1)"/><rect class="cls-1" x="187.1" y="275.4" width="2.3" height="2.52" rx="0.3"/><rect class="cls-1" x="191.2" y="275.4" width="2.3" height="2.52" rx="0.3"/><path class="cls-1" d="M210.8,334.5h-8c-.2,0-.3.1-.3.4v1a.3.3,0,0,0,.3.3h8a.3.3,0,0,0,.3-.3v-1C211.1,334.6,211,334.5,210.8,334.5Z" transform="translate(-7.4 -50.1)"/><rect class="cls-1" x="213.1" y="275.4" width="2.3" height="2.52" rx="0.3"/><rect class="cls-1" x="209.1" y="275.4" width="2.3" height="2.52" rx="0.3"/><path class="cls-1" d="M219.7,330.5c-3.7,0-5.6,2.2-5.6,6.7,0,2.3.5,4.1,1.4,5.1a5.4,5.4,0,0,0,4.2,1.7,5.2,5.2,0,0,0,4.1-1.7c.9-1,1.4-2.8,1.4-5.1C225.2,332.7,223.3,330.5,219.7,330.5Zm2.9,10.5a4.1,4.1,0,0,1-5.8,0,6.2,6.2,0,0,1-.8-3.7,6.6,6.6,0,0,1,.8-3.7,3.9,3.9,0,0,1,5.8,0,7.8,7.8,0,0,1,.8,3.7A7,7,0,0,1,222.6,341Z" transform="translate(-7.4 -50.1)"/><path class="cls-1" d="M282.1,330.5a5.1,5.1,0,0,0-4,1.7,7.3,7.3,0,0,0-1.5,5,11.4,11.4,0,0,0,.3,2.8,11.9,11.9,0,0,0,.8,2H240.2v-4.7c0-2.3-.4-4-1.3-5.1a5.1,5.1,0,0,0-4.1-1.7,5.9,5.9,0,0,0-2.3.5,5.2,5.2,0,0,0-1.7,1.3,5.4,5.4,0,0,0-1.3,2.2,12.1,12.1,0,0,0-.4,3,8.7,8.7,0,0,0,.4,3,5.2,5.2,0,0,0,1.2,1.9,4,4,0,0,0,1.8,1,6.4,6.4,0,0,0,2.4.4h3.6v1.5a2.7,2.7,0,0,1-.8,2.3,3.2,3.2,0,0,1-2.2.6h-3.9a.3.3,0,0,0-.3.3v1.1a.3.3,0,0,0,.3.3H236a3.9,3.9,0,0,0,3.2-1.1,4.9,4.9,0,0,0,1-3.5v-1.5h41.9a5,5,0,0,0,4.1-1.6c.9-1,1.4-2.7,1.4-5C287.6,332.7,285.8,330.5,282.1,330.5ZM238.5,342h-3.6l-1.7-.2a2.9,2.9,0,0,1-1.3-.8,2.6,2.6,0,0,1-.7-1.4,5.8,5.8,0,0,1-.3-2.1,6.2,6.2,0,0,1,1.1-3.9,3.3,3.3,0,0,1,2.8-1.3,3,3,0,0,1,2.8,1.3,6.5,6.5,0,0,1,.9,3.7Zm46.5-1.1a3.7,3.7,0,0,1-2.9,1.1,3.1,3.1,0,0,1-2.8-1.2,7.6,7.6,0,0,1,0-7.2,3.3,3.3,0,0,1,2.8-1.3,3.2,3.2,0,0,1,2.9,1.3,6.8,6.8,0,0,1,.9,3.7A5.6,5.6,0,0,1,285,340.9Z" transform="translate(-7.4 -50.1)"/><rect class="cls-1" x="271.5" y="275.4" width="2.3" height="2.52" rx="0.3"/><rect class="cls-1" x="275.5" y="275.4" width="2.3" height="2.52" rx="0.3"/><path class="cls-1" d="M299.5,334.5h-8.1c-.2,0-.3.1-.3.4v1a.3.3,0,0,0,.3.3h8.1a.3.3,0,0,0,.3-.3v-1C299.8,334.6,299.7,334.5,299.5,334.5Z" transform="translate(-7.4 -50.1)"/><rect class="cls-1" x="301.8" y="275.4" width="2.3" height="2.52" rx="0.3"/><path class="cls-1" d="M308.3,330.5c-3.7,0-5.5,2.2-5.5,6.7,0,2.3.5,4.1,1.4,5.1a5.2,5.2,0,0,0,4.1,1.7,5.3,5.3,0,0,0,4.2-1.7c.9-1,1.4-2.8,1.4-5.1C313.9,332.7,312,330.5,308.3,330.5Zm2.9,10.5a3.2,3.2,0,0,1-2.8,1.2,3.3,3.3,0,0,1-2.9-1.2,6.1,6.1,0,0,1-.9-3.7,6.5,6.5,0,0,1,.9-3.7,3.1,3.1,0,0,1,2.9-1.3,3.1,3.1,0,0,1,2.8,1.3,6.8,6.8,0,0,1,.9,3.7A6.1,6.1,0,0,1,311.2,341Z" transform="translate(-7.4 -50.1)"/><rect class="cls-1" x="297.8" y="275.4" width="2.3" height="2.52" rx="0.3"/><path class="cls-1" d="M376.2,333.1a6.1,6.1,0,0,0-2-1.9,8.2,8.2,0,0,0-3.4-.7,8.1,8.1,0,0,0-3.3.7,9.1,9.1,0,0,0-2.1,1.8c-.1.2-.1.3.1.4l.9.8a.2.2,0,0,0,.4-.1,7.3,7.3,0,0,1,1.8-1.4,7.8,7.8,0,0,1,2.1-.4,5.2,5.2,0,0,1,2.3.5,4.4,4.4,0,0,1,1.5,1.2,7,7,0,0,1,.8,2,11.4,11.4,0,0,1,.2,2.7v1.6a3,3,0,0,1-.4,1,1.3,1.3,0,0,1-.9.5l-1.5.2H332.2a3.6,3.6,0,0,1-2.2-.6,2,2,0,0,1-.9-1.8v-3.7a9,9,0,0,0-.3-2.5,4.6,4.6,0,0,0-1.1-1.6,4.8,4.8,0,0,0-1.7-1,7.3,7.3,0,0,0-2.2-.3h-4.2a.3.3,0,0,0-.3.3V332a.3.3,0,0,0,.3.3h3.7a4.7,4.7,0,0,1,3,.8,3.7,3.7,0,0,1,1,2.7v3c0,.6-.1,1.1-.1,1.5a1.9,1.9,0,0,1-.4,1,1.3,1.3,0,0,1-.9.5l-1.5.2h-6.3a.3.3,0,0,0-.3.3v1.1c0,.3.1.4.3.4H325a7.3,7.3,0,0,0,2.3-.4,2.8,2.8,0,0,0,1.3-1.5,2.1,2.1,0,0,0,1.4,1.5l2.3.4h41a5.6,5.6,0,0,0,2-.3,2.5,2.5,0,0,0,1.3-.9,3.8,3.8,0,0,0,.6-1.6,9,9,0,0,0,.2-2.4c0-1-.1-2-.2-3A6.9,6.9,0,0,0,376.2,333.1Z" transform="translate(-7.4 -50.1)"/><path class="cls-1" d="M387,330.5a5.4,5.4,0,0,0-2.2.5,4.6,4.6,0,0,0-1.8,1.3,6.6,6.6,0,0,0-1.2,2.2,11.5,11.5,0,0,0,0,6,4,4,0,0,0,1.1,1.9,5,5,0,0,0,1.9,1,6.1,6.1,0,0,0,2.4.4h3.5v1.5c0,1.2-.2,1.9-.7,2.3a3.7,3.7,0,0,1-2.3.6h-3.8a.3.3,0,0,0-.3.3v1.1a.3.3,0,0,0,.3.3h4.3a4.1,4.1,0,0,0,3.3-1.1,5.4,5.4,0,0,0,1-3.5v-8a8,8,0,0,0-1.4-5.1A4.9,4.9,0,0,0,387,330.5Zm3.7,11.5h-3.5l-1.8-.2a2.5,2.5,0,0,1-1.2-.8,2.7,2.7,0,0,1-.8-1.4,10.6,10.6,0,0,1-.2-2.1,6.3,6.3,0,0,1,1-3.9,3.4,3.4,0,0,1,2.8-1.3,3.1,3.1,0,0,1,2.9,1.3,7.5,7.5,0,0,1,.8,3.7Z" transform="translate(-7.4 -50.1)"/></svg>