<svg xmlns="http://www.w3.org/2000/svg" viewBox="0 0 2801.6 871.6"><defs><style>.cls-1{isolation:isolate;}.cls-2{mix-blend-mode:overlay;}.cls-3{fill:#fff;}.cls-4{opacity:0.75;}</style></defs><g class="cls-1"><g id="Layer_2" data-name="Layer 2"><g id="Layer_1-2" data-name="Layer 1"><g class="cls-2"><path class="cls-3" d="M45.9,588.2c-1.6,5.1-2.9,10.3-4.3,15.4a150.2,150.2,0,0,1-5,15.2c-8.6,21.8-12.9,43.5-12.4,64.9s6.1,42.7,17.1,63.6c9.3,17.6,21.5,31.2,36.2,41.2s32,16.6,51.5,20.2a192.5,192.5,0,0,0,59.1,1.1c19.4-2.4,38.5-7.1,57.4-12.8a565.6,565.6,0,0,0,83.8-32.5A673.4,673.4,0,0,0,407.6,720a62.4,62.4,0,0,0,10.4-8.6c3.1-3.3,5.4-6.8,5.4-9.9-.1-4.8-3.1-7.9-7.2-10s-9.3-3.2-13.6-4.1c-7.7-1.7-15.4-3.2-23.2-4.6l-23.3-3.7c-12.5-1.8-25.1-3.3-37.2-6.3s-23.7-7.6-34.4-15.6c-5.9-4.4-11.1-11.6-14.2-19.6s-4.3-16.5-2.2-23.5,4.8-16.4,7.3-24.6,5.4-16.2,8.5-24.1A156.3,156.3,0,0,1,307,526.3,217,217,0,0,1,339,494a115.4,115.4,0,0,1,17.6-12.2,79.1,79.1,0,0,1,20.1-8.1c9.6-2.5,17.8-2.5,24.6.3s12.3,8.4,16.7,17.2c2.9,5.8,5.8,11.6,8.8,17.4s5.9,11.7,8.8,17.5a35.3,35.3,0,0,0,14.5,15.1c5.9,3.4,12.7,5.6,19.5,7.4a13.2,13.2,0,0,0,6.5-.2,11.6,11.6,0,0,0,5.7-3.1c7.5-8.5,15-17,22.3-25.7s14.4-17.5,21.5-26.4a15.6,15.6,0,0,0,2.7-6.6,49.9,49.9,0,0,0,1-7.5c.7-6.8,1.4-13.6,2-20.4a201.3,201.3,0,0,0,.6-20.5c-.3-9.7-.9-19.4-1.8-29.2s-1.8-19.4-2.6-29.2c-.5-5.2-1-10.3-1.6-15.5s-1.3-10.4-2-15.5l-6.6-44.2c-2.2-14.7-4.5-29.5-6.7-44.2l-5.7-36.8c-1.9-12.3-3.8-24.5-5.9-36.8s-4.9-28.7-7.6-43.9-5.4-29.2-6.8-37.2-1.6-17.4-2.9-26.1-3.9-16.9-10.6-24.1a7.5,7.5,0,0,1-1.2-4.5,11.9,11.9,0,0,1,.8-5.1C474,38.3,477.3,30.7,481,23S488.6,7.8,493,.1c11.9,18.2,20.2,37.8,27.7,57.8s14.5,40.4,23.7,60.1c-5.9-.1-8.8-.1-12.8-2.9s-9-8.5-19.1-19.7c1.2,7,4.6,23.6,8.6,42.8s8.3,40.8,11.4,58.1c2.3,12.9,4.7,25.7,7,38.6s4.5,25.8,6.4,38.7c1.4,10.1,2.4,20.3,3.3,30.4s1.6,20.4,2.6,30.6c.4,4.7,1.1,9.5,1.6,14.2a135.5,135.5,0,0,1,1,14.2c.3,18,.6,35.9-.4,54.1s-3.4,36.6-8.7,55.3l21.4-17.9c6.8-5.7,13.4-11.1,20.1-16.4a285,285,0,0,1,31.8-21.9,170.2,170.2,0,0,1,35.1-15.7,84.7,84.7,0,0,1,37.2-3.1A111.8,111.8,0,0,1,726.2,409a144.9,144.9,0,0,1,21.4,13.9c6.9,5.1,13.6,10.6,20.6,15.7a24.4,24.4,0,0,1,9.5,13.5,33.7,33.7,0,0,1,0,16.1c-3.9,17.7-10,33.9-19.6,47.6a98.4,98.4,0,0,1-39.7,33.5,479.9,479.9,0,0,1-64.1,25.4,504.7,504.7,0,0,1-66.9,15.9c-11.6,1.9-23.3,3.4-35,4.7s-23.4,2.5-35.1,3.6c-7.7.8-15.4,1.3-23.2,1.8l-23.2,1c-13.4.5-24.8-2.3-34.5-8.2s-17.4-14.8-23.5-26.6c-2.4-4.6-4.7-9.3-7-13.9s-4.7-9.3-7-14c-3.5-6.6-7.9-11.2-13.2-13.5s-11.5-2.3-18.5.5a160,160,0,0,0-34.3,18.3,173.6,173.6,0,0,0-22.5,18.6A93.2,93.2,0,0,0,293,586.4c-3,5.9-4.2,9.5-3.4,12.4s4,5,9.8,7.8a134.5,134.5,0,0,0,25.2,9.5,164.5,164.5,0,0,0,26.6,5c10,1.1,20.2,2.2,30.2,3.7a211.8,211.8,0,0,1,29.7,6.3c15.4,4.5,25.9,10.8,32,19.8s8.1,21,6.5,36.6c-1.3,13.9-4.4,26.9-10.1,38.6a82.7,82.7,0,0,1-25.2,30.7c-9.2,7-18.4,13.9-27.8,20.6s-18.9,13.1-28.7,19.1c-19.3,11.7-38.9,22.9-59.1,32.7a389.3,389.3,0,0,1-63.1,24.6c-16.8,4.7-33.7,8.7-50.7,11a226.3,226.3,0,0,1-51.4,1.6C99.1,863.2,70.7,852,49.2,833S12.9,787.4,5.7,753.3a201.1,201.1,0,0,1-2.3-68.2c3-22.5,9.4-44.6,18.2-66.2,2-4.8,4.2-9.4,6.6-14s4.8-9.2,7.3-13.7a10.7,10.7,0,0,1,3-3c1.3-.9,2.6-1.7,3.7-2.6l1.9,1.3Zm455.6-35c13.8-1.3,26.9-2,39.6-3a374.3,374.3,0,0,0,37.2-4.4q34.5-6,68.6-14.8T714,510.3l10.7-4a90.1,90.1,0,0,0,10.4-4.9c4.2-2.3,6.4-4.5,6.7-7.1s-1.3-5.5-4.5-9a113.9,113.9,0,0,0-17-15.7,87,87,0,0,0-20.2-11.4c-10.4-4.2-20.7-7.9-31.4-9.8s-21.6-1.9-33.1,1.4a161.3,161.3,0,0,0-30.7,12.3,182.3,182.3,0,0,0-27.7,18c-13.4,10.5-26.7,21.1-39.5,32.9A272.2,272.2,0,0,0,501.5,553.2Z"/><path class="cls-3" d="M2393.9,224.8c2-6.5,3.6-13.2,5.5-19.8a129.5,129.5,0,0,1,6.7-19.3c8.1-18.2,16.5-36.2,25-54.2s17.1-35.9,25.6-53.8c4.5-9.4,5.1-17,2.1-21.8s-10-7.1-20.5-5.7a192.2,192.2,0,0,0-27.7,5.8,241,241,0,0,0-26.7,9.4c-27.5,11.3-55,22.8-82.3,34.6s-54.6,23.7-81.7,35.9c-19.5,8.9-38.9,18.2-58.1,27.7s-38.3,19.4-57.4,29.2a180.2,180.2,0,0,0-19.8,12c-6.6,4.4-13.3,9.2-20.8,14.1l35.3,32.1,33.7,30.7a10.9,10.9,0,0,1-.8,1.5c-.3.4-.5.9-.8,1.4l-12.1-1.6-14.4-1.8c6.3,7.3,12,14.4,17.5,21.2s11.1,13.1,16.9,19.2c13.6,14,27.5,27.8,41.3,41.6s27.8,27.5,41.5,41.5,26.5,27.5,38.7,42.1,23.5,30,33.1,46.6c11.3,19.5,18,39.8,19.6,60.3s-2.2,41.4-11.6,62.1a87.9,87.9,0,0,1-30.6,36.5c-12.9,8.9-28.2,14.7-44.8,18a129,129,0,0,1-17.5,2.3c-6,.5-11.9.6-17.8.6-13.4-.1-25.6-2.8-36.5-8.2s-20.4-13.5-28.6-24.5a182.4,182.4,0,0,0-12.9-15c-4.5-4.9-9.1-9.7-13.5-14.6-6.5-7.3-13-9.8-19.2-9.8s-12.1,2.7-17.4,6c-12.2,7.5-21.5,17.2-29.2,28.2s-13.7,23.3-19.2,35.9-11.6,26.9-17.4,40.3-11.8,26.7-18.4,39.7a46.3,46.3,0,0,1-9.7,12.6,102.3,102.3,0,0,1-13,10,29.6,29.6,0,0,1-20.5,4.5,40.1,40.1,0,0,1-19.9-9,119.6,119.6,0,0,1-26.8-32.8,144,144,0,0,1-14.7-39.1,181,181,0,0,1-3.6-55.3,262.6,262.6,0,0,1,11.1-54.8,19,19,0,0,1,2.1-4.3l2.5-4.1,2.1.6,2.1.6-2.1,17.5c-.7,5.8-1.4,11.7-2.2,17.5-2.4,18.8-2.7,37.3.6,54.9a115.5,115.5,0,0,0,22.1,49.9,38,38,0,0,0,11.6,9.6,74.7,74.7,0,0,0,14.2,6.4,18.5,18.5,0,0,0,15.2-1.4c4.6-2.4,8.5-6.3,11.7-10.5s8.1-10.9,11.8-16.6,7.1-11.5,10.2-17.5c5.9-11.2,11.4-22.6,16.9-34s10.8-22.9,16.3-34.3a207.5,207.5,0,0,1,17.4-30,144.7,144.7,0,0,1,22.9-26c3-2.7,6.2-5.2,9.5-7.7a97.3,97.3,0,0,1,10.1-6.6c8.1-4.6,14.7-6.2,20.7-4.7s11.2,5.9,16.5,13.2,11.2,15.5,17,23.1a238.2,238.2,0,0,0,18.4,21.6c7,7.1,14.8,12.6,23.6,15.7a50.4,50.4,0,0,0,29.2.9,151.6,151.6,0,0,1,20-3.3,192.4,192.4,0,0,0,20.2-2.8,101.4,101.4,0,0,0,24.8-8.7,119.2,119.2,0,0,0,22.2-14.2,17.1,17.1,0,0,0,6.2-10.2,32.1,32.1,0,0,0-.5-12.3,118.8,118.8,0,0,0-14.5-37.3c-6.6-11.5-14.9-21.9-24-31.7-22.5-24.1-45.4-47.9-68.3-71.6s-45.8-47.5-68.5-71.5a256,256,0,0,1-16.9-20.3c-5.4-7-10.6-14.1-16.1-21s-10.1-12.9-15.1-19.3-10.1-12.7-15.5-18.9a40.8,40.8,0,0,1-6.8-10.1,22.7,22.7,0,0,1-2-11.8c.9-7.9,1.4-15.8,2-23.7s1.5-15.8,2.9-23.6a72.3,72.3,0,0,1,17.6-36c8.7-9.9,19.7-17.8,31.9-25,24.8-14.5,50.2-27.8,75.9-40.5s51.8-24.7,78-36.4,52.7-23.5,79.4-34.4,53.8-20.8,81.4-29.2c6.4-1.9,13-3.5,19.7-4.8A153,153,0,0,1,2456.1.1c9.6-.6,17.7,2.9,23.1,9s8,14.5,6.7,24.1a173.1,173.1,0,0,1-6.3,29.6A180.4,180.4,0,0,1,2468.3,91q-10.8,21.9-21.8,43.8t-21.8,43.8c-2.9,5.9-5.5,11.8-8.2,17.8s-5.5,11.9-8.4,17.8a38.5,38.5,0,0,1-4.3,6.5c-1.6,2-3.3,4-4.9,6.1l-2.5-1Z"/><path class="cls-3" d="M1699,555.5a37.5,37.5,0,0,0,4.7,25.7c4.2,7.2,10.5,13.3,17.3,19a40.7,40.7,0,0,0,13.3,8,25.6,25.6,0,0,0,16.4-.2,52.8,52.8,0,0,1,13.3-2.1,76.7,76.7,0,0,0,13.5-1.7,68.9,68.9,0,0,0,22.9-9.7,47,47,0,0,0,16.2-18.9,34.6,34.6,0,0,0,2.6-7,22.9,22.9,0,0,0,.7-7.3c-.7-9.9-1.6-19.9-2.5-29.8s-2.1-19.9-3.4-29.8-3.2-21.4-5-32.1-3.7-21.3-5.4-32c-2-12.3-3.8-24.5-5.7-36.8s-3.7-24.6-5.8-36.8-4.3-24.9-6.5-37.3l-6.9-37.3c-3.1-17.7-6.4-35.5-9.6-53.2s-6.4-35.5-9.3-53.3c-2.2-13.1-3.9-26.4-5.6-39.6s-3.7-26.4-6.2-39.5c-1.5-7.3-1.4-15.1-2.6-22.6s-3.5-14.7-9.6-20.7a4.7,4.7,0,0,1-1-2.5,4.8,4.8,0,0,1,.1-2.7c3.4-8.8,6.8-17.5,10.5-26.2s7.4-17.4,11.6-26a563.2,563.2,0,0,1,32.7,63.1c9.6,21.5,18.2,43.6,26.7,66.3-9.5-.7-14.8-5.8-19.4-11.4s-8.5-11.9-15.4-15c1.1,7.3,2.2,14.4,3.2,21.3s2.1,13.8,3.3,20.6c2.1,12.5,4.2,24.9,6.4,37.3l6.6,37.4,7.2,41.3c2.5,13.7,4.9,27.5,7.3,41.3l6.6,38c2.2,12.7,4.3,25.3,6.4,38s4,22.7,5.8,34.1,3.6,22.7,4.7,34.1c1.5,15,3.2,30,4.3,45a397.7,397.7,0,0,1,1.1,45,152.2,152.2,0,0,1-9.4,48,139.4,139.4,0,0,1-25.2,42.6,88.5,88.5,0,0,1-39.8,26.2,81.8,81.8,0,0,1-47.5.9,50,50,0,0,1-24-15.1c-6.3-7-11.1-15.6-15.5-25.2q-3,6.6-6,12.9c-1.9,4.2-3.9,8.4-5.8,12.5a60.6,60.6,0,0,1-17.3,22.5,59.7,59.7,0,0,1-25.7,11.4,24.4,24.4,0,0,1-9.7,0,22.9,22.9,0,0,1-9.8-5.7c-2.8-2.7-6.7-4.4-10.8-6.3s-8.3-4-11.6-7.3a52.7,52.7,0,0,1-9.9-13,47.3,47.3,0,0,1-4.8-15.3,22.2,22.2,0,0,0-1-3.1q-.7-1.5-1.5-3.3c-4.5,6-8.6,12.2-12.7,18a121.2,121.2,0,0,1-13.5,16.5c-15.4,15.4-32.3,25.5-50.5,29.5s-37.9,1.9-58.9-7a92.3,92.3,0,0,1-38.1-29.9c-9.6-12.6-16.5-27.4-22.3-43a265.9,265.9,0,0,1-11.3-39.6,328.8,328.8,0,0,1-5.7-41c-1.2-14.6-3-29.2-4.9-43.8s-3.9-29.2-5.6-43.8c-1.2-9.9-2-19.9-2.9-29.8s-1.7-19.9-3-29.8c-1.5-11.9-3.2-23.7-5-35.5s-3.7-23.7-5.5-35.5c-1.4-9.6-4-26.3-6.7-43s-5.5-33.4-7.3-42.9c-3.6-18.8-7.2-37.7-10.9-56.4s-7.7-37.5-11.9-56.2a204.9,204.9,0,0,0-7.5-23.8c-2.9-7.8-5.9-15.6-8.4-23.6a31.9,31.9,0,0,1-1.5-7.7,28,28,0,0,1,.6-7.7c1.9-7.2,4-14.3,6.3-21.8L1289.5.1c2.9,5.6,5.7,10.6,8.1,15.3s4.7,9.2,6.6,13.8a502.3,502.3,0,0,1,19.7,63.2c5.3,21.4,9.5,43,13.6,64.7,3.1,16.2,7.3,39.4,11.4,62.8s8,46.6,10.3,62.9c1.9,13.2,3.3,26.5,4.6,39.8s2.5,26.7,4.1,40c1.1,9.6,2.5,19.2,4,28.8s2.8,19.3,3.9,28.9,2.1,19.9,3,29.8,1.8,19.9,2.8,29.8c1.8,16,3.7,32,6.8,47.7s7.4,31,13.8,45.9,14.8,28,25.8,38.3a88.4,88.4,0,0,0,41.4,21.6c12.8,3,30.4,1.8,46.7-3.6s31.3-14.8,38.5-28.5a166,166,0,0,1,9.6-15.5c3.4-5.1,7-10,10.6-14.9,1.8-2.5,3.4-5.3,5.7-7.4a10.4,10.4,0,0,1,9.4-2.7c.2.7.5,1.4.7,2a2.2,2.2,0,0,1,.2,1.7,31.4,31.4,0,0,0-4.3,14.6,30,30,0,0,0,3.8,14.9,45,45,0,0,0,13.5,15.4,57.2,57.2,0,0,0,18.2,8.5c9.8,2.6,19.4,3.2,28,.7s16.3-7.8,22.2-17a79,79,0,0,0,7-14.3c1.9-5.1,3.6-10.2,5.8-15.1,1.4-3.1,3-6.1,4.6-9.1s3.3-6,4.8-9l2.3.7Z"/><path class="cls-3" d="M2155.9,656c-5.4,7.8-11,15.4-16.5,23.1s-10.9,15.4-15.9,23.4c-8.1,13.1-14.2,26.5-17.4,40.7a98.8,98.8,0,0,0,.1,44.6c3.5,15.8,12.3,26.4,23.8,32.2s25.7,6.9,40.2,3.6c11.4-2.5,21.6-7.3,31.1-13.2a240.8,240.8,0,0,0,26.9-20.4c9.3-8,18.5-16.4,27.4-24.9s17.8-17.2,26.4-26a392.8,392.8,0,0,1,79.4-62.3c28.6-17.2,59.3-30.9,91.7-42,6.8-2.3,13.6-4.8,20.6-7.4l21.9-8.1-16.9-12.8-16.4-12.8c-6.4-5-12.7-10.2-19-15.3l-18.9-15.6a47.4,47.4,0,0,1-16.4-25.9c-2.3-9.5-1.9-19.8,0-30.1s7.3-20.7,14.6-27.7,16.9-12.1,28.2-14.8a109.9,109.9,0,0,1,26.1-3.4,119.9,119.9,0,0,1,26.5,2.4c22.6,4.6,45.2,8.5,67.8,12.6s45.3,8.2,67.7,13.1c26.3,5.8,52.6,12.2,78.7,18.7l78.6,19.8a10.7,10.7,0,0,1,2.4,1.2l3,2.1c-2.8,6.2-5.7,12.3-8.5,18.4s-5.5,12.2-8.2,18.3a24.1,24.1,0,0,1-6.6,9.1,26.3,26.3,0,0,1-10.1,5.3q-28.8,8.6-57.5,17.4L2653.3,617l-49.1,14.9c-16.4,5-32.7,9.9-49.1,14.7-5.3,1.5-9.3,3.6-11.3,7.2s-2.1,8.6.5,16.1c-2.9-2.4-4.9-4.4-6.5-5.8a17.1,17.1,0,0,0-4.4-3.1c-2-.8-4.2-1.7-6.3-2.3a10.3,10.3,0,0,0-6-.2c-23.9,8-48,15.6-71.7,24.2s-47.1,18.1-69.5,29.8a310.8,310.8,0,0,0-34.2,20.7,249.8,249.8,0,0,0-30.8,25.7c-12.9,12.6-25.9,25.1-39.2,37.4s-26.6,24.4-40.1,36.3a205.2,205.2,0,0,1-24,18.6,100,100,0,0,1-27.7,12.8c-16.1,4.6-31.6,4.3-45.8-.7s-26.7-14.6-37-28.6a73.1,73.1,0,0,1-13.4-33.6c-1.8-11.9-1.1-24.2.5-36.7a193.1,193.1,0,0,1,7.2-33.1,133.6,133.6,0,0,1,14-30.5,227.1,227.1,0,0,1,16-21.9c5.7-7.1,11.6-13.9,17.5-20.8,1.1-1.4,3-2.2,5.1-2.8s4.4-1,6.4-1.7l.7,1.2Zm373.4-46.7,84.9-26.4,83.9-26.1-.2-1.9v-1.8l-27.4-6.3c-9.1-2.1-18.3-4.2-27.5-6.1-13.6-2.8-27.3-5.5-41-8.1l-41.1-7.8L2531,519c-9.9-1.8-19.9-3.5-30-4.7s-18-1.8-27.1-2.3-18.3-.6-27.4-.7c-2.5,0-5,1-7.7,2.2s-5.7,2.9-9,4.3c17.2,15.9,36.8,28.1,54.7,41.7S2518.7,587.9,2529.3,609.3Z"/><path class="cls-3" d="M863,653.3a183.7,183.7,0,0,1-43.2,9.4,138.4,138.4,0,0,1-43.8-3.1A39.1,39.1,0,0,1,750.7,640a49.4,49.4,0,0,1-4.9-34.4,115.9,115.9,0,0,1,12.5-34.7,82.5,82.5,0,0,1,24.9-27.2c6.5-4.5,13.3-7.4,20.3-8.2a40.4,40.4,0,0,1,22.1,3.9,85.5,85.5,0,0,1,27.6,20.5c7.6,8.4,13.8,18.1,19.4,28.3,3.2,5.9,4.8,8.9,7,9.9s5.3.1,11.3-2,8.9-3.1,13.3-4.8l13.2-5.3c7.9-3.4,12.5-6.5,14.8-10.8s2.1-9.7.7-17.8-2.9-18.3-4.2-27.5l-3.9-27.5c-1.5-10.3-2.9-20.6-4.4-30.9s-2.9-20.5-4.5-30.8-3.3-20.9-5.1-31.4-3.5-20.9-5.3-31.3c-2.1-12.5-4.3-24.9-6.4-37.4s-4.3-24.9-6.3-37.3c-1.7-10.3-5.3-30.9-8.9-51.5s-7.1-41.2-8.7-51.4l-5.1-34.2c-1.7-11.4-3.3-22.8-5-34.2-1.1-8-2.1-16.1-3.1-24.2s-2.1-16.2-3.5-24.2A85,85,0,0,0,855,71.7c-1.5-4-3.1-7.9-4.4-11.8-.5-1.2-1.2-2.6-1.8-3.9s-1.1-2.4-.7-3.4c3.1-8.8,6.4-17.6,9.9-26.3S865.2,8.8,869.3.1a639.9,639.9,0,0,1,31.2,63.3c9.3,21.5,17.6,43.3,25.4,65.3l-1.5,1-1.5,1-7.3-5.5c-2.5-1.9-4.8-3.8-7-5.8s-4-4.2-6.2-6.2a31.4,31.4,0,0,0-7.8-5.7c.6,4.8,1,9.6,1.5,14.4s1.1,9.6,1.9,14.4c2.6,16,5.2,32,7.9,48s5.5,32,8.3,48,7.4,39.6,12.2,64.5,9.6,49.9,12.1,64.5c2.2,12.7,4,25.5,5.9,38.2S948,425,950,437.7c1.6,10.7,3.6,21.4,5.5,32.1s3.5,21.3,4.7,32.1a144.5,144.5,0,0,1,.7,19.8,186.6,186.6,0,0,1-1.7,19.8c-1.1,7.7-2.5,15.5-4.2,23.2a217.5,217.5,0,0,1-6.3,22.7c-4.5,13.2-11,24.8-19.7,34.3a88.2,88.2,0,0,1-33.1,22.2,17.3,17.3,0,0,0-3,1.6l-3,2c-1,11.6-1.8,23.4-3.8,34.8s-5.2,22.8-11,33.3c-2.8,5.1-5.8,10.3-9.1,15.2a97.3,97.3,0,0,1-10.8,13.7c-12.8,13.3-25.7,26.5-39.2,39a355.6,355.6,0,0,1-43.5,34.4c-11,7.2-22,14.3-33.3,20.8A243.4,243.4,0,0,1,704.1,856c-16.2,6.3-32.5,10.4-48.8,11.1a107.7,107.7,0,0,1-48.9-9.2,78.9,78.9,0,0,1-31.1-24.7c-7.9-10.4-13.5-22.7-17.2-36.1a171.9,171.9,0,0,1-5.9-57.2c1.1-19,5-37.8,10.6-56.6,1.4-4.7,2.8-9.5,4.3-14.2s3-9.4,4.7-14a16.5,16.5,0,0,1,2.6-4.4c1.1-1.3,2.3-2.7,3.3-4.1l1.3.5,1.3.5c-1.1,5.6-2.1,11.2-3.2,16.8s-2.2,11.1-3.5,16.7c-3.1,13.7-5,27.4-4.8,41a108.1,108.1,0,0,0,8.5,40.4c6.5,15.2,15.7,27.5,27.3,36.2s25.6,14.1,41.6,15.5a120.8,120.8,0,0,0,37.1-3,181.5,181.5,0,0,0,35.1-12.5A391.8,391.8,0,0,0,774,767.6a437.6,437.6,0,0,0,50.3-39.1L841,714.2a172.2,172.2,0,0,0,15.4-15.4c7.7-9.3,12.3-14.8,13.4-21S868.7,664.9,863,653.3Zm-84.3-50.7c8.1,5.2,16.4,7.1,24.9,7.5s17.4-.4,26.4-.8c-8.7-12-20.3-19-30.4-20.3S781.1,592,778.7,602.6Z"/><path class="cls-3" d="M1020.9.1C1033,21.6,1044,43,1054,64.7s19.1,43.9,27.5,67c-9.3-1.3-14.9-5.8-19.9-11.3s-9.2-12-15.7-17.2c.7,3.7,1.1,6.6,1.6,9.1s.8,4.8,1.2,7l9.9,58.7c3.3,19.5,6.6,39.1,10.1,58.6,2.5,14.6,5.3,29.2,8.1,43.8s5.5,29.3,8,43.9,4.9,31.2,7.2,46.8,4.6,31.3,7,46.9c1.7,11.6,3.6,23.2,5.4,34.8s3.6,23.2,5.3,34.8c.6,4.5,1.2,9,1.7,13.5s.9,9,1.2,13.5c.6,6.4,1.4,12.7,2,19.1a150.8,150.8,0,0,1,.6,19c-.5,8.8-1.3,17.5-2.4,26.3s-2.4,17.5-3.8,26.2c-.8,5.1-1.9,10.1-3.2,15.1l-4.2,14.9a45.8,45.8,0,0,1-2.5,6.3c-1.1,2.1-2.3,4.5-3.6,7.4a44,44,0,0,0-3.3-4c-.8-1.1-1.4-1.9-1.4-2.8-.7-7.7-1.1-15.4-1.6-23.1s-.9-15.5-1.7-23.2c-1.1-11.4-2.4-22.9-3.7-34.4s-2.7-22.9-4.1-34.3l-4.2-33.7q-2.1-16.8-4.5-33.6c-1.3-9.8-2.8-19.6-4.3-29.5s-3-19.6-4.5-29.4-3.4-20.9-5.2-31.4-3.5-20.9-5.3-31.3l-6.3-37.3c-2.2-12.5-4.3-24.9-6.4-37.3s-4-25-6.1-37.4l-6-37.4c-2-12.7-4.1-25.4-6.2-38.1s-4.1-25.4-6.1-38.1c-.7-4.9-1.3-9.8-2-14.7a140.8,140.8,0,0,0-2.4-14.7,69.9,69.9,0,0,0-3.4-10.7c-1.3-3.5-2.7-6.9-3.9-10.5-.7-1.8-1.7-3.9-2.4-5.8s-1.1-3.8-.6-5.3c3.1-8.1,6.4-16.2,9.8-24.5S1017,9.4,1020.9.1Z"/><path class="cls-3" d="M1963,647.1l-2-2.7a6.3,6.3,0,0,1-1.2-2.8c-.6-6.8-1-13.6-1.5-20.4s-.9-13.6-1.6-20.4c-1.2-12.4-2.5-24.8-3.8-37.1s-2.7-24.8-4.2-37.1-2.7-22.5-4.1-33.7-2.9-22.4-4.4-33.6-2.9-19.7-4.4-29.5l-4.8-29.4c-1.6-10.2-3.3-20.5-5-30.7l-5.1-30.7c-2.1-12.6-4.3-25.3-6.5-37.9s-4.4-25.4-6.5-38l-6-37.4c-1.9-12.5-3.9-25-5.8-37.5l-6-37.4-6-37.4c-.8-4.9-1.4-9.8-2.1-14.8s-1.5-9.8-2.6-14.6a91.7,91.7,0,0,0-3.7-11.2c-1.4-3.7-2.9-7.4-4-11.2a59.8,59.8,0,0,1-1.8-6.4c-.4-2.2-.6-4.3.1-6,2.8-7.8,5.9-15.5,9.3-23.6s6.9-16.4,10.6-25.6c12.2,21.4,23.2,42.7,33.1,64.4s19,43.7,27.1,66.6a18.5,18.5,0,0,1-11.9-3.2c-3-2-5.3-4.7-7.7-7.3s-4.3-4.9-6.4-7.5-4-5.3-6.1-7.9l-1.2.6-1.3.6,1.5,11.6c.5,3.9,1.1,7.8,1.7,11.7l8.1,45.2c2.7,15.1,5.5,30.1,8.2,45.2s5.5,29.2,8.2,43.8,5.5,29.2,7.9,43.9,5,30.3,7.3,45.4,4.6,30.4,7,45.5c1.7,11.2,3.7,22.3,5.5,33.4s3.6,22.3,5.1,33.4,2.3,20.8,3.2,31.2,1.7,20.8,2.7,31.1c.4,3.6,1.1,7.2,1.6,10.8a56.4,56.4,0,0,1,1,10.8,388,388,0,0,1-4.4,45.8,280.1,280.1,0,0,1-10.9,44.7,11.1,11.1,0,0,1-1.4,2.9c-.6,1-1.3,1.9-1.9,2.8a2.5,2.5,0,0,1-1.2.8A8.5,8.5,0,0,0,1963,647.1Z"/><path class="cls-3" d="M1187.3,573.9a36.7,36.7,0,0,0,7.1,13.4,37.4,37.4,0,0,0,10.4,8.1c5.8,3.3,11.5,7.2,17.5,10.1s12.4,5,19.6,4.6c2.6-.2,5.2-.4,7.7-.8a28.2,28.2,0,0,0,7.3-2.2c11.1-5,22.1-10.2,33-15.4l32.9-15.8,1.5,1.2,1.4,1.2c-2.4,6.5-4.7,13.2-7.1,19.7s-4.9,13.2-7.6,19.6a8.7,8.7,0,0,1-3.6,3.5c-1.6,1-3.5,1.8-5.1,2.6L1276,636.4c-8.7,4.1-17.5,8.3-26.4,12.3a281.1,281.1,0,0,0-37.3,20.6,272.1,272.1,0,0,0-33.8,26.1,17.7,17.7,0,0,1-4.4,2.9l-6,3.2c.9-10.7,5.1-19.3,10.1-27.2s10.8-15.2,15-23.4a99.9,99.9,0,0,1-20.7-15.5,137.7,137.7,0,0,1-16.8-19.6,18.7,18.7,0,0,1-4-10,20,20,0,0,1,2.3-10.2c1.4-2.9,2.6-5.9,4.1-8.7a31.2,31.2,0,0,1,5.1-7.7c10.8-11.5,21.3-23.2,32.7-33.8s23.8-20.3,38.3-27.6c4.6-2.3,9.1-4,13.6-4.3a20.3,20.3,0,0,1,13.3,3.6,16.4,16.4,0,0,1,7,10.8,37.3,37.3,0,0,1-.3,12.9,76,76,0,0,1-7.8,22.8,102.9,102.9,0,0,1-14.8,20.7l-2.1-5.6-1.6-4.4c-2.7-7.3-4.9-11.5-8.5-13.1s-8.3-.8-16,1.8c-4.9,1.6-9.7,3.3-14.6,5.2S1192.6,572,1187.3,573.9Z"/><path class="cls-3" d="M2079.8,373.2l-27.6-15.6-27.3-15.3-12.9,23-12.7,22.6,27.7,15.8,27.8,16,12.9-24Z"/><path class="cls-3" d="M2054.6,419.7c-4.5,7.9-8.7,15.5-13,23L2029,465.3l27.6,15.9,27.9,15.9,12.9-24,12.1-22.4-27.7-15.6Z"/><path class="cls-3" d="M237.3,755.1l-26-15.9-25.1-15.3c-3.5,6.4-7.1,12.7-10.7,19l-11,19.6-27.1-16.6-27.3-16.7L122.4,707c3.9-7.2,7.8-14.1,11.6-21.1l25.4,15.4,26,15.9,12.1-20.9c3.9-6.8,7.8-13.4,11.7-20.1l27.1,16.7,27.1,16.7-13.1,22.8Z"/><path class="cls-3" d="M370.7,331.7l12.8-22.6c4.3-7.5,8.7-15.2,13.3-23.4l26.8,15.5,27.8,16-12.5,22.9c-4.1,7.6-8.3,15.2-12.5,23.1l-27.5-15.6Z"/><path class="cls-3" d="M1605.9,458.4l-27.8-15.9-27.7-15.9,12.7-22.6,12.9-23,27.3,15.4,27.6,15.5c-4,7.4-7.9,14.9-12.1,22.5S1610.5,450,1605.9,458.4Z"/><path class="cls-3" d="M1786.7,732.9l-13,23.1-12.9,22.9-27.5-15.8L1706,747.4c4.2-7.6,8.3-15,12.4-22.6l12.8-23.3,27.5,15.6Z"/><g class="cls-4"><path class="cls-3" d="M223.5,316.5c-5.3,12.1-5.9,22.5-4.1,32s6,18.3,10.3,27c1.1,2.2,2.8,4.7,3.7,7.2s.6,5.1-2.2,7.6a11.7,11.7,0,0,1-8.2,3.1,23.4,23.4,0,0,1-8.8-2A26,26,0,0,1,202,380.9c-2.7-4.5-4.2-9.7-5.2-15.3s-1.4-9-2.2-13.4a108.7,108.7,0,0,0-3-13.1c-.8-2.5-1.2-6-2.5-8.6s-3.6-4.2-8-2.9-5.1,3.9-5.1,6.8.9,6.4,1.2,8.9a111.3,111.3,0,0,0,3.2,15,87.2,87.2,0,0,1,3.2,15c1,10.8-1.8,18.5-7.3,22.4s-13.9,4.1-24.2.1a31.1,31.1,0,0,1-3.3-21c.9-5.1,1.8-10.1,2.3-15.2a61.3,61.3,0,0,0-.5-15.4c-.5-2.5-.7-5.8-1.6-8.3s-2.6-4.3-6-4-5.1,2.6-6.1,5.4-1.2,5.9-.3,7.9c4.3,9.7,4.3,19.5,3.8,29.4s-1.7,19.7,0,29.4c1,6.1,3.2,11.1,6.8,14.7s8.4,5.8,14.6,6.1c8.6.5,14.1-2.9,18.2-8s6.9-12.1,10.2-18.6c1.1,1.4,2.1,2.5,3,3.5l2.3,2.7c4.2,4.9,8.8,9.1,14,11.5a23.7,23.7,0,0,0,17.7,1,17.6,17.6,0,0,0,11.6-10.7c2-4.8,2.7-10.4,3.5-15.8,2-13.2-1.1-24.9-5.5-36.6S226.7,330.1,223.5,316.5Z"/><path class="cls-3" d="M1228.3,248v.4l-2.4-2.2-2.3-2.3h-.1l-4.2-2.1-4.2-2.1-13-6.1-13-6.1c2.6-10.3,5.3-20.6,7.9-31s5.3-20.6,8-31c8.4-33.2,5.9-62.5-4.7-89s-29-50-52.6-71.9c-4.1-3.7-7.3-5.1-9.9-4.3s-4.9,3.7-6.9,8.5-2.6,9-1.7,12.7,3.5,7.2,7.6,10.9c14.1,13,27.2,26.7,37.5,42.1s17.9,32.5,20.9,52.4c1.8,17.5-.3,34.4-3.5,51.2s-7.6,33.4-10.2,50.3c-.2.5-4.6,10.5-9.1,22.9s-9,27.4-9.3,38,3.1,18.1,9.1,23.6,14.6,8.5,24.5,7.7c17.4-1.4,30-11,35.9-24.6S1237.6,265,1228.3,248Zm-43.6,41.1c-9-3.9-11.5-9.9-10.9-16.5s4.2-13.9,7.4-20.5c6.1,5.7,13.4,9,20.8,12s15,5.6,21.8,9.8c-4.1,9-10.2,14.4-17.2,16.8S1191.9,292.3,1184.7,289.1Z"/><path class="cls-3" d="M1555.3,123.9A172,172,0,0,0,1533,62.7c-11-18.4-25.1-35-41.4-50.3-2.5-2.4-5.1-6.5-8-9.1s-6.1-4-9.6-.9a20.3,20.3,0,0,0-6.8,13.5,25.6,25.6,0,0,0,4,16,48.7,48.7,0,0,0,6.6,7.8,87,87,0,0,0,8,6.8c37.5,28.7,50.6,68.2,54.8,102.2s-.5,62.5,1.1,69.1c5.8-8.8,9.7-29.2,11.9-49S1556.2,129.9,1555.3,123.9Z"/><path class="cls-3" d="M1541.7,218h0l-.2.2c0,.1,0,.2-.1.2h.3Z"/><path class="cls-3" d="M1366,675.9l-.7-.6-.6-.6c-36.2,18.3-71.7,37.9-106.8,58.2s-69.7,41.3-104.1,62.7a27.7,27.7,0,0,0-12,14.8c-2.2,5.9-2.7,12.9-2.4,20.8,34.3-22.9,69.2-43.7,104.2-63.8s70.2-39.5,104.8-59.7c6.5-3.8,11.2-8.1,14.1-13.3S1366.7,683.2,1366,675.9Z"/><path class="cls-3" d="M816.6,194l-.7-.6-.7-.6c-36.1,18.3-71.7,37.8-106.7,58.1s-69.8,41.4-104.2,62.8a27.9,27.9,0,0,0-12,14.7c-2.1,6-2.6,13-2.3,20.9,34.2-22.9,69.1-43.7,104.2-63.8S764.3,246,799,225.7c6.4-3.7,11.2-8,14.1-13.2S817.2,201.3,816.6,194Z"/><path class="cls-3" d="M804.1,107.3l-.6-.6-.7-.6C766.6,124.5,731.1,144,696,164.3S626.3,205.6,591.9,227a27.7,27.7,0,0,0-12,14.8c-2.1,6-2.6,12.9-2.3,20.8,34.2-22.9,69.1-43.7,104.1-63.7s70.2-39.6,104.9-59.8c6.4-3.8,11.1-8.1,14.1-13.3S804.8,114.6,804.1,107.3Z"/><path class="cls-3" d="M1877,746.8l-.7-.6-.6-.6c-36.2,18.3-56,29.1-75.3,40.7s-38.2,23.9-72.6,45.3a27.3,27.3,0,0,0-12,14.8c-2.2,5.9-2.7,12.9-2.4,20.8,34.3-22.9,53.4-34.9,72.7-46.3s38.7-22.1,73.3-42.4c6.5-3.7,11.2-8,14.1-13.2S1877.7,754.1,1877,746.8Z"/><path class="cls-3" d="M2692.5,370.5V367a18.1,18.1,0,0,0,2.1-5.9,43.9,43.9,0,0,1,1.5-6c1.4-3.6,3.1-6,5.4-7s5.1-.9,8.7.5a40.2,40.2,0,0,1,14.5,9.9,83.7,83.7,0,0,1,10.5,13.8c4.2,6.7,8,13.5,11.5,20.5a163.7,163.7,0,0,1,8.7,21.7l.7,1.6,1.4,2.7c.6-7.4,1.1-14.5,1.7-21.3s.9-13.4,1.1-19.9a78.8,78.8,0,0,1,1.7-11,40.7,40.7,0,0,0,1-11h-.1c.7.2,1,.1,1.2-.3s.1-.8.2-1.2a2.8,2.8,0,0,0,1-1.7,6.6,6.6,0,0,0,.1-2l1-1.9.9-1.9.6-1.1.5-1c5.3-6.6,9.2-10,13.5-10.3s8.7,2.4,15,8.1a13.1,13.1,0,0,1,3.7,5.8,20.7,20.7,0,0,1,.9,6.6,32.7,32.7,0,0,1-.7,6.2,25.6,25.6,0,0,0-.4,6.2,2.7,2.7,0,0,1-.5,1.8,2.1,2.1,0,0,1-1.5,1,1.6,1.6,0,0,1-1.7-.4,6.2,6.2,0,0,1-1-1.6,25.6,25.6,0,0,0-4.5-4.8,33.4,33.4,0,0,0-5.3-3.7c-3.4-2.1-6.5-2.7-9.1-1.8s-4.9,3.2-6.6,6.8a45.3,45.3,0,0,0-3.8,14.3c-.6,4.8-.7,9.7-1.2,14.6-.6,6.7-.8,13.5-1.4,20.3a125.3,125.3,0,0,1-3.1,20.1c-.1.7-.3,1.4-.4,2.1s-.3,1.5-.5,2.2a25.5,25.5,0,0,1-1.3,3.9,3.7,3.7,0,0,1-3.2,2.2,3.6,3.6,0,0,1-3.5-1.4,13,13,0,0,1-1.9-3.7c-2.5-5.5-4.8-11-7.3-16.6s-4.8-11.1-7.3-16.6a46.8,46.8,0,0,0-3-5.4l-3.4-5.3a14,14,0,0,0-1-1.6,2.8,2.8,0,0,0-1.6-.9c-6-1-11.1-3.9-16-7.1s-9.7-6.8-15-9.2a4,4,0,0,1-2.2-2.4A9.9,9.9,0,0,1,2692.5,370.5Z"/><path class="cls-3" d="M2501.1,793.5V790a17.6,17.6,0,0,0,2.1-5.8,32,32,0,0,1,1.5-6.1c1.4-3.6,3.1-6,5.4-7s5.1-.9,8.7.6a41.8,41.8,0,0,1,14.5,9.8,80.5,80.5,0,0,1,10.5,13.9,203.9,203.9,0,0,1,11.4,20.4,165.5,165.5,0,0,1,8.8,21.8l.7,1.5,1.4,2.8c.5-7.5,1.1-14.5,1.6-21.3s1-13.4,1.2-20a81.2,81.2,0,0,1,1.7-11,40.7,40.7,0,0,0,1-11h-.1c.7.3,1,.1,1.1-.3a4.2,4.2,0,0,0,.3-1.2,2.5,2.5,0,0,0,1-1.7,12.7,12.7,0,0,0,.1-2l1-1.9.9-1.9.6-1,.5-1.1c5.2-6.6,9.2-10,13.4-10.3s8.8,2.5,15.1,8.1a13.6,13.6,0,0,1,3.7,5.8,21,21,0,0,1,.9,6.6,43.6,43.6,0,0,1-.7,6.2,31.8,31.8,0,0,0-.5,6.2,2.7,2.7,0,0,1-.4,1.8,2.5,2.5,0,0,1-1.5,1.1,1.9,1.9,0,0,1-1.7-.5c-.4-.4-.7-1-1.1-1.5a20.6,20.6,0,0,0-4.4-4.9,38.7,38.7,0,0,0-5.3-3.7c-3.4-2.1-6.5-2.6-9.1-1.8s-4.9,3.2-6.6,6.9a44.7,44.7,0,0,0-3.8,14.2c-.6,4.8-.8,9.7-1.2,14.6-.6,6.8-.9,13.5-1.4,20.3a123.6,123.6,0,0,1-3.1,20.1c-.2.7-.3,1.4-.5,2.2a15.5,15.5,0,0,1-.4,2.1,22.3,22.3,0,0,1-1.3,3.9,4,4,0,0,1-6.8.8,15.2,15.2,0,0,1-1.8-3.6c-2.5-5.6-4.9-11.1-7.3-16.7s-4.8-11-7.3-16.5a58.6,58.6,0,0,0-3-5.5l-3.4-5.3a14,14,0,0,0-1-1.6,2.8,2.8,0,0,0-1.6-.9c-6.1-1-11.2-3.9-16.1-7.1s-9.6-6.8-14.9-9.2a4.2,4.2,0,0,1-2.3-2.4A9.9,9.9,0,0,1,2501.1,793.5Z"/><path class="cls-3" d="M1988.7,39.1V35.3a17,17,0,0,0,2.2-6.2,49.9,49.9,0,0,1,1.6-6.4c1.5-3.8,3.3-6.3,5.7-7.5s5.5-.9,9.4.6A44.9,44.9,0,0,1,2023,26.3,89.2,89.2,0,0,1,2034.2,41a212.3,212.3,0,0,1,12.2,21.8,171.5,171.5,0,0,1,9.3,23.1,12.2,12.2,0,0,0,.8,1.7c.3.7.8,1.6,1.5,2.9.5-7.9,1.1-15.4,1.7-22.6s1-14.3,1.2-21.3a91.8,91.8,0,0,1,1.8-11.7,41.5,41.5,0,0,0,1.1-11.7h-.2c.9.3,1.2.1,1.3-.3s.1-.9.3-1.2a3.7,3.7,0,0,0,1.1-1.9,14.1,14.1,0,0,0,.1-2.1,18.6,18.6,0,0,1,1-2l1-2,.6-1.1.5-1.2c5.6-7,9.8-10.6,14.3-10.9s9.3,2.6,16,8.6a14.1,14.1,0,0,1,4,6.2,23.2,23.2,0,0,1,.9,7,29.6,29.6,0,0,1-.7,6.6,24.2,24.2,0,0,0-.5,6.6,2.6,2.6,0,0,1-2.1,3,1.9,1.9,0,0,1-1.8-.5c-.4-.4-.7-1.1-1.1-1.6a20.8,20.8,0,0,0-4.7-5.1,44.9,44.9,0,0,0-5.7-4c-3.6-2.2-6.8-2.8-9.6-1.9s-5.2,3.4-7.1,7.3a46.9,46.9,0,0,0-4,15.1c-.6,5.1-.8,10.4-1.3,15.5-.6,7.2-.9,14.4-1.5,21.6a139.9,139.9,0,0,1-3.2,21.4,18.9,18.9,0,0,0-.5,2.3c-.2.8-.3,1.5-.5,2.3a18,18,0,0,1-1.4,4.1,4.2,4.2,0,0,1-3.4,2.4,3.9,3.9,0,0,1-3.8-1.6,19.4,19.4,0,0,1-2-3.8l-7.7-17.7c-2.5-5.9-5.1-11.8-7.8-17.6a47.1,47.1,0,0,0-3.2-5.8l-3.6-5.7a14,14,0,0,0-1-1.6,3,3,0,0,0-1.7-1c-6.5-1.1-11.9-4.1-17.1-7.6s-10.2-7.2-15.9-9.7a4.4,4.4,0,0,1-2.4-2.6A9,9,0,0,1,1988.7,39.1Z"/><path class="cls-3" d="M1572.1,39.1V35.3a17,17,0,0,0,2.2-6.2,49.9,49.9,0,0,1,1.6-6.4c1.5-3.8,3.3-6.3,5.8-7.5s5.4-.9,9.3.6a43.9,43.9,0,0,1,15.3,10.5A89.2,89.2,0,0,1,1617.6,41a212.3,212.3,0,0,1,12.2,21.8,171.5,171.5,0,0,1,9.3,23.1,12.2,12.2,0,0,0,.8,1.7c.3.7.8,1.6,1.5,2.9.5-7.9,1.2-15.4,1.7-22.6s1-14.3,1.3-21.3a76.7,76.7,0,0,1,1.7-11.7,41.5,41.5,0,0,0,1.1-11.7h-.1c.8.3,1.1.1,1.2-.3s.1-.9.3-1.2a3.7,3.7,0,0,0,1.1-1.9,14.1,14.1,0,0,0,.1-2.1,18.6,18.6,0,0,1,1-2l1-2,.6-1.1.5-1.2c5.6-7,9.8-10.6,14.3-10.9s9.3,2.6,16,8.6a14.1,14.1,0,0,1,4,6.2,26.9,26.9,0,0,1,1,7,37.2,37.2,0,0,1-.8,6.6,28.9,28.9,0,0,0-.5,6.6,2.6,2.6,0,0,1-2.1,3,1.6,1.6,0,0,1-1.7-.5,9.5,9.5,0,0,1-1.2-1.6,20.8,20.8,0,0,0-4.7-5.1,38.8,38.8,0,0,0-5.7-4c-3.6-2.2-6.8-2.8-9.6-1.9s-5.2,3.4-7.1,7.3a46.9,46.9,0,0,0-4,15.1c-.6,5.1-.8,10.4-1.2,15.5-.7,7.2-1,14.4-1.6,21.6a128.5,128.5,0,0,1-3.2,21.4,18.9,18.9,0,0,0-.5,2.3c-.2.8-.3,1.5-.5,2.3a18,18,0,0,1-1.4,4.1,4.3,4.3,0,0,1-7.2.8,19.4,19.4,0,0,1-2-3.8l-7.7-17.7c-2.5-5.9-5.1-11.8-7.8-17.6a47.1,47.1,0,0,0-3.2-5.8l-3.6-5.7a14,14,0,0,0-1-1.6,2.7,2.7,0,0,0-1.7-1c-6.5-1.1-11.9-4.1-17.1-7.6s-10.2-7.2-15.9-9.7a4.7,4.7,0,0,1-2.4-2.6A11.1,11.1,0,0,1,1572.1,39.1Z"/><path class="cls-3" d="M568.6,39.1V35.3a19.1,19.1,0,0,0,2.2-6.2,49.9,49.9,0,0,1,1.6-6.4c1.5-3.8,3.3-6.3,5.7-7.5s5.4-.9,9.3.6a45.3,45.3,0,0,1,15.4,10.5A89.2,89.2,0,0,1,614.1,41c4.4,7.1,8.5,14.3,12.2,21.8a185.7,185.7,0,0,1,9.3,23.1,10.3,10.3,0,0,0,.7,1.7c.4.7.9,1.6,1.5,2.9.6-7.9,1.2-15.4,1.8-22.6s1-14.3,1.2-21.3a76.9,76.9,0,0,1,1.8-11.7,41.5,41.5,0,0,0,1.1-11.7.1.1,0,0,0-.1.1h-.1c.8.3,1.1.1,1.3-.3a5.3,5.3,0,0,1,.3-1.2,3,3,0,0,0,1-1.9,7.2,7.2,0,0,0,.1-2.1l1-2,1.1-2,.5-1.1.6-1.2C655,4.5,659.2.9,663.7.6s9.3,2.6,16,8.6a13.8,13.8,0,0,1,3.9,6.2,20.5,20.5,0,0,1,1,7,49.3,49.3,0,0,1-.7,6.6,24.2,24.2,0,0,0-.5,6.6,3,3,0,0,1-.5,1.9,2.7,2.7,0,0,1-1.6,1.1,1.8,1.8,0,0,1-1.8-.5c-.4-.4-.7-1.1-1.1-1.6a20.8,20.8,0,0,0-4.7-5.1,44.9,44.9,0,0,0-5.7-4c-3.6-2.2-6.9-2.8-9.7-1.9s-5.1,3.4-7,7.3a49.8,49.8,0,0,0-4.1,15.1c-.6,5.1-.7,10.4-1.2,15.5-.6,7.2-.9,14.4-1.5,21.6a128.7,128.7,0,0,1-3.3,21.4c-.2.8-.3,1.5-.5,2.3a18.9,18.9,0,0,1-.5,2.3,24.6,24.6,0,0,1-1.3,4.1,4.2,4.2,0,0,1-3.4,2.4,3.9,3.9,0,0,1-3.8-1.6,15.2,15.2,0,0,1-2-3.8L622,94.4l-7.8-17.6A65.5,65.5,0,0,0,611,71l-3.6-5.7-1.1-1.6a2.5,2.5,0,0,0-1.7-1c-6.4-1.1-11.8-4.1-17-7.6s-10.3-7.2-16-9.7a4.5,4.5,0,0,1-2.3-2.6A9,9,0,0,1,568.6,39.1Z"/><path class="cls-3" d="M746.1,329.3v-3.8a17,17,0,0,0,2.2-6.2,49.9,49.9,0,0,1,1.6-6.4c1.5-3.8,3.3-6.3,5.7-7.5s5.5-.9,9.4.6a44.9,44.9,0,0,1,15.3,10.5,89.2,89.2,0,0,1,11.2,14.7A212.3,212.3,0,0,1,803.8,353a171.5,171.5,0,0,1,9.3,23.1,12.2,12.2,0,0,0,.8,1.7c.3.7.8,1.6,1.5,2.9.5-7.9,1.1-15.4,1.7-22.6s1-14.3,1.3-21.3a76.7,76.7,0,0,1,1.7-11.7,41.5,41.5,0,0,0,1.1-11.7h-.1c.8.3,1.1.1,1.2-.2s.1-1,.3-1.3a3.7,3.7,0,0,0,1.1-1.9,14.1,14.1,0,0,0,.1-2.1l1-2,1-2,.6-1.1.5-1.2c5.6-7,9.8-10.6,14.3-10.9s9.3,2.6,16,8.6a14.1,14.1,0,0,1,4,6.2,23.2,23.2,0,0,1,.9,7,29.6,29.6,0,0,1-.7,6.6,24.5,24.5,0,0,0-.5,6.6,3,3,0,0,1-.4,1.9,2.6,2.6,0,0,1-1.7,1.1,1.9,1.9,0,0,1-1.8-.5c-.4-.4-.7-1.1-1.1-1.6a20.8,20.8,0,0,0-4.7-5.1,44.9,44.9,0,0,0-5.7-4c-3.6-2.2-6.8-2.8-9.6-1.9s-5.2,3.4-7.1,7.3a46.9,46.9,0,0,0-4,15.1c-.6,5.1-.8,10.4-1.2,15.5-.7,7.2-1,14.4-1.6,21.6a128.5,128.5,0,0,1-3.2,21.4,18.9,18.9,0,0,0-.5,2.3c-.2.8-.3,1.5-.5,2.3a18,18,0,0,1-1.4,4.1,3.9,3.9,0,0,1-3.4,2.4,4.1,4.1,0,0,1-3.8-1.5,23.8,23.8,0,0,1-2-3.9l-7.7-17.7c-2.5-5.9-5.1-11.8-7.8-17.6a47.1,47.1,0,0,0-3.2-5.8l-3.6-5.7a14,14,0,0,0-1-1.6,3,3,0,0,0-1.7-1c-6.5-1.1-11.9-4.1-17.1-7.6s-10.2-7.2-15.9-9.7a4.7,4.7,0,0,1-2.4-2.6A11.1,11.1,0,0,1,746.1,329.3Z"/><path class="cls-3" d="M1151.7,395.4v-3.7a20.9,20.9,0,0,0,2.2-6.2,33.3,33.3,0,0,1,1.6-6.4q2.1-5.9,5.7-7.5c2.4-1.2,5.4-1,9.3.6a45.1,45.1,0,0,1,15.4,10.4,85.9,85.9,0,0,1,11.2,14.8,230.5,230.5,0,0,1,12.1,21.7,173.2,173.2,0,0,1,9.4,23.2,6.4,6.4,0,0,0,.7,1.6l1.5,2.9c.6-7.9,1.2-15.4,1.7-22.6s1-14.2,1.3-21.3a65.1,65.1,0,0,1,1.8-11.6,46.4,46.4,0,0,0,1.1-11.7h-.2c.8.4,1.1.2,1.3-.2s.1-.9.2-1.3a2.5,2.5,0,0,0,1.1-1.8,15.5,15.5,0,0,0,.1-2.2c.3-.6.7-1.3,1-2l1-2,.6-1.1.6-1.1c5.6-7,9.8-10.6,14.3-11s9.3,2.6,16,8.7a13.6,13.6,0,0,1,3.9,6.1,23.2,23.2,0,0,1,1,7,49.3,49.3,0,0,1-.7,6.6,24.5,24.5,0,0,0-.5,6.6,3.3,3.3,0,0,1-.5,2,2.3,2.3,0,0,1-1.6,1,1.6,1.6,0,0,1-1.8-.5,6.4,6.4,0,0,1-1.1-1.6,28.8,28.8,0,0,0-4.7-5.1,53.4,53.4,0,0,0-5.7-4c-3.7-2.2-6.9-2.8-9.7-1.9s-5.2,3.4-7,7.3a48.5,48.5,0,0,0-4.1,15.1c-.6,5.2-.8,10.4-1.2,15.6-.6,7.1-.9,14.4-1.5,21.6a129.1,129.1,0,0,1-3.3,21.3c-.2.8-.3,1.6-.5,2.3a15.5,15.5,0,0,1-.5,2.3,20.7,20.7,0,0,1-1.4,4.2,4.1,4.1,0,0,1-3.3,2.4,3.9,3.9,0,0,1-3.8-1.6,13.1,13.1,0,0,1-2-3.9c-2.6-5.8-5.2-11.8-7.7-17.7s-5.2-11.7-7.9-17.6a47.1,47.1,0,0,0-3.2-5.8c-1.1-1.9-2.4-3.7-3.5-5.6s-.7-1.2-1.1-1.7a2.5,2.5,0,0,0-1.7-1c-6.4-1-11.8-4.1-17.1-7.5s-10.2-7.2-15.9-9.8a4.5,4.5,0,0,1-2.4-2.5A12.1,12.1,0,0,1,1151.7,395.4Z"/><path class="cls-3" d="M976.3,764.5v-3.7a20.9,20.9,0,0,0,2.2-6.2,33.3,33.3,0,0,1,1.6-6.4c1.5-3.9,3.3-6.4,5.7-7.5s5.4-1,9.3.6a43.7,43.7,0,0,1,15.4,10.4,85.9,85.9,0,0,1,11.2,14.8,230.5,230.5,0,0,1,12.1,21.7,173.2,173.2,0,0,1,9.4,23.2,15.8,15.8,0,0,0,.7,1.6l1.5,2.9c.6-7.9,1.2-15.4,1.7-22.6s1-14.3,1.3-21.3a65.1,65.1,0,0,1,1.8-11.6,46.4,46.4,0,0,0,1.1-11.7h-.2c.8.3,1.1.1,1.3-.2s.1-.9.2-1.3a2.5,2.5,0,0,0,1.1-1.8,15.5,15.5,0,0,0,.1-2.2,12.4,12.4,0,0,0,1-2l1.1-2,.5-1.1.6-1.1c5.6-7,9.8-10.6,14.3-11s9.3,2.6,16,8.7a13.6,13.6,0,0,1,3.9,6.1,23.2,23.2,0,0,1,1,7,49.3,49.3,0,0,1-.7,6.6,24.5,24.5,0,0,0-.5,6.6,3.3,3.3,0,0,1-.5,2,2.3,2.3,0,0,1-1.6,1,1.6,1.6,0,0,1-1.8-.5,6.4,6.4,0,0,1-1.1-1.6,28.8,28.8,0,0,0-4.7-5.1,44.9,44.9,0,0,0-5.7-4c-3.6-2.2-6.9-2.8-9.7-1.9s-5.2,3.4-7,7.3a51.4,51.4,0,0,0-4.1,15.1c-.6,5.2-.7,10.4-1.2,15.6-.6,7.1-.9,14.4-1.5,21.5a128.7,128.7,0,0,1-3.3,21.4c-.2.8-.3,1.6-.5,2.3a15.5,15.5,0,0,1-.5,2.3,29.2,29.2,0,0,1-1.3,4.2,4.3,4.3,0,0,1-3.4,2.3,3.6,3.6,0,0,1-3.8-1.5,15.9,15.9,0,0,1-2-3.9c-2.6-5.9-5.2-11.8-7.7-17.7l-7.8-17.6c-1-2-2.1-3.9-3.2-5.8s-2.5-3.7-3.6-5.6-.7-1.2-1.1-1.7a2.5,2.5,0,0,0-1.7-1c-6.4-1.1-11.8-4.1-17.1-7.5s-10.2-7.2-15.9-9.8a4.9,4.9,0,0,1-2.4-2.5A12.1,12.1,0,0,1,976.3,764.5Z"/><path class="cls-3" d="M1544.4,733v-3.8a17,17,0,0,0,2.2-6.2,49.9,49.9,0,0,1,1.6-6.4c1.5-3.9,3.3-6.4,5.7-7.5s5.5-.9,9.4.6a43.5,43.5,0,0,1,15.3,10.5,81.5,81.5,0,0,1,11.2,14.7,212.3,212.3,0,0,1,12.2,21.8,166.3,166.3,0,0,1,9.3,23.1,7.9,7.9,0,0,0,.8,1.6c.3.7.8,1.6,1.5,3,.5-8,1.1-15.4,1.7-22.7s1-14.2,1.2-21.2a91.8,91.8,0,0,1,1.8-11.7,41.5,41.5,0,0,0,1.1-11.7h-.2c.9.3,1.2.1,1.3-.3s.1-.9.3-1.2a4.1,4.1,0,0,0,1.1-1.9,14.8,14.8,0,0,0,.1-2.1l1-2,1-2,.6-1.2.5-1.1c5.6-7,9.8-10.6,14.3-10.9s9.3,2.6,16,8.6a13.6,13.6,0,0,1,4,6.2,23.2,23.2,0,0,1,.9,7,28.8,28.8,0,0,1-.7,6.5,25,25,0,0,0-.5,6.7,2.6,2.6,0,0,1-2.1,3,1.9,1.9,0,0,1-1.8-.5c-.4-.4-.7-1.1-1.1-1.6a23.3,23.3,0,0,0-4.7-5.2,44.2,44.2,0,0,0-5.7-3.9c-3.6-2.3-6.8-2.8-9.6-1.9s-5.2,3.4-7.1,7.2a48.2,48.2,0,0,0-4,15.2c-.6,5.1-.8,10.3-1.3,15.5-.6,7.2-.9,14.4-1.5,21.6a141.7,141.7,0,0,1-3.2,21.4,15.5,15.5,0,0,0-.5,2.3c-.2.7-.3,1.5-.5,2.2a18.8,18.8,0,0,1-1.4,4.2,4.2,4.2,0,0,1-3.4,2.4,3.9,3.9,0,0,1-3.8-1.6,19.4,19.4,0,0,1-2-3.8l-7.7-17.7c-2.5-5.9-5.1-11.8-7.8-17.6a48.3,48.3,0,0,0-3.2-5.9l-3.6-5.6a14,14,0,0,0-1-1.6,3,3,0,0,0-1.7-1c-6.5-1.1-11.9-4.2-17.1-7.6s-10.2-7.2-15.9-9.7a4.7,4.7,0,0,1-2.4-2.6A9,9,0,0,1,1544.4,733Z"/><path class="cls-3" d="M1448.4,144.9a135.6,135.6,0,0,1-4.8,13.1,41.1,41.1,0,0,1-7.6,11.8c-3.9,4.2-8,6.6-12.3,7.1s-8.7-.9-13.5-4.2a42.3,42.3,0,0,1-11.6-11.9,53.1,53.1,0,0,1-6.6-15.2,110.2,110.2,0,0,1-3.4-30.6,166.1,166.1,0,0,1,3.7-30.5c2.5-12.1,5.2-24.2,8.1-36.2s6.3-23.9,10-35.7c.6-2,.9-4.3,1.7-6.4a9.5,9.5,0,0,1,5.1-5.6,64.7,64.7,0,0,1-.7,18.2c-1,5.9-2.5,11.6-4,17.2a355.4,355.4,0,0,0-7.7,36.3,157.4,157.4,0,0,0-1.4,37,49,49,0,0,0,4.4,16.9,50.8,50.8,0,0,0,10.2,14c5.2,5.1,9.9,6.4,13.9,4.8s7.2-5.9,9.3-12.2c1.1-3.2,2-6.5,2.8-9.8l2.4-10a9.2,9.2,0,0,1,.9-2.8,2.3,2.3,0,0,1,2.6-1,2.1,2.1,0,0,1,1.7,1.7,22.6,22.6,0,0,1,0,2.6,54.6,54.6,0,0,1-.4,14c-.7,4.6-1.6,9.3-2.3,13.9l-.3,1.7A11,11,0,0,1,1448.4,144.9Z"/><path class="cls-3" d="M695.2,705c-1.5,4.4-2.9,8.9-4.8,13.1a41.7,41.7,0,0,1-7.6,11.8c-3.9,4.2-8,6.6-12.2,7.1s-8.8-.9-13.6-4.2a43.7,43.7,0,0,1-11.6-11.9,53.1,53.1,0,0,1-6.6-15.2,114.1,114.1,0,0,1-3.4-30.6,166.1,166.1,0,0,1,3.7-30.5c2.5-12.1,5.2-24.2,8.2-36.2s6.2-23.9,9.9-35.7c.7-2,.9-4.3,1.8-6.4a9.3,9.3,0,0,1,5-5.6,64.8,64.8,0,0,1-.7,18.2c-.9,5.9-2.5,11.6-3.9,17.2a326,326,0,0,0-7.8,36.3,168.7,168.7,0,0,0-1.4,37,49.7,49.7,0,0,0,4.5,16.9,48.4,48.4,0,0,0,10.1,14c5.2,5.1,9.9,6.4,13.9,4.8s7.2-6,9.4-12.3a100.7,100.7,0,0,0,2.7-9.8c.9-3.3,1.6-6.6,2.4-9.9a18.4,18.4,0,0,1,.9-2.8,2.3,2.3,0,0,1,2.6-1,1.8,1.8,0,0,1,1.7,1.7c.1.8,0,1.8.1,2.5a60.2,60.2,0,0,1-.5,14.1c-.7,4.6-1.6,9.2-2.2,13.9l-.3,1.7Z"/><path class="cls-3" d="M92.6,567.5a183.9,183.9,0,0,1-7.4,20.4,65.4,65.4,0,0,1-11.7,18.3c-6.1,6.5-12.4,10.1-19,10.9s-13.6-1.3-21-6.5a65.5,65.5,0,0,1-18-18.4A80.2,80.2,0,0,1,5.4,568.6,170.1,170.1,0,0,1,0,521.2,262.4,262.4,0,0,1,5.8,474q5.7-28,12.6-56c4.6-18.5,9.7-37,15.4-55.3,1-3.1,1.4-6.6,2.7-9.9a15.1,15.1,0,0,1,7.8-8.7,97.8,97.8,0,0,1-1,28.2c-1.5,9.1-3.9,17.9-6.2,26.7-4.8,18.6-9.2,37.2-11.9,56.1A243.3,243.3,0,0,0,23,512.4a75.1,75.1,0,0,0,6.9,26.2,77.4,77.4,0,0,0,15.7,21.7c8,7.9,15.3,9.8,21.5,7.4s11.1-9.2,14.4-18.9c1.8-5,3.1-10.1,4.4-15.2s2.4-10.3,3.7-15.4a18.9,18.9,0,0,1,1.3-4.4c.8-1.1,1.9-1.8,4.1-1.5a3.2,3.2,0,0,1,2.6,2.6c.2,1.3,0,2.8.1,4a83,83,0,0,1-.8,21.7c-1,7.2-2.4,14.3-3.4,21.5a25.1,25.1,0,0,0-.4,2.7C92.9,565.7,92.8,566.6,92.6,567.5Z"/><path class="cls-3" d="M207.2,194.2a34,34,0,0,1-2.8,18.4,36.6,36.6,0,0,1-34.4,20c-7-.2-13.7-2.3-17.9-6.4a24.2,24.2,0,0,1-6-9.7,53.2,53.2,0,0,1-2.4-11.2,123.1,123.1,0,0,1,.2-34.3,262.7,262.7,0,0,1,7.2-33.7l3.5-13.4c1.2-4.4,2.4-8.9,3.7-13.3a39.7,39.7,0,0,1,1.5-4.9c.6-1.6,1.2-3.2,1.9-4.8a15.1,15.1,0,0,1,1.5-2.8,2.6,2.6,0,0,1,2.9-.9,2.2,2.2,0,0,1,1.7,2.3,10.1,10.1,0,0,1-.5,3.1c-.7,3.8-1.5,7.5-2.3,11.2s-1.7,7.5-2.8,11.1-1.4,6.2-.6,8.5,3,3.9,7.2,4.8a30.5,30.5,0,0,1,7.5,3.1c2.5,1.3,4.9,2.7,7.5,3.8,8.7,3.6,14.2,9.1,17.7,15.8s5,14.6,5.7,23c.1,1.3.1,2.7.1,4.3S207.2,191.7,207.2,194.2Zm-51.9-31.9c-.5,3.5-1.1,6.8-1.6,10s-1,6.4-1.4,9.5c-1,7.7,1.6,14.2,6.2,18.3s11.5,5.8,19.1,3.9a33.7,33.7,0,0,0,9.8-4,48,48,0,0,0,8.6-6.4c1.9-1.6,2.9-3.1,2.9-4.7s-.7-3.1-2.7-5a66.2,66.2,0,0,0-19-13A226.7,226.7,0,0,0,155.3,162.3Z"/><path class="cls-3" d="M1388.5,306.2c1.7-7.5,3.1-14.5,5.6-20.8a38.4,38.4,0,0,1,11.6-16.6,171.3,171.3,0,0,1,30.7-20.2c10.8-5.7,22-10.7,33.2-15.5,29.3-12.8,85.7-35.8,137.3-56.5s98.3-39.1,108.4-42.4a17.9,17.9,0,0,1,3.2-.9l4.4-1-9.3,14.3c-2.9,4.5-5.8,8.8-8.7,13.1a6.5,6.5,0,0,1-2.2,1.7l-2.8,1.1c-18.8,6.4-57.8,21.8-96.1,37.5s-76.1,31.6-92.5,39.2-35.6,17.1-53.2,26.1l-52.8,27.4a39.7,39.7,0,0,0-7.8,5.7C1394.8,300.7,1392,303.4,1388.5,306.2Z"/><path class="cls-3" d="M2340.2,438.2c1.8-8.2,3.4-15.8,6-22.7a43.5,43.5,0,0,1,12.6-18c10.4-8.6,15.4-12.2,20.9-14.9s11.3-4.7,23.5-10c31.8-13.8,63.5-27.7,95.4-41.3s63.8-27.2,95.9-40.1l41.7-17.1c9.9-4.1,20-7.8,42.3-15.7,10.8-3.8,21.7-7.5,32.6-11.1l32.7-10.8a23.7,23.7,0,0,1,3.4-.9l4.9-1.1L2742,250c-3.2,4.9-6.3,9.6-9.5,14.2a5.6,5.6,0,0,1-2.4,1.8,15.7,15.7,0,0,1-3,1.2c-20.5,7-28.6,10.1-36.7,13.2s-16.2,6.4-36.4,14c-16.4,6-32.6,12.6-48.7,19.3L2557,334c-18.1,7.5-36.4,14.7-54.5,22.1s-36.3,15-54,23.2c-19.5,9-32.5,15.1-45.4,21.4s-25.6,12.9-44.6,22.8a42.5,42.5,0,0,0-8.6,6.1C2347.1,432.2,2344,435.1,2340.2,438.2Z"/><path class="cls-3" d="M2710.9,704.9c-9.1-2-17.8-3.6-25.8-2.4s-15.2,4.9-21.3,13.7a13.6,13.6,0,0,0-1-1.4c-.3-.4-.4-.6-.4-.8,1.7-14.4,9.3-25.6,19.8-31.8s24-7.4,37.6-2.1a10.1,10.1,0,0,1,6.2,5.7,19.9,19.9,0,0,1,1,8.1,33.7,33.7,0,0,1-3.8,14.2,58.5,58.5,0,0,1-8.6,11.8q-4.7,5.1-9.6,9.9c-3.3,3.2-6.6,6.3-10.1,9.3a38.2,38.2,0,0,0-7.9,9.2,49.5,49.5,0,0,0-5.1,10.9,7.3,7.3,0,0,0-.2,5.2,9.7,9.7,0,0,0,3.1,4.1,37.9,37.9,0,0,0,14.6,7,60.4,60.4,0,0,0,16,1.3c14.4-.4,27.9-3.5,41-7.9s25.9-10.3,38.5-16.2a12.3,12.3,0,0,1,3.3-.8l3.4-.4a32.1,32.1,0,0,0-1.2,3.3,14.6,14.6,0,0,1-1.7,3,137,137,0,0,1-25.7,22.5,153,153,0,0,1-29.9,15.9,103.2,103.2,0,0,1-26,7,64.7,64.7,0,0,1-27.2-2.2,48.7,48.7,0,0,1-7.2-2.8,73.3,73.3,0,0,1-6.7-3.9,18.3,18.3,0,0,1-7-8,16.2,16.2,0,0,1-.6-10.5c3-11.8,6.3-23.5,11.5-34.1a72.6,72.6,0,0,1,22.9-27.9,28.8,28.8,0,0,0,3.3-2.8l3.1-3.2.7-1A12,12,0,0,1,2710.9,704.9Z"/><path class="cls-3" d="M2257.6,345.1c1.3-5.3,2.1-10.8,3.3-16.1a53.8,53.8,0,0,1,5.1-15.1,34.5,34.5,0,0,1,8.8-10,60,60,0,0,1,11.7-7.3c13.4-6.6,26.8-13,40.4-19.2s27.2-12.2,41-18c12.3-5.2,24.8-10.1,37.3-14.9l37.7-14.2,34.1-12.6c11.4-4.1,22.8-8.2,34.2-12.1,9.3-3.2,37.4-12.4,68.1-22.3l83.3-27.1c2.5-.8,5-1.8,7.4-2.7s5-1.9,7.5-2.7a19.3,19.3,0,0,1,3.6-.6c1.2,0,2.2.1,2.4.5a12.6,12.6,0,0,1,1,3.6,6.3,6.3,0,0,1-.5,3.4c-2.2,4.6-4.2,9-7.2,12.7a25.3,25.3,0,0,1-13.1,8.5c-15.6,4.5-52.6,17-90.8,30.2s-77.7,27.2-98.4,34.7-41.5,15.3-62.2,23.2-41.3,16-61.8,24.3c-11.9,4.9-23.7,10.2-35.4,15.6s-23.2,11.2-34.8,16.9c-6.2,3-9.3,5.7-9.3,8.7s3,6,9,9.8l15.4,9.6c5.2,3.2,10.5,6.2,15.8,9.1,3.2,1.7,5.4,3.5,6.6,5.9s1.5,5.1.7,8.5a4.1,4.1,0,0,0-.1,1.1,4.9,4.9,0,0,1-.1,1.2c-1.2,8.8-2.5,13.6-5.5,15.1s-7.4-.4-14.8-4.9l-13.4-8-13.1-8.3c-4.6-3.1-8.4-6.6-10.9-11A24.4,24.4,0,0,1,2257.6,345.1Z"/><path class="cls-3" d="M2355.8,107.5l-4.5,11.7c-1.5,3.9-3,7.8-4.7,11.6s-4.6,9.2-6.4,13.9a32.3,32.3,0,0,0-2.5,15.2,61.9,61.9,0,0,0,2.1,11.4,30.8,30.8,0,0,0,5.2,10.2c2.7,3.4,5.9,4.9,8.8,4.5s5.6-2.5,7.3-6.4l2.2-4.9c.8-1.6,1.5-3.2,2.2-4.8s.3-.2.5-.3l1.1-.4.7,1.8a3.8,3.8,0,0,1,.3,1.8,75.7,75.7,0,0,1-4.4,16.5,57.5,57.5,0,0,1-8.7,14.9,11.6,11.6,0,0,1-9.5,4.3,12.9,12.9,0,0,1-9.3-4.9,43.5,43.5,0,0,1-9.4-21.6c-.9-7.5.3-15.2,3-22.9s6.7-16.9,10.4-25.2,7.7-16.6,11.3-24.9a6.4,6.4,0,0,1,1-1.3l1.1-1.2,1.1.5Z"/><path class="cls-3" d="M2376.6,514.5l-4.5,11.6c-1.5,3.9-3,7.8-4.7,11.6s-4.6,9.2-6.4,13.9a32.3,32.3,0,0,0-2.5,15.2,61.9,61.9,0,0,0,2.1,11.4,30.8,30.8,0,0,0,5.2,10.2c2.8,3.4,5.9,4.9,8.8,4.6s5.6-2.5,7.3-6.5c.8-1.6,1.5-3.3,2.2-4.9s1.5-3.2,2.2-4.8l.5-.3,1.1-.4.7,1.9a2.6,2.6,0,0,1,.3,1.7,78.1,78.1,0,0,1-4.4,16.6,55.8,55.8,0,0,1-8.7,14.8,11.4,11.4,0,0,1-9.5,4.3,13.1,13.1,0,0,1-9.3-4.9,42.1,42.1,0,0,1-9.3-21.6c-1-7.5.2-15.2,2.9-22.8s6.7-17,10.5-25.3,7.6-16.6,11.3-24.9a3.8,3.8,0,0,1,.9-1.3l1.1-1.2,1.1.5Z"/><path class="cls-3" d="M2397.4,766.3l-4.5,11.7c-1.5,3.9-3,7.8-4.7,11.6s-4.6,9.2-6.4,13.9a32.1,32.1,0,0,0-2.5,15.2,68.4,68.4,0,0,0,2.1,11.3,30.4,30.4,0,0,0,5.2,10.3c2.8,3.4,5.9,4.9,8.8,4.5s5.6-2.5,7.3-6.5c.8-1.6,1.5-3.2,2.2-4.8l2.3-4.8c0-.2.2-.2.4-.3l1.1-.4.7,1.8a2.7,2.7,0,0,1,.3,1.7,75.1,75.1,0,0,1-4.4,16.6,54.8,54.8,0,0,1-8.7,14.9,11.8,11.8,0,0,1-9.5,4.3,12.8,12.8,0,0,1-9.3-5,41.8,41.8,0,0,1-9.3-21.5c-1-7.5.2-15.2,3-22.9s6.6-16.9,10.4-25.2,7.6-16.6,11.3-25a4.7,4.7,0,0,1,.9-1.2l1.1-1.2,1.1.5Z"/><path class="cls-3" d="M2197.1,100.9c1.6-3.8,3-7.7,4.5-11.6s3.1-7.8,4.8-11.6,4.6-9.2,6.4-13.9,3-9.7,2.4-15.2a61.8,61.8,0,0,0-2-11.4,29.3,29.3,0,0,0-5.3-10.2c-2.7-3.4-5.8-4.9-8.7-4.6s-5.6,2.6-7.4,6.5c-.7,1.7-1.4,3.3-2.2,4.9s-1.4,3.2-2.2,4.8l-.5.3-1,.4a14.2,14.2,0,0,0-.8-1.8,3.8,3.8,0,0,1-.3-1.8,82,82,0,0,1,4.5-16.5A54.8,54.8,0,0,1,2198,4.3a11.5,11.5,0,0,1,9.5-4.3,13.2,13.2,0,0,1,9.3,4.9,43.3,43.3,0,0,1,9.3,21.6,49.5,49.5,0,0,1-3,22.9c-3.1,8.5-6.7,16.9-10.4,25.2s-7.6,16.6-11.3,24.9a3.8,3.8,0,0,1-.9,1.3l-1.2,1.2-1.1-.5Z"/><path class="cls-3" d="M747.9,100.9c1.6-3.8,3-7.7,4.5-11.6s3.1-7.8,4.8-11.6,4.6-9.2,6.4-13.9,3-9.7,2.4-15.2a61.8,61.8,0,0,0-2-11.4A29.3,29.3,0,0,0,758.7,27c-2.7-3.4-5.8-4.9-8.7-4.6s-5.6,2.6-7.4,6.5c-.7,1.7-1.4,3.3-2.2,4.9s-1.4,3.2-2.2,4.8-.2.2-.5.3l-1,.4a14.2,14.2,0,0,0-.8-1.8,3.8,3.8,0,0,1-.3-1.8,82,82,0,0,1,4.5-16.5,54.8,54.8,0,0,1,8.7-14.9A11.5,11.5,0,0,1,758.3,0a13.2,13.2,0,0,1,9.3,4.9,43.3,43.3,0,0,1,9.3,21.6,49.5,49.5,0,0,1-3,22.9c-3.1,8.5-6.7,16.9-10.4,25.2s-7.6,16.6-11.3,24.9a3.8,3.8,0,0,1-.9,1.3l-1.2,1.2-1.1-.5Z"/><path class="cls-3" d="M863.7,416.4l-4.5,11.7c-1.5,3.9-3.1,7.8-4.8,11.6s-4.6,9.2-6.4,13.9-3,9.7-2.4,15.2a68.4,68.4,0,0,0,2,11.3,28.9,28.9,0,0,0,5.3,10.3c2.7,3.4,5.8,4.9,8.7,4.5s5.6-2.5,7.4-6.5l2.2-4.8,2.2-4.8c.1-.2.2-.2.5-.3l1.1-.4a6.7,6.7,0,0,0,.7,1.8,3.6,3.6,0,0,1,.3,1.7,70.1,70.1,0,0,1-4.5,16.6,57.2,57.2,0,0,1-8.6,14.9,11.8,11.8,0,0,1-9.5,4.3,13,13,0,0,1-9.4-5,42.6,42.6,0,0,1-9.3-21.5,49.5,49.5,0,0,1,3-22.9c3.1-8.5,6.7-16.9,10.4-25.2s7.6-16.6,11.3-25a9.4,9.4,0,0,1,.9-1.2l1.2-1.2,1.1.5Z"/><path class="cls-3" d="M992.1,211.1l-1.1.5-.4.3-1.8,5-1.8,5c-1.4,4.2-3.9,6.6-6.7,7.1s-6.2-.6-9.2-3.7a30.8,30.8,0,0,1-6.1-9.8,64.6,64.6,0,0,1-3-11.1,32.6,32.6,0,0,1,1.1-15.3c1.4-4.9,3.5-9.6,5.2-14.5s2.5-7.9,3.7-11.9,2.3-8,3.5-12l-1.1-.5-1.2-.4-1,1.3a2.6,2.6,0,0,0-.8,1.3c-3,8.7-6.1,17.2-9.1,25.8s-5.9,17.3-8.2,26.1a48.7,48.7,0,0,0-1,23A41.8,41.8,0,0,0,964.2,248a12.5,12.5,0,0,0,9.8,4.1,11.2,11.2,0,0,0,9-5.1,53.8,53.8,0,0,0,7.4-15.5,74,74,0,0,0,3-16.9,3.4,3.4,0,0,0-.5-1.7C992.7,212.3,992.3,211.7,992.1,211.1Z"/><path class="cls-3" d="M1019,397.8l-1,.5c-.3.1-.5.2-.5.3l-1.8,5-1.8,5c-1.4,4.2-3.9,6.6-6.7,7.2s-6.1-.7-9.1-3.8a28.5,28.5,0,0,1-6.2-9.8,64.6,64.6,0,0,1-3-11.1,32.6,32.6,0,0,1,1.1-15.3c1.4-4.9,3.5-9.6,5.2-14.5s2.6-7.9,3.7-11.9,2.3-8,3.5-12l-1.1-.4-1.2-.5a14.7,14.7,0,0,1-1,1.3,3.1,3.1,0,0,0-.8,1.3c-3,8.7-6.1,17.2-9.1,25.9s-5.9,17.2-8.2,26-2.6,15.7-1,23a42.6,42.6,0,0,0,11.1,20.7,12.6,12.6,0,0,0,9.8,4.1,11.5,11.5,0,0,0,9.1-5.1,56.2,56.2,0,0,0,7.3-15.5,74,74,0,0,0,3-16.9,3.5,3.5,0,0,0-.4-1.7A15.1,15.1,0,0,1,1019,397.8Z"/><path class="cls-3" d="M1480.1,798.4l-1.5.9a2.2,2.2,0,0,0-.7.6l-2.6,8.9c-.9,3-1.7,6-2.6,9-2.1,7.3-5.8,11.6-10,12.6s-9-1.1-13.4-6.7a54.7,54.7,0,0,1-9.1-17.4,136.1,136.1,0,0,1-4.4-19.8c-1.6-9.7-.5-18.7,1.6-27.4s5.2-17.1,7.6-25.8c2-7,3.8-14.1,5.5-21.2s3.4-14.3,5.2-21.5l-1.7-.7-1.7-.8-1.5,2.3a6.8,6.8,0,0,0-1.2,2.4c-4.4,15.4-9,30.7-13.5,46s-8.6,30.8-12,46.5c-3.1,14.1-3.8,27.9-1.5,41.1a81.8,81.8,0,0,0,16.5,36.9c3.9,5.1,9.2,7.6,14.3,7.3s10.1-3.3,13.4-9.2a109.5,109.5,0,0,0,10.9-27.6,165.3,165.3,0,0,0,4.4-30.2,5.5,5.5,0,0,0-.7-3C1481,800.6,1480.5,799.5,1480.1,798.4Z"/><path class="cls-3" d="M1043.2,630l-1.1.5-.4.3-1.8,5-1.8,5.1c-1.4,4.1-3.9,6.5-6.7,7.1s-6.1-.7-9.1-3.8a27.6,27.6,0,0,1-6.2-9.8,64.6,64.6,0,0,1-3-11.1,32.7,32.7,0,0,1,1.1-15.3c1.4-4.9,3.5-9.6,5.2-14.5s2.6-7.9,3.7-11.9,2.3-8,3.5-12l-1.1-.4-1.2-.5a14.7,14.7,0,0,1-1,1.3,2.9,2.9,0,0,0-.8,1.4l-9.1,25.8c-3,8.6-5.9,17.2-8.2,26s-2.6,15.7-1,23a41.8,41.8,0,0,0,11.1,20.7,12.5,12.5,0,0,0,9.8,4.1,11.2,11.2,0,0,0,9-5.1,53.8,53.8,0,0,0,7.4-15.5,73,73,0,0,0,3-16.9,3.7,3.7,0,0,0-.5-1.7C1043.8,631.2,1043.4,630.6,1043.2,630Z"/><path class="cls-3" d="M198,518.4c-1.6,3.9-3,7.8-4.5,11.7s-3.1,7.8-4.8,11.6-4.6,9.2-6.4,13.9a32.1,32.1,0,0,0-2.4,15.2,59.3,59.3,0,0,0,2,11.3,28.9,28.9,0,0,0,5.3,10.3c2.7,3.4,5.8,4.9,8.7,4.5s5.6-2.5,7.4-6.5c.7-1.6,1.4-3.2,2.2-4.8s1.4-3.2,2.2-4.8.2-.2.5-.3l1-.4a14.2,14.2,0,0,0,.8,1.8,5.5,5.5,0,0,1,.3,1.7,81.1,81.1,0,0,1-4.5,16.6,52.9,52.9,0,0,1-8.7,14.8,11.6,11.6,0,0,1-9.5,4.4,12.8,12.8,0,0,1-9.3-5,42.6,42.6,0,0,1-9.3-21.5,49.5,49.5,0,0,1,3-22.9c3.1-8.5,6.7-16.9,10.4-25.2s7.6-16.6,11.3-25a4.7,4.7,0,0,1,.9-1.2l1.1-1.2,1.2.5Z"/><path class="cls-3" d="M2597.9,343.3c-1.6,3.9-3,7.8-4.5,11.7s-3.1,7.8-4.8,11.6-4.6,9.2-6.4,13.9-3,9.7-2.4,15.2a61.8,61.8,0,0,0,2,11.4,29.3,29.3,0,0,0,5.3,10.2c2.7,3.4,5.8,4.9,8.7,4.5s5.6-2.5,7.4-6.5c.7-1.6,1.4-3.2,2.2-4.8s1.4-3.2,2.2-4.8.2-.2.5-.3l1-.4a14.2,14.2,0,0,0,.8,1.8,3.6,3.6,0,0,1,.3,1.7,81.1,81.1,0,0,1-4.5,16.6A54.8,54.8,0,0,1,2597,440a11.4,11.4,0,0,1-9.4,4.3,13.3,13.3,0,0,1-9.4-4.9,43.3,43.3,0,0,1-9.3-21.6,49.5,49.5,0,0,1,3-22.9c3.1-8.5,6.7-16.9,10.4-25.2s7.6-16.6,11.3-25a4.7,4.7,0,0,1,.9-1.2l1.2-1.2,1.1.5Z"/><path class="cls-3" d="M2554.6,67.6l-4.5,11.7c-1.5,3.9-3,7.7-4.7,11.5s-4.6,9.2-6.4,14a32.1,32.1,0,0,0-2.5,15.2,68.4,68.4,0,0,0,2.1,11.3,31.3,31.3,0,0,0,5.2,10.3c2.8,3.3,5.9,4.8,8.8,4.5s5.6-2.5,7.4-6.5l2.1-4.8c.8-1.7,1.5-3.3,2.3-4.9l.4-.3,1.1-.4c.2.7.5,1.3.7,1.9a2.7,2.7,0,0,1,.3,1.7,76.6,76.6,0,0,1-4.4,16.6,54.3,54.3,0,0,1-8.7,14.8,11.2,11.2,0,0,1-9.5,4.3,12.4,12.4,0,0,1-9.3-4.9,41.7,41.7,0,0,1-9.3-21.6c-1-7.5.2-15.1,3-22.8s6.6-16.9,10.4-25.3,7.6-16.6,11.3-24.9a3.8,3.8,0,0,1,.9-1.3l1.1-1.1,1.1.5Z"/><path class="cls-3" d="M1495.3,329h0Z"/><path class="cls-3" d="M1531.5,314.9c-6.7-6-11.5-9-16-8.6s-8.7,3.9-14.3,10.9l-.6,1.1a6.1,6.1,0,0,0-.5,1.2c-.4.6-.7,1.3-1.1,2s-.6,1.3-1,2a14.8,14.8,0,0,1-.1,2.1,2.5,2.5,0,0,1-1.1,1.8c-.1.4-.1.9-.2,1.2s-.4.6-1.1.4a44.8,44.8,0,0,1-1.1,11.6,66.2,66.2,0,0,0-1.8,11.7c-.3,7-.7,14-1.3,21.2s-1.1,14.7-1.7,22.7c-.7-1.4-1.1-2.3-1.5-3a9.8,9.8,0,0,1-.7-1.6,173.2,173.2,0,0,0-9.4-23.2,243.7,243.7,0,0,0-12.1-21.7,85.9,85.9,0,0,0-11.2-14.8,45.1,45.1,0,0,0-15.4-10.4c-3.9-1.5-6.9-1.8-9.3-.6s-4.2,3.6-5.7,7.5a33.3,33.3,0,0,0-1.6,6.4,20,20,0,0,1-2.2,6.2v3.8a11.5,11.5,0,0,0,.6,3.7,4.9,4.9,0,0,0,2.4,2.5c5.7,2.6,10.7,6.4,15.9,9.8s10.7,6.5,17.1,7.5a2.9,2.9,0,0,1,1.7,1c.4.5.7,1.1,1.1,1.7s2.4,3.7,3.6,5.6,2.2,3.8,3.2,5.8l7.8,17.7c2.5,5.9,5.1,11.8,7.7,17.7a27.5,27.5,0,0,0,1.4,3,5.2,5.2,0,0,0,2.3,2.1c-.2.7-.3,1.3-.5,2s-.5,1.4-.7,2c-1.2,2.9-2.5,5.8-3.8,8.6s-2.6,5.8-3.6,8.7c-1.9,5.7-4,11.4-5.9,17.1a179.6,179.6,0,0,0-4.8,17.4,216.3,216.3,0,0,0-3.9,25.4,220,220,0,0,0-.9,25.7,61.5,61.5,0,0,0,3.7,19.7,57.9,57.9,0,0,0,10.2,17.3,13,13,0,0,0,6,4.1,14.5,14.5,0,0,0,7.2.2,12.9,12.9,0,0,0,6.3-3.1,33.7,33.7,0,0,0,4.6-5.3,73.7,73.7,0,0,0,9-16.5,100.7,100.7,0,0,0,4.9-18.1c.6-3.4,1-6.8,1.3-10.2s.5-6.8.7-10.2a6.2,6.2,0,0,0-.2-2.3,15.5,15.5,0,0,1-.6-2.3H1513a11.9,11.9,0,0,1-.9,1.5,5.1,5.1,0,0,0-.7,1.5c-.5,1.8-.9,3.7-1.4,5.6s-.9,3.7-1.4,5.6a41.6,41.6,0,0,1-3.1,8.8,23,23,0,0,1-5.7,7.5,14.4,14.4,0,0,1-10-1.2,21.7,21.7,0,0,1-7.4-6.8,38.3,38.3,0,0,1-4.6-9,65.2,65.2,0,0,1-2.5-9.9,88.3,88.3,0,0,1-1.5-11.2,52.5,52.5,0,0,1,.3-11.2,228,228,0,0,1,5-24.6,209.2,209.2,0,0,1,7.7-24,59.7,59.7,0,0,0,2.4-7.5l1.8-7.6v-.7l.6-1.6c.1-.6.3-1.1.4-1.7a15.5,15.5,0,0,0,.5-2.3c.2-.7.3-1.5.5-2.2a130.3,130.3,0,0,0,3.3-21.4c.6-7.2.9-14.4,1.5-21.6.5-5.2.6-10.4,1.2-15.6a51.4,51.4,0,0,1,4.1-15.1c1.8-3.9,4.2-6.3,7-7.2s6.1-.4,9.7,1.8a44.9,44.9,0,0,1,5.7,4,32.7,32.7,0,0,1,4.7,5.1,9.9,9.9,0,0,0,1.1,1.7,2.1,2.1,0,0,0,1.8.5,2.7,2.7,0,0,0,1.6-1.1,3.2,3.2,0,0,0,.5-1.9,25,25,0,0,1,.5-6.7,49.3,49.3,0,0,0,.7-6.6,23.7,23.7,0,0,0-1-7A13.6,13.6,0,0,0,1531.5,314.9Z"/><path class="cls-3" d="M145.7,43.2h0Z"/><path class="cls-3" d="M1705.1,271.1Z"/><path class="cls-3" d="M1741.2,257c-6.7-6-11.4-8.9-16-8.6s-8.7,3.9-14.3,10.9a6.1,6.1,0,0,1-.5,1.2l-.6,1.1c-.3.7-.7,1.3-1,2s-.7,1.3-1,2a14.1,14.1,0,0,1-.1,2.1,4.1,4.1,0,0,1-1.1,1.9,7,7,0,0,1-.3,1.2c-.1.3-.4.5-1.1.3a41.9,41.9,0,0,1-1.1,11.7,75.5,75.5,0,0,0-1.7,11.6c-.3,7-.8,14-1.3,21.2s-1.2,14.7-1.7,22.7l-1.5-2.9a12.2,12.2,0,0,1-.8-1.7,166.3,166.3,0,0,0-9.3-23.1,212.3,212.3,0,0,0-12.2-21.8,85.2,85.2,0,0,0-11.2-14.7,43.9,43.9,0,0,0-15.3-10.5c-3.9-1.5-6.9-1.7-9.3-.6s-4.3,3.6-5.8,7.5c-.7,2.1-1.1,4.3-1.6,6.4a17,17,0,0,1-2.2,6.2v3.8a11.1,11.1,0,0,0,.7,3.7,4.7,4.7,0,0,0,2.4,2.6c5.7,2.5,10.7,6.3,15.9,9.7s10.6,6.5,17.1,7.6a2.7,2.7,0,0,1,1.7,1,14,14,0,0,1,1,1.6l3.6,5.7a40.8,40.8,0,0,1,3.2,5.8c2.7,5.8,5.3,11.7,7.8,17.6s5.2,11.8,7.7,17.7a28,28,0,0,0,1.5,3,4.7,4.7,0,0,0,2.3,2.1l-.6,2.1a14.6,14.6,0,0,1-.7,1.9c-1.1,2.9-2.5,5.8-3.8,8.7a83.1,83.1,0,0,0-3.5,8.7c-2,5.7-4,11.3-5.9,17.1a153.3,153.3,0,0,0-4.8,17.3,219.8,219.8,0,0,0-4,25.4,200.1,200.1,0,0,0-.8,25.7,61.5,61.5,0,0,0,3.7,19.7,53.7,53.7,0,0,0,10.2,17.3,11.6,11.6,0,0,0,6,4.1,15.3,15.3,0,0,0,7.1.3,12.9,12.9,0,0,0,6.3-3.1,34.2,34.2,0,0,0,4.7-5.3,70.1,70.1,0,0,0,8.9-16.6,101,101,0,0,0,5-18.1c.6-3.3,1-6.7,1.3-10.1s.4-6.8.7-10.2a5.8,5.8,0,0,0-.3-2.3l-.6-2.4h-1.1l-.9,1.5a5.1,5.1,0,0,0-.7,1.5c-.5,1.9-1,3.8-1.4,5.6s-.9,3.8-1.4,5.6a44.6,44.6,0,0,1-3.1,8.9,23,23,0,0,1-5.8,7.5,15.2,15.2,0,0,1-10-1.3,20.4,20.4,0,0,1-7.3-6.8,32,32,0,0,1-4.6-9,59.8,59.8,0,0,1-2.6-9.9,107.4,107.4,0,0,1-1.5-11.2,58.9,58.9,0,0,1,.4-11.1,224.8,224.8,0,0,1,4.9-24.7,202.1,202.1,0,0,1,7.8-23.9,71.6,71.6,0,0,0,2.3-7.5c.7-2.6,1.2-5.2,1.8-7.7.1-.1.1-.2.1-.4V362a9.8,9.8,0,0,0,.5-1.6c.2-.6.3-1.1.5-1.6s.3-1.6.5-2.3a18.9,18.9,0,0,1,.5-2.3,130.1,130.1,0,0,0,3.2-21.4c.6-7.2.9-14.4,1.6-21.6.4-5.2.6-10.4,1.2-15.5a46.9,46.9,0,0,1,4-15.1c1.9-3.9,4.3-6.4,7.1-7.3s6-.3,9.6,1.9a47.6,47.6,0,0,1,5.7,3.9,23.3,23.3,0,0,1,4.7,5.2,9.5,9.5,0,0,0,1.2,1.6,1.7,1.7,0,0,0,1.8.5,3.1,3.1,0,0,0,1.6-1.1,3,3,0,0,0,.4-1.9,29.8,29.8,0,0,1,.5-6.7,35,35,0,0,0,.8-6.5,26.9,26.9,0,0,0-1-7A12.8,12.8,0,0,0,1741.2,257Z"/><path class="cls-3" d="M2181.2,212.4c6.7,1.2,12.8,2.6,18.7,3.8a149.7,149.7,0,0,0,17,2.7c8.2.8,16.4,1.2,24.6,1.5s16.5.5,24.7,1a24.4,24.4,0,0,1,14.9,6.4c3.9,3.5,6.2,8.1,5.7,12.4a27.5,27.5,0,0,1-8.5,16.5c-4.6,4.1-10.3,6.6-16,6.1l-39.3-2.7c-13-1-26.1-2.1-39.1-3.6a106.6,106.6,0,0,1-17.5-3.6c-5.7-1.7-11.4-3.7-17-5.8s-9.2-6.2-11.4-11.1-3.4-10.5-4.9-16.1c21.8,15.5,45,21.8,68.7,24.7s47.9,2.2,71.7,3.6c.3-.6.5-1.3.8-1.9s.5-1.2.7-1.9c-2.5-1.2-5.1-2.8-7.6-4.2a21.8,21.8,0,0,0-7.8-2.9c-9.8-1-19.6-1.8-29.4-2.5l-29.4-2.1-5.4-.7-5.4-1c-11.3-2.6-17.3-5.2-18.6-9.3s2.2-9.9,9.8-18.9,16-13.9,25.4-17.9,19.5-6.4,29.5-9.1c1.3-.4,3.6.1,5.6.9s3.6,1.9,3.6,2.7a32.5,32.5,0,0,1-.7,8.1c-.5,2.7-1.2,5.6-1.8,8.7-7-4.7-18.7-5-30.5-1.9S2188.6,203.7,2181.2,212.4Z"/><path class="cls-3" d="M278.9,43.3V39.1a21.2,21.2,0,0,0,2.5-6.9,60.9,60.9,0,0,1,1.7-7.1c1.7-4.3,3.7-7,6.4-8.3s6-1,10.3.7A48.9,48.9,0,0,1,317,29.1a100,100,0,0,1,12.4,16.3,260.2,260.2,0,0,1,13.4,24.2,178.2,178.2,0,0,1,10.4,25.6A12.6,12.6,0,0,0,354,97l1.7,3.3c.6-8.8,1.3-17.1,1.9-25.1s1.1-15.8,1.4-23.6a78.8,78.8,0,0,1,2-12.9,51.6,51.6,0,0,0,1.2-13H362c.9.3,1.2.1,1.4-.3a7,7,0,0,1,.3-1.4,3.8,3.8,0,0,0,1.2-2.1,16.9,16.9,0,0,0,.1-2.3c.4-.8.7-1.5,1.1-2.2l1.2-2.3.6-1.2.6-1.3C374.7,5,379.4,1,384.4.6s10.3,2.9,17.7,9.6a15.4,15.4,0,0,1,4.4,6.8,25.3,25.3,0,0,1,1,7.8,35.3,35.3,0,0,1-.8,7.2,30.7,30.7,0,0,0-.5,7.4,3.5,3.5,0,0,1-.5,2.1,2.9,2.9,0,0,1-1.8,1.2,2,2,0,0,1-2-.5,11.8,11.8,0,0,1-1.3-1.8,23.6,23.6,0,0,0-5.2-5.7,47.2,47.2,0,0,0-6.3-4.4c-4-2.5-7.6-3.1-10.7-2.1s-5.7,3.8-7.8,8.1A52.5,52.5,0,0,0,366.1,53c-.7,5.7-.8,11.5-1.3,17.3-.7,7.9-1.1,15.9-1.7,23.9a146.1,146.1,0,0,1-3.7,23.7c-.2.8-.3,1.7-.5,2.5a24.4,24.4,0,0,1-.6,2.6,19,19,0,0,1-1.5,4.6,4.4,4.4,0,0,1-3.7,2.6,4.3,4.3,0,0,1-4.2-1.7,15.9,15.9,0,0,1-2.2-4.3c-2.9-6.5-5.7-13.1-8.6-19.6s-5.7-13.1-8.7-19.5a50.7,50.7,0,0,0-3.5-6.5l-4-6.2-1.1-1.9a4,4,0,0,0-1.9-1.1c-7.2-1.2-13.2-4.5-19-8.3s-11.3-8-17.6-10.8a5.5,5.5,0,0,1-2.7-2.9A11,11,0,0,1,278.9,43.3Z"/><path class="cls-3" d="M361.8,169c-7.9-6.3-14.3-7.4-19.8-5.4s-10.1,7.3-14.4,13.6c-.5-.9-1-1.5-1.3-2a1.7,1.7,0,0,1-.5-1c3.1-5.9,6-12.1,9-18.1a108.4,108.4,0,0,1,10.3-17,15.6,15.6,0,0,1,12.1-6.6,19.2,19.2,0,0,1,13.3,5.4A208.2,208.2,0,0,1,385,153.1c4.7,5.3,9.2,10.7,13.8,16A6.4,6.4,0,0,1,400,172a5.4,5.4,0,0,1,0,3.1c-1.5,4.1-3,8.1-4.7,12.2s-3.4,8.2-5.1,12.6c-11.5-6.7-22.1-7-32.3-4.5s-20,7.5-30,11.4c-3.2,1.3-5.4,3-6.5,5.3s-1.4,5.2-.8,8.8c3.4,19.8,6.6,39.6,9.9,59.4s6.4,39.6,9.8,59.4a392.8,392.8,0,0,1,5.4,41.5,167.7,167.7,0,0,1-1.8,41.8,14,14,0,0,1-1.1,4,13.7,13.7,0,0,1-2.6,4l-.9-1.6a3.3,3.3,0,0,1-.5-1.6c0-17.4-2.4-34.5-5.5-51.4s-7-33.7-10-50.7c-2.7-14.5-5.3-29.1-7.8-43.7s-4.8-29.1-6.7-43.8c-1.5-11.4-.4-23.9,4.9-35s14.6-20.9,29.5-26.8l8.8-3.5Z"/><path class="cls-3" d="M2037.8,781.8c-.2,2.7-.5,5.3-.9,7.9s-.8,4.9-1.4,7.3a28.4,28.4,0,0,1-2.4,6.4,21.3,21.3,0,0,1-3.8,5l-2.3,1.5-3,1.5a9.6,9.6,0,0,1-3.3.6,7.6,7.6,0,0,1-3.2-1.1l-.6-.6-.6-.5-.6-.7-.5-.6-1.3,1.2-1.3,1.1-.5,1.1-.6,1a65.2,65.2,0,0,1,4.1,8.4,66.9,66.9,0,0,1,2.7,9,49.6,49.6,0,0,1,1.3,9.3,48.2,48.2,0,0,1-.3,9.3,41.4,41.4,0,0,1-6.5,17.4l-.4.4-.5.3h-.7a55.3,55.3,0,0,0,.2-9.9,50,50,0,0,0-1.3-9c-.8-2.9-1.7-5.6-2.7-8.2a55.6,55.6,0,0,0-3.4-7.4c-1.2-2.4-2.5-4.7-3.8-6.9s-2.5-4.4-3.8-6.4l-3-4.9-3.3-4.8a41.9,41.9,0,0,1-3.1-5,44.9,44.9,0,0,1-2.6-5.4l1.6-4.6,1.8-4.6c.5-1.5,1.1-3,1.8-4.6s1.3-2.9,2-4.4l1.7,3.5c.5,1.2,1.2,2.4,1.8,3.7a13.3,13.3,0,0,0,2.2,3.4,14.5,14.5,0,0,0,2.6,2.4,9.4,9.4,0,0,0,3,1.5,11.5,11.5,0,0,0,3.3.4,18.6,18.6,0,0,0,3.3-.4,21.9,21.9,0,0,0,3.3-1.2,12,12,0,0,0,2.7-1.6,8.5,8.5,0,0,0,1.9-1.9,3.6,3.6,0,0,0,.6-1.1,18.9,18.9,0,0,0,.6-1.8,19.7,19.7,0,0,1,.7-1.9,6.7,6.7,0,0,1,.6-1.2h.7l.2.5v.5a5.4,5.4,0,0,0,.1,2.2,4.4,4.4,0,0,0,.7,1.9,7.7,7.7,0,0,0,1.2,1.3,3.7,3.7,0,0,0,1.4.7,12.5,12.5,0,0,0,4.3.1,8.4,8.4,0,0,0,3.7-1.7,9.6,9.6,0,0,0,2.8-2.9,11.1,11.1,0,0,0,1.3-3.6l.4-.9.5-.8.2-.2Z"/><path class="cls-3" d="M1290.2,845l-2.4,4.1-2.3,4.1c-.7,1.4-1.5,2.8-2.3,4.1l-2.4,4a11.6,11.6,0,0,1-3.1,2.2,19,19,0,0,1-3.8,1.7,21.8,21.8,0,0,1-4.4,1.1,36.2,36.2,0,0,1-4.6.6,24.4,24.4,0,0,1-4.7-.1,23.4,23.4,0,0,1-4.5-.7,20.8,20.8,0,0,1-4-1.5,13.6,13.6,0,0,1-3.3-2.2,6.9,6.9,0,0,1-1.6-2.2,13.3,13.3,0,0,1-1.1-3,11.7,11.7,0,0,1-.2-3.2,10,10,0,0,1,1-2.9c.8-1.5,1.6-2.9,2.5-4.3s1.7-2.8,2.5-4.3a32.1,32.1,0,0,0,2.4-4.5,38.4,38.4,0,0,0,1.9-5.1,8.5,8.5,0,0,0-1.3-2.7,18,18,0,0,0-1.8-2l-2-1.3a9.3,9.3,0,0,0-1.9-1.1,10.4,10.4,0,0,1-1.7-1.2,5.3,5.3,0,0,1-1.2-1.4,4,4,0,0,1-.7-2,14.2,14.2,0,0,1,.2-2.8,18.2,18.2,0,0,1,1.3-4c.6-1.5,1.5-3.3,2.5-5.3s2.7-4.8,4.2-7.2,3.1-4.9,4.9-7.4a40.6,40.6,0,0,1,5.6-6.6,45.6,45.6,0,0,1,6.6-5.2l.8-.4.7-.5,1-.3.9-.4-2,3.3-1.7,3.6c-.5,1.2-1.1,2.4-1.6,3.7s-1.1,2.5-1.6,3.8l-2.8,1.8a20.2,20.2,0,0,1-3.2,1.8,10.5,10.5,0,0,0-2.8,2.2,8.7,8.7,0,0,0-1.8,3.1,3.4,3.4,0,0,0,0,2,3.1,3.1,0,0,0,1.3,1.5,32.5,32.5,0,0,1,5,3.7,14.4,14.4,0,0,1,2.8,3.7,11.6,11.6,0,0,1,1.1,3.8,13.1,13.1,0,0,1-.5,3.9,25.6,25.6,0,0,1-1.6,4l-2.4,4.2q-1.5,2.1-3,4.5l-3.1,4.9a6.9,6.9,0,0,0,1.5,3.5,7.3,7.3,0,0,0,3,2.4,25.4,25.4,0,0,0,3.8,1.6,18,18,0,0,0,4,1,31,31,0,0,0,6,.5,23.4,23.4,0,0,0,5.4-.9,48.6,48.6,0,0,0,5-1.7,36.1,36.1,0,0,0,4.4-2.2h1.1Z"/><path class="cls-3" d="M929.2,845c-.7,1.4-1.5,2.7-2.3,4.1s-1.5,2.7-2.3,4.1-1.5,2.8-2.3,4.1-1.6,2.7-2.5,4a9.7,9.7,0,0,1-3,2.2,19,19,0,0,1-3.8,1.7,23.6,23.6,0,0,1-4.4,1.1,35.5,35.5,0,0,1-4.7.6,23.4,23.4,0,0,1-4.6-.1,21.2,21.2,0,0,1-4.5-.7,24.8,24.8,0,0,1-4.1-1.5,19,19,0,0,1-3.3-2.2,12.5,12.5,0,0,1-1.6-2.2,13.2,13.2,0,0,1-1-3,11.7,11.7,0,0,1-.2-3.2,7.5,7.5,0,0,1,.9-2.9l2.5-4.3,2.6-4.3a47.3,47.3,0,0,0,2.3-4.5,38.6,38.6,0,0,0,2-5.1,8.6,8.6,0,0,0-1.4-2.7,11.2,11.2,0,0,0-1.7-2l-2-1.3a9.3,9.3,0,0,0-1.9-1.1,7.4,7.4,0,0,1-1.7-1.2,8.6,8.6,0,0,1-1.3-1.4,5.2,5.2,0,0,1-.6-2,9.2,9.2,0,0,1,.2-2.8,24,24,0,0,1,1.2-4c.7-1.5,1.5-3.3,2.6-5.3s2.7-4.8,4.2-7.2,3.1-4.9,4.8-7.4a46.7,46.7,0,0,1,5.7-6.6,36.9,36.9,0,0,1,6.6-5.2l.7-.4.8-.5.9-.3,1-.4c-.7,1.1-1.4,2.2-2,3.3s-1.2,2.4-1.7,3.6-1.1,2.4-1.6,3.7-1.1,2.5-1.6,3.8l-2.9,1.8a19.2,19.2,0,0,1-3.1,1.8,11.1,11.1,0,0,0-2.9,2.2,10.3,10.3,0,0,0-1.7,3.1,2.8,2.8,0,0,0,0,2,2.7,2.7,0,0,0,1.3,1.5,38.2,38.2,0,0,1,5,3.7,14.4,14.4,0,0,1,2.8,3.7,11.3,11.3,0,0,1,1,3.8,10.4,10.4,0,0,1-.4,3.9,25.6,25.6,0,0,1-1.6,4l-2.4,4.2q-1.5,2.1-3,4.5c-1,1.6-2.1,3.2-3.1,4.9a7.8,7.8,0,0,0,1.4,3.5,8.9,8.9,0,0,0,3,2.4,32,32,0,0,0,3.9,1.6,18,18,0,0,0,4,1,30,30,0,0,0,5.9.5,24.3,24.3,0,0,0,5.5-.9c1.8-.5,3.4-1.1,5-1.7a45.1,45.1,0,0,0,4.4-2.2h1Z"/><path class="cls-3" d="M473.6,825.7a111.3,111.3,0,0,1,.3,11.4,66.9,66.9,0,0,1-1.4,10.4c-.8,3.2-1.7,6.3-2.7,9.2a75.9,75.9,0,0,1-3.3,8.1l-.4.8-.5.7-.7.3-.7.3a147.3,147.3,0,0,0,1-18.5,106.6,106.6,0,0,0-1.8-17.2,133.7,133.7,0,0,0-3.8-15.7,103,103,0,0,0-5.3-13.9c.6-1.6,1.1-3.2,1.7-4.9s1.3-3.5,1.9-5.3,1.4-3.5,2-5.2l2.1-5.1,3.6,9.6c1.1,3.2,2.2,6.6,3.2,10s1.9,6.9,2.6,10.6,1.4,7.5,1.9,11.4v3Z"/></g></g></g></g></g></svg>